<?xml version="1.0" encoding="UTF-8" standalone="no"?>
<!-- Created with Inkscape (http://www.inkscape.org/) -->

<svg
   xmlns:dc="http://purl.org/dc/elements/1.1/"
   xmlns:cc="http://creativecommons.org/ns#"
   xmlns:rdf="http://www.w3.org/1999/02/22-rdf-syntax-ns#"
   xmlns:svg="http://www.w3.org/2000/svg"
   xmlns="http://www.w3.org/2000/svg"
   xmlns:sodipodi="http://sodipodi.sourceforge.net/DTD/sodipodi-0.dtd"
   xmlns:inkscape="http://www.inkscape.org/namespaces/inkscape"
   id="svg2"
   version="1.1"
   inkscape:version="0.91 r13725"
   xml:space="preserve"
   width="228.31662"
   height="69.141747"
   viewBox="0 0 228.31662 69.141748"
   sodipodi:docname="data_cube.svg"><metadata
     id="metadata8"><rdf:RDF><cc:Work
         rdf:about=""><dc:format>image/svg+xml</dc:format><dc:type
           rdf:resource="http://purl.org/dc/dcmitype/StillImage" /><dc:title></dc:title></cc:Work></rdf:RDF></metadata><defs
     id="defs6"><clipPath
       clipPathUnits="userSpaceOnUse"
       id="clipPath76"><path
         d="m 0,83.169 210.246,0 L 210.246,0 0,0 0,83.169 Z"
         id="path78"
         inkscape:connector-curvature="0" /></clipPath></defs><sodipodi:namedview
     pagecolor="#ffffff"
     bordercolor="#666666"
     borderopacity="1"
     objecttolerance="10"
     gridtolerance="10"
     guidetolerance="10"
     inkscape:pageopacity="0"
     inkscape:pageshadow="2"
     inkscape:window-width="1871"
     inkscape:window-height="1062"
     id="namedview4"
     showgrid="false"
     fit-margin-top="0"
     fit-margin-left="0"
     fit-margin-right="0"
     fit-margin-bottom="0"
     inkscape:zoom="1.5068063"
     inkscape:cx="113.685"
     inkscape:cy="34.872811"
     inkscape:window-x="49"
     inkscape:window-y="18"
     inkscape:window-maximized="1"
     inkscape:current-layer="g10" /><g
     id="g10"
     inkscape:groupmode="layer"
     inkscape:label="Data Cube Logo_Inline"
     transform="matrix(1.25,0,0,-1.25,-17.71875,86.24925)"><g
       id="g12"
       transform="translate(45.3339,41.3512)"><path
         d="M 0,0 -7.802,-13.487 -15.58,0.012 -7.778,13.498 0,0 Z"
         style="fill:#fab031;fill-opacity:1;fill-rule:nonzero;stroke:none"
         id="path14"
         inkscape:connector-curvature="0" /></g><g
       id="g16"
       transform="translate(29.7658,54.8553)"><path
         d="m 0,0 -3.901,-6.743 3.889,-6.749 -3.9,-6.744 3.889,-6.749 3.9,6.743 -3.889,6.75 3.901,6.743 L 0,0 Z"
         style="fill:#fdbf60;fill-opacity:1;fill-rule:nonzero;stroke:none"
         id="path18"
         inkscape:connector-curvature="0" /></g><g
       id="g20"
       transform="translate(33.6549,48.1062)"><path
         d="m 0,0 -3.901,-6.743 3.889,-6.749 3.901,6.743 L 0,0 Z"
         style="fill:#f38d16;fill-opacity:1;fill-rule:nonzero;stroke:none"
         id="path22"
         inkscape:connector-curvature="0" /></g><g
       id="g24"
       transform="translate(46.6632,42.0159)"><path
         d="M 0,0 15.581,-0.013 7.802,13.485 -7.778,13.498 0,0 Z"
         style="fill:#008d3b;fill-opacity:1;fill-rule:nonzero;stroke:none"
         id="path26"
         inkscape:connector-curvature="0" /></g><g
       id="g28"
       transform="translate(42.7862,62.2567)"><path
         d="m 0,0 3.889,-6.749 7.79,-0.007 3.889,-6.749 7.791,-0.006 -3.889,6.749 -7.791,0.006 L 7.79,-0.007 0,0 Z"
         style="fill:#4f9f56;fill-opacity:1;fill-rule:nonzero;stroke:none"
         id="path30"
         inkscape:connector-curvature="0" /></g><g
       id="g32"
       transform="translate(46.6753,55.5076)"><path
         d="M 0,0 3.889,-6.749 11.679,-6.756 7.79,-0.007 0,0 Z"
         style="fill:#00783a;fill-opacity:1;fill-rule:nonzero;stroke:none"
         id="path34"
         inkscape:connector-curvature="0" /></g><g
       id="g36"
       transform="translate(54.4407,27.1869)"><path
         d="M 0,0 7.802,13.487 -7.777,13.5 -15.579,0.013 0,0 Z"
         style="fill:#39a7de;fill-opacity:1;fill-rule:nonzero;stroke:none"
         id="path38"
         inkscape:connector-curvature="0" /></g><g
       id="g40"
       transform="translate(58.3405,33.9285)"><path
         d="m 0,0 -3.9,-6.742 -7.787,0.007 -3.901,-6.745 7.79,-0.007 3.901,6.744 7.789,-0.006 3.9,6.742 L 0,0 Z"
         style="fill:#71b8e5;fill-opacity:1;fill-rule:nonzero;stroke:none"
         id="path42"
         inkscape:connector-curvature="0" /></g><g
       id="g44"
       transform="translate(50.5537,33.935)"><path
         d="m 0,0 -3.9,-6.742 7.787,-0.006 3.9,6.741 L 0,0 Z"
         style="fill:#008dce;fill-opacity:1;fill-rule:nonzero;stroke:none"
         id="path46"
         inkscape:connector-curvature="0" /></g><g
       id="g48"
       transform="translate(21.976,54.8611)"><path
         d="m 0,0 -7.801,-13.487 7.778,-13.498 3.9,6.744 -3.889,6.749 3.901,6.743 L 0,0 Z"
         style="fill:#ffd69b;fill-opacity:1;fill-rule:nonzero;stroke:none"
         id="path50"
         inkscape:connector-curvature="0" /></g><g
       id="g52"
       transform="translate(25.8651,48.112)"><path
         d="m 0,0 -3.901,-6.743 3.889,-6.749 3.901,6.743 L 0,0 Z"
         style="fill:#f8a53b;fill-opacity:1;fill-rule:nonzero;stroke:none"
         id="path54"
         inkscape:connector-curvature="0" /></g><g
       id="g56"
       transform="translate(46.6873,68.9994)"><path
         d="m 0,0 3.889,-6.749 7.79,-0.007 3.889,-6.749 7.791,-0.006 L 15.581,-0.013 0,0 Z"
         style="fill:#97bf8f;fill-opacity:1;fill-rule:nonzero;stroke:none"
         id="path58"
         inkscape:connector-curvature="0" /></g><g
       id="g60"
       transform="translate(50.5764,62.2502)"><path
         d="M 0,0 3.889,-6.749 11.679,-6.756 7.79,-0.007 0,0 Z"
         style="fill:#048a45;fill-opacity:1;fill-rule:nonzero;stroke:none"
         id="path62"
         inkscape:connector-curvature="0" /></g><g
       id="g64"
       transform="translate(62.232,27.179)"><path
         d="m 0,0 -3.901,-6.744 -7.789,0.007 -3.901,-6.743 15.579,-0.013 L 7.79,-0.007 0,0 Z"
         style="fill:#a9d0ef;fill-opacity:1;fill-rule:nonzero;stroke:none"
         id="path66"
         inkscape:connector-curvature="0" /></g><g
       id="g68"
       transform="translate(54.443,27.1855)"><path
         d="M 0,0 -3.901,-6.744 3.888,-6.75 7.789,-0.007 0,0 Z"
         style="fill:#36a2da;fill-opacity:1;fill-rule:nonzero;stroke:none"
         id="path70"
         inkscape:connector-curvature="0" /></g><g
       id="g72"><g
         id="g74"
         clip-path="url(#clipPath76)"><g
           id="g80"
           transform="translate(75.993,42.758)"><path
             d="M 0,0 C -0.038,0.129 -0.112,0.19 -0.228,0.19 -0.344,0.19 -0.417,0.129 -0.456,0 l -1.189,-3.896 2.82,0 L 0,0 Z m -1.134,0.171 c 0.115,0.381 0.476,0.647 0.903,0.647 0.428,0 0.772,-0.266 0.892,-0.646 L 2.639,-6.39 c 0.007,-0.024 0.01,-0.049 0.01,-0.075 0,-0.142 -0.116,-0.283 -0.315,-0.296 -0.157,-0.016 -0.301,0.093 -0.345,0.233 l -0.63,2.006 -3.191,0 -0.62,-1.998 c -0.045,-0.146 -0.189,-0.257 -0.352,-0.244 -0.196,0.009 -0.314,0.141 -0.314,0.308 0,0.032 0.005,0.066 0.014,0.101 l 1.97,6.526 z"
             style="fill:#6b6c6c;fill-opacity:1;fill-rule:nonzero;stroke:none"
             id="path82"
             inkscape:connector-curvature="0" /></g><g
           id="g84"
           transform="translate(82.9872,41.1711)"><path
             d="m 0,0 c 0,0.17 0.127,0.335 0.323,0.335 0.195,0 0.326,-0.163 0.326,-0.314 l 0,-4.722 c 0,-0.248 -0.187,-0.479 -0.494,-0.479 l -1.921,0 c -0.92,0 -1.728,0.672 -1.728,1.808 l 0,3.393 c 0,0.149 0.134,0.314 0.333,0.314 0.189,0 0.316,-0.165 0.316,-0.314 l 0,-3.393 c 0,-0.728 0.514,-1.222 1.079,-1.222 L 0,-4.594 0,0 Z"
             style="fill:#6b6c6c;fill-opacity:1;fill-rule:nonzero;stroke:none"
             id="path86"
             inkscape:connector-curvature="0" /></g><g
           id="g88"
           transform="translate(88.0741,41.5022)"><path
             d="m 0,0 c 0.198,0 0.329,-0.131 0.329,-0.292 0,-0.176 -0.135,-0.297 -0.308,-0.297 l -1.662,0 c -0.691,0 -1.227,-0.245 -1.227,-0.903 0,-0.601 0.394,-0.779 1.308,-0.891 l 0.391,-0.057 c 1.051,-0.145 1.705,-0.574 1.705,-1.491 0,-1.214 -0.848,-1.58 -2.062,-1.58 l -1.514,0 c -0.175,0 -0.309,0.121 -0.309,0.289 0,0.171 0.132,0.297 0.309,0.297 l 1.514,0 c 0.859,0 1.413,0.255 1.413,0.984 0,0.494 -0.41,0.824 -1.151,0.911 l -0.465,0.052 c -1.077,0.123 -1.785,0.487 -1.785,1.468 0,1.082 0.871,1.51 1.873,1.51 L 0,0 Z"
             style="fill:#6b6c6c;fill-opacity:1;fill-rule:nonzero;stroke:none"
             id="path90"
             inkscape:connector-curvature="0" /></g><g
           id="g92"
           transform="translate(90.1317,42.4162)"><path
             d="M 0,0 C 0,0.173 0.138,0.311 0.326,0.311 0.517,0.311 0.649,0.171 0.649,0 l 0,-0.911 1.391,0 c 0.211,0 0.341,-0.137 0.341,-0.311 0,-0.171 -0.122,-0.299 -0.323,-0.299 l -1.409,0 0,-3.205 c 0,-0.802 0.236,-1.19 1.006,-1.19 l 0.403,0 c 0.195,0 0.323,-0.142 0.323,-0.317 0,-0.169 -0.124,-0.3 -0.323,-0.3 l -0.402,0 C 0.469,-6.533 0,-5.887 0,-4.726 l 0,3.205 -0.575,0 c -0.187,0 -0.32,0.125 -0.32,0.299 0,0.185 0.133,0.311 0.32,0.311 L 0,-0.911 0,0 Z"
             style="fill:#6b6c6c;fill-opacity:1;fill-rule:nonzero;stroke:none"
             id="path94"
             inkscape:connector-curvature="0" /></g><g
           id="g96"
           transform="translate(95.9159,41.6145)"><path
             d="m 0,0 c 0.209,0 0.33,-0.134 0.33,-0.293 0,-0.165 -0.124,-0.289 -0.309,-0.289 l -0.353,0 c -1.01,0 -1.489,-0.595 -1.489,-1.551 l 0,-3.19 c 0,-0.177 -0.137,-0.3 -0.326,-0.3 -0.202,0 -0.321,0.126 -0.321,0.3 l 0,5.041 c 0,0.183 0.094,0.282 0.267,0.282 0.175,0 0.269,-0.097 0.275,-0.277 l 0.013,-0.448 C -1.614,-0.245 -1.104,0 -0.332,0 L 0,0 Z"
             style="fill:#6b6c6c;fill-opacity:1;fill-rule:nonzero;stroke:none"
             id="path98"
             inkscape:connector-curvature="0" /></g><g
           id="g100"
           transform="translate(100.2206,36.5979)"><path
             d="m 0,0 0,1.926 -1.828,0 C -2.337,1.926 -2.782,1.479 -2.782,0.952 -2.782,0.429 -2.34,0 -1.828,0 L 0,0 Z m -2.78,4.318 c -0.211,0 -0.33,0.126 -0.33,0.297 0,0.157 0.115,0.292 0.312,0.292 l 1.945,0 c 0.874,0 1.502,-0.689 1.502,-1.583 l 0,-3.473 c 0,-0.263 -0.202,-0.457 -0.473,-0.457 l -2.004,0 c -0.884,0 -1.593,0.698 -1.593,1.559 0,0.857 0.707,1.576 1.593,1.576 l 1.828,0 0,0.757 c 0,0.588 -0.349,1.032 -0.889,1.032 l -1.891,0 z"
             style="fill:#6b6c6c;fill-opacity:1;fill-rule:nonzero;stroke:none"
             id="path102"
             inkscape:connector-curvature="0" /></g><g
           id="g104"
           transform="translate(102.0712,43.2648)"><path
             d="m 0,0 c 0,0.174 0.13,0.311 0.326,0.311 0.187,0 0.326,-0.134 0.326,-0.332 l 0,-6.924 C 0.652,-7.14 0.513,-7.273 0.326,-7.273 0.13,-7.273 0,-7.137 0,-6.963 L 0,0 Z"
             style="fill:#6b6c6c;fill-opacity:1;fill-rule:nonzero;stroke:none"
             id="path106"
             inkscape:connector-curvature="0" /></g><g
           id="g108"
           transform="translate(103.9208,41.1916)"><path
             d="M 0,0 C 0,0.179 0.117,0.317 0.316,0.317 0.502,0.317 0.643,0.184 0.643,0 l 0,-4.9 C 0.643,-5.079 0.508,-5.2 0.316,-5.2 0.119,-5.2 0,-5.074 0,-4.9 L 0,0 Z m 0,2.02 c 0,0.172 0.117,0.31 0.316,0.31 0.186,0 0.327,-0.133 0.327,-0.31 l 0,-0.21 C 0.643,1.637 0.51,1.51 0.316,1.51 0.117,1.51 0,1.641 0,1.81 l 0,0.21 z"
             style="fill:#6b6c6c;fill-opacity:1;fill-rule:nonzero;stroke:none"
             id="path110"
             inkscape:connector-curvature="0" /></g><g
           id="g112"
           transform="translate(108.9188,36.5979)"><path
             d="m 0,0 0,1.926 -1.828,0 C -2.337,1.926 -2.782,1.479 -2.782,0.952 -2.782,0.429 -2.34,0 -1.828,0 L 0,0 Z m -2.78,4.318 c -0.211,0 -0.33,0.126 -0.33,0.297 0,0.157 0.115,0.292 0.312,0.292 l 1.945,0 c 0.874,0 1.502,-0.689 1.502,-1.583 l 0,-3.473 c 0,-0.263 -0.202,-0.457 -0.473,-0.457 l -2.004,0 c -0.884,0 -1.593,0.698 -1.593,1.559 0,0.857 0.707,1.576 1.593,1.576 l 1.828,0 0,0.757 c 0,0.588 -0.349,1.032 -0.889,1.032 l -1.891,0 z"
             style="fill:#6b6c6c;fill-opacity:1;fill-rule:nonzero;stroke:none"
             id="path114"
             inkscape:connector-curvature="0" /></g><g
           id="g116"
           transform="translate(113.1366,41.5051)"><path
             d="m 0,0 c 0.921,0 1.729,-0.68 1.729,-1.813 l 0,-3.39 c 0,-0.157 -0.147,-0.311 -0.336,-0.311 -0.189,0 -0.314,0.158 -0.314,0.311 l 0,3.39 c 0,0.73 -0.443,1.224 -1.079,1.224 l -1.766,0 0,-4.597 c 0,-0.187 -0.139,-0.328 -0.326,-0.328 -0.198,0 -0.323,0.158 -0.323,0.311 l 0,4.722 c 0,0.248 0.186,0.482 0.495,0.482 L 0,0 Z"
             style="fill:#6b6c6c;fill-opacity:1;fill-rule:nonzero;stroke:none"
             id="path118"
             inkscape:connector-curvature="0" /></g><g
           id="g120"
           transform="translate(122.91,39.2639)"><path
             d="m 0,0 c -0.213,0 -0.35,0.151 -0.35,0.312 0,0.16 0.152,0.311 0.329,0.311 l 1.4,0 c 0.308,0 0.528,-0.226 0.528,-0.512 l 0,-2.876 c 0,-0.292 -0.222,-0.507 -0.528,-0.507 l -2.228,0 c -1.642,0 -2.574,1.047 -2.574,2.567 l 0,2.385 c 0,1.887 0.988,2.632 2.574,2.632 l 2.052,0 c 0.171,0 0.328,-0.15 0.328,-0.311 0,-0.161 -0.157,-0.312 -0.328,-0.312 l -2.052,0 c -1.171,0 -1.889,-0.577 -1.889,-2.009 l 0,-2.385 c 0,-1.122 0.669,-1.948 1.888,-1.948 l 2.079,0 L 1.229,0 0,0 Z"
             style="fill:#6b6c6c;fill-opacity:1;fill-rule:nonzero;stroke:none"
             id="path122"
             inkscape:connector-curvature="0" /></g><g
           id="g124"
           transform="translate(129.5302,39.4523)"><path
             d="m 0,0 c -0.013,0.958 -0.5,1.464 -1.455,1.464 -0.861,0 -1.388,-0.58 -1.405,-1.462 l 0,-0.473 2.86,0 L 0,0 Z m -3.51,-0.051 c 0,1.333 0.909,2.105 2.055,2.105 1.344,0 2.109,-0.747 2.109,-2.105 l 0,-0.511 c 0,-0.254 -0.203,-0.447 -0.476,-0.447 l -3.032,0 c 0.013,-1.317 0.311,-1.866 1.371,-1.866 l 1.643,0 c 0.202,0 0.32,-0.131 0.32,-0.297 0,-0.163 -0.119,-0.289 -0.302,-0.289 l -1.669,0 c -1.596,0 -2.019,0.851 -2.019,2.567 l 0,0.843 z"
             style="fill:#6b6c6c;fill-opacity:1;fill-rule:nonzero;stroke:none"
             id="path126"
             inkscape:connector-curvature="0" /></g><g
           id="g128"
           transform="translate(133.5487,36.5129)"><path
             d="m 0,0 c 0.702,0 1.181,0.559 1.181,1.287 l 0,1.756 C 1.181,3.79 0.696,4.424 0,4.424 l -0.661,0 c -0.695,0 -1.178,-0.633 -1.178,-1.381 l 0,-1.756 C -1.839,0.558 -1.362,0 -0.661,0 L 0,0 Z m -0.661,-0.564 c -1.033,0 -1.827,0.753 -1.827,1.887 l 0,1.666 c 0,1.137 0.775,1.996 1.827,1.996 l 0.661,0 c 1.049,0 1.824,-0.859 1.824,-1.996 l 0,-1.666 C 1.824,0.189 1.03,-0.564 0,-0.564 l -0.661,0 z"
             style="fill:#6b6c6c;fill-opacity:1;fill-rule:nonzero;stroke:none"
             id="path130"
             inkscape:connector-curvature="0" /></g><g
           id="g132"
           transform="translate(139.7567,41.5022)"><path
             d="m 0,0 c 0.198,0 0.329,-0.131 0.329,-0.292 0,-0.176 -0.135,-0.297 -0.308,-0.297 l -1.662,0 c -0.692,0 -1.227,-0.245 -1.227,-0.903 0,-0.601 0.394,-0.779 1.308,-0.891 l 0.391,-0.057 c 1.051,-0.145 1.705,-0.574 1.705,-1.491 0,-1.214 -0.848,-1.58 -2.062,-1.58 l -1.514,0 c -0.175,0 -0.309,0.121 -0.309,0.289 0,0.171 0.132,0.297 0.309,0.297 l 1.514,0 c 0.859,0 1.413,0.255 1.413,0.984 0,0.494 -0.41,0.824 -1.151,0.911 l -0.465,0.052 c -1.077,0.123 -1.785,0.487 -1.785,1.468 0,1.082 0.871,1.51 1.872,1.51 L 0,0 Z"
             style="fill:#6b6c6c;fill-opacity:1;fill-rule:nonzero;stroke:none"
             id="path134"
             inkscape:connector-curvature="0" /></g><g
           id="g136"
           transform="translate(144.5087,41.5061)"><path
             d="M 0,0 C 0.19,0 0.306,-0.136 0.306,-0.293 0.306,-0.464 0.187,-0.59 0,-0.59 l -1.218,0 c -1.045,0 -1.491,-0.55 -1.491,-1.624 l 0,-1.02 c 0,-1.161 0.501,-1.695 1.491,-1.695 l 1.218,0 c 0.188,0 0.306,-0.131 0.306,-0.297 0,-0.163 -0.119,-0.289 -0.306,-0.289 l -1.218,0 c -1.426,0 -2.135,0.743 -2.135,2.287 l 0,1.014 C -3.353,-0.776 -2.65,0 -1.218,0 L 0,0 Z"
             style="fill:#6b6c6c;fill-opacity:1;fill-rule:nonzero;stroke:none"
             id="path138"
             inkscape:connector-curvature="0" /></g><g
           id="g140"
           transform="translate(145.8251,41.1916)"><path
             d="M 0,0 C 0,0.179 0.117,0.317 0.316,0.317 0.502,0.317 0.643,0.184 0.643,0 l 0,-4.9 C 0.643,-5.079 0.508,-5.2 0.316,-5.2 0.119,-5.2 0,-5.074 0,-4.9 L 0,0 Z m 0,2.02 c 0,0.172 0.117,0.31 0.316,0.31 0.186,0 0.327,-0.133 0.327,-0.31 l 0,-0.21 C 0.643,1.637 0.51,1.51 0.316,1.51 0.117,1.51 0,1.641 0,1.81 l 0,0.21 z"
             style="fill:#6b6c6c;fill-opacity:1;fill-rule:nonzero;stroke:none"
             id="path142"
             inkscape:connector-curvature="0" /></g><g
           id="g144"
           transform="translate(151.0155,39.4523)"><path
             d="m 0,0 c -0.013,0.958 -0.5,1.464 -1.455,1.464 -0.861,0 -1.388,-0.58 -1.405,-1.462 l 0,-0.473 2.86,0 L 0,0 Z m -3.51,-0.051 c 0,1.333 0.909,2.105 2.055,2.105 1.344,0 2.109,-0.747 2.109,-2.105 l 0,-0.511 c 0,-0.254 -0.203,-0.447 -0.476,-0.447 l -3.032,0 c 0.014,-1.317 0.311,-1.866 1.371,-1.866 l 1.643,0 c 0.202,0 0.32,-0.131 0.32,-0.297 0,-0.163 -0.119,-0.289 -0.302,-0.289 l -1.669,0 c -1.596,0 -2.019,0.851 -2.019,2.567 l 0,0.843 z"
             style="fill:#6b6c6c;fill-opacity:1;fill-rule:nonzero;stroke:none"
             id="path146"
             inkscape:connector-curvature="0" /></g><g
           id="g148"
           transform="translate(155.0507,41.5051)"><path
             d="m 0,0 c 0.921,0 1.729,-0.68 1.729,-1.813 l 0,-3.39 c 0,-0.157 -0.147,-0.311 -0.336,-0.311 -0.189,0 -0.314,0.158 -0.314,0.311 l 0,3.39 c 0,0.73 -0.443,1.224 -1.079,1.224 l -1.766,0 0,-4.597 c 0,-0.187 -0.139,-0.328 -0.326,-0.328 -0.198,0 -0.323,0.158 -0.323,0.311 l 0,4.722 c 0,0.248 0.186,0.482 0.495,0.482 L 0,0 Z"
             style="fill:#6b6c6c;fill-opacity:1;fill-rule:nonzero;stroke:none"
             id="path150"
             inkscape:connector-curvature="0" /></g><g
           id="g152"
           transform="translate(161.1249,41.5061)"><path
             d="M 0,0 C 0.19,0 0.306,-0.136 0.306,-0.293 0.306,-0.464 0.187,-0.59 0,-0.59 l -1.218,0 c -1.046,0 -1.491,-0.55 -1.491,-1.624 l 0,-1.02 c 0,-1.161 0.501,-1.695 1.491,-1.695 l 1.218,0 c 0.188,0 0.306,-0.131 0.306,-0.297 0,-0.163 -0.119,-0.289 -0.306,-0.289 l -1.218,0 c -1.426,0 -2.135,0.743 -2.135,2.287 l 0,1.014 C -3.353,-0.776 -2.65,0 -1.218,0 L 0,0 Z"
             style="fill:#6b6c6c;fill-opacity:1;fill-rule:nonzero;stroke:none"
             id="path154"
             inkscape:connector-curvature="0" /></g><g
           id="g156"
           transform="translate(165.5956,39.4523)"><path
             d="m 0,0 c -0.013,0.958 -0.5,1.464 -1.455,1.464 -0.861,0 -1.388,-0.58 -1.405,-1.462 l 0,-0.473 2.86,0 L 0,0 Z m -3.51,-0.051 c 0,1.333 0.909,2.105 2.055,2.105 1.344,0 2.109,-0.747 2.109,-2.105 l 0,-0.511 c 0,-0.254 -0.203,-0.447 -0.476,-0.447 l -3.032,0 c 0.014,-1.317 0.311,-1.866 1.371,-1.866 l 1.643,0 c 0.202,0 0.32,-0.131 0.32,-0.297 0,-0.163 -0.119,-0.289 -0.302,-0.289 l -1.669,0 c -1.596,0 -2.019,0.851 -2.019,2.567 l 0,0.843 z"
             style="fill:#6b6c6c;fill-opacity:1;fill-rule:nonzero;stroke:none"
             id="path158"
             inkscape:connector-curvature="0" /></g><g
           id="g160"
           transform="translate(93.2997,25.2307)"><path
             d="m 0,0 c 0,3.2 -1.605,4.488 -4.22,4.488 l -4.339,0 0,-14.169 4.339,0 c 2.725,0 4.22,1.847 4.22,4.352 L 0,0 Z m -10.065,4.744 c 0,0.65 0.486,1.136 1.172,1.136 l 4.673,0 C -0.678,5.88 1.53,4.217 1.53,0 l 0,-5.328 c 0,-3.395 -2.081,-5.734 -5.75,-5.734 l -4.673,0 c -0.686,0 -1.172,0.484 -1.172,1.133 l 0,14.673 z"
             style="fill:#1b1a1a;fill-opacity:1;fill-rule:nonzero;stroke:none"
             id="path162"
             inkscape:connector-curvature="0" /></g><g
           id="g164"
           transform="translate(103.5643,29.2834)"><path
             d="m 0,0 c -0.087,0.287 -0.251,0.425 -0.51,0.425 -0.259,0 -0.423,-0.137 -0.511,-0.424 l -2.653,-8.703 6.297,0 L 0,0 Z m -2.534,0.382 c 0.259,0.85 1.063,1.445 2.015,1.445 0.957,0 1.726,-0.595 1.994,-1.444 l 4.418,-14.656 c 0.016,-0.055 0.025,-0.112 0.025,-0.167 0,-0.32 -0.261,-0.635 -0.704,-0.664 -0.353,-0.036 -0.672,0.208 -0.771,0.521 l -1.407,4.481 -7.129,0 -1.386,-4.461 c -0.099,-0.329 -0.419,-0.577 -0.786,-0.545 -0.438,0.019 -0.701,0.314 -0.701,0.686 0,0.073 0.01,0.149 0.031,0.226 l 4.401,14.578 z"
             style="fill:#1b1a1a;fill-opacity:1;fill-rule:nonzero;stroke:none"
             id="path166"
             inkscape:connector-curvature="0" /></g><g
           id="g168"
           transform="translate(120.6649,31.1086)"><path
             d="m 0,0 c 0.481,0 0.773,-0.352 0.773,-0.696 0,-0.354 -0.329,-0.697 -0.725,-0.692 l -4.676,0 0,-14.851 c 0,-0.366 -0.358,-0.7 -0.741,-0.7 -0.429,0 -0.75,0.335 -0.75,0.696 l 0,14.85 -4.722,0 c -0.393,0 -0.733,0.339 -0.733,0.697 0,0.356 0.34,0.695 0.733,0.695 L 0,0 Z"
             style="fill:#1b1a1a;fill-opacity:1;fill-rule:nonzero;stroke:none"
             id="path170"
             inkscape:connector-curvature="0" /></g><g
           id="g172"
           transform="translate(128.0204,29.2834)"><path
             d="m 0,0 c -0.087,0.287 -0.251,0.425 -0.51,0.425 -0.259,0 -0.423,-0.137 -0.511,-0.424 l -2.653,-8.703 6.297,0 L 0,0 Z m -2.534,0.382 c 0.259,0.85 1.063,1.445 2.015,1.445 0.957,0 1.726,-0.595 1.994,-1.444 l 4.418,-14.656 c 0.016,-0.055 0.024,-0.112 0.024,-0.167 0,-0.32 -0.26,-0.635 -0.703,-0.664 -0.353,-0.036 -0.672,0.208 -0.771,0.521 l -1.407,4.481 -7.129,0 -1.386,-4.461 c -0.099,-0.329 -0.419,-0.577 -0.786,-0.545 -0.438,0.019 -0.701,0.314 -0.701,0.686 0,0.073 0.01,0.149 0.031,0.226 l 4.401,14.578 z"
             style="fill:#1b1a1a;fill-opacity:1;fill-rule:nonzero;stroke:none"
             id="path174"
             inkscape:connector-curvature="0" /></g><g
           id="g176"
           transform="translate(153.5975,31.1105)"><path
             d="M 0,0 C 0.394,0 0.733,-0.339 0.733,-0.695 0.733,-1.052 0.394,-1.392 0,-1.392 l -4.128,0 c -2.622,0 -4.227,-1.288 -4.227,-4.488 l 0,-5.328 c 0,-2.504 1.501,-4.353 4.227,-4.353 l 4.08,0 c 0.464,0 0.781,-0.335 0.781,-0.688 0,-0.366 -0.342,-0.692 -0.733,-0.692 l -4.128,0 c -3.678,0 -5.75,2.339 -5.75,5.733 l 0,5.328 c 0,4.217 2.207,5.881 5.75,5.881 L 0,0 Z"
             style="fill:#1b1a1a;fill-opacity:1;fill-rule:nonzero;stroke:none"
             id="path178"
             inkscape:connector-curvature="0" /></g><g
           id="g180"
           transform="translate(157.0194,30.4094)"><path
             d="M 0,0 C 0,0.352 0.35,0.696 0.766,0.696 1.163,0.696 1.491,0.354 1.491,0 l 0,-11.246 c 0,-2.322 1.487,-3.642 3.034,-3.642 l 2.938,0 c 1.771,0 2.818,1.459 2.818,3.642 l 0,11.198 c 0,0.44 0.352,0.744 0.734,0.744 0.404,0 0.765,-0.342 0.765,-0.696 l 0,-11.246 c 0,-2.985 -1.636,-5.044 -4.333,-5.044 l -2.929,0 c -2.41,0 -4.523,1.764 -4.518,5.044 L 0,0 Z"
             style="fill:#1b1a1a;fill-opacity:1;fill-rule:nonzero;stroke:none"
             id="path182"
             inkscape:connector-curvature="0" /></g><g
           id="g184"
           transform="translate(173.6805,22.2219)"><path
             d="m 0,0 0,-6.672 5.467,0 c 1.795,0 3.3,1.491 3.3,3.319 C 8.767,-1.516 7.261,0 5.467,0 L 0,0 Z m 5.083,1.392 c 1.639,0 3.027,1.367 3.027,3.033 0,1.681 -1.389,3.072 -3.027,3.072 l -5.083,0 0,-6.105 5.083,0 z m 0,7.497 c 2.474,0 4.501,-2.028 4.501,-4.464 0,-1.559 -0.879,-2.902 -2.161,-3.616 1.646,-0.663 2.809,-2.271 2.809,-4.161 0,-2.596 -2.132,-4.702 -4.765,-4.702 l -5.801,0 c -0.687,0 -1.173,0.484 -1.173,1.134 l 0,14.673 c 0,0.649 0.486,1.137 1.173,1.137 L 5.083,8.889 Z"
             style="fill:#1b1a1a;fill-opacity:1;fill-rule:nonzero;stroke:none"
             id="path186"
             inkscape:connector-curvature="0" /></g><g
           id="g188"
           transform="translate(186.6083,29.9748)"><path
             d="m 0,0 c 0,0.654 0.508,1.137 1.181,1.137 l 8.233,0 c 0.516,0 0.805,-0.323 0.805,-0.721 0,-0.4 -0.296,-0.712 -0.757,-0.712 l -7.948,0 0,-5.993 6.507,0 c 0.481,0 0.805,-0.312 0.805,-0.712 0,-0.426 -0.331,-0.728 -0.757,-0.728 l -6.555,0 0,-6.648 7.9,0 c 0.511,0 0.806,-0.311 0.806,-0.712 0,-0.398 -0.293,-0.717 -0.757,-0.717 l -8.282,0 C 0.508,-15.806 0,-15.327 0,-14.673 L 0,0 Z"
             style="fill:#1b1a1a;fill-opacity:1;fill-rule:nonzero;stroke:none"
             id="path190"
             inkscape:connector-curvature="0" /></g></g></g></g></svg>