<?xml version="1.0" encoding="UTF-8" standalone="no"?>
<svg
   xmlns:dc="http://purl.org/dc/elements/1.1/"
   xmlns:cc="http://creativecommons.org/ns#"
   xmlns:rdf="http://www.w3.org/1999/02/22-rdf-syntax-ns#"
   xmlns:svg="http://www.w3.org/2000/svg"
   xmlns="http://www.w3.org/2000/svg"
   viewBox="0 0 581.11249 354.32501"
   height="354.32501"
   width="581.11249"
   xml:space="preserve"
   version="1.1"
   id="svg2"><metadata
     id="metadata8"><rdf:RDF><cc:Work
         rdf:about=""><dc:format>image/svg+xml</dc:format><dc:type
           rdf:resource="http://purl.org/dc/dcmitype/StillImage" /></cc:Work></rdf:RDF></metadata><defs
     id="defs6" /><g
     transform="matrix(1.25,0,0,-1.25,0,354.325)"
     id="g10"><g
       transform="scale(0.1,0.1)"
       id="g12"><path
         id="path14"
         style="fill:#100f0d;fill-opacity:1;fill-rule:nonzero;stroke:none"
         d="m 852.797,1603.38 c 0,-28.26 -17.27,-45.51 -45.531,-45.51 l -167.192,0 0,420.74 167.192,0 c 28.261,0 45.531,-17.27 45.531,-45.53 l 0,-329.7 z m -32.184,426.26 -221.476,0 c -7.742,0 -14.016,-6.27 -14.016,-14.02 l 0,-494.76 c 0,-7.74 6.274,-14.02 14.016,-14.02 l 221.476,0 c 50.239,0 87.129,36.91 87.129,87.12 l 0,348.54 c 0,51 -36.89,87.14 -87.129,87.14" /><path
         id="path16"
         style="fill:#100f0d;fill-opacity:1;fill-rule:nonzero;stroke:none"
         d="m 1126.34,1328.78 -167.649,0 c -7.746,0 -14.019,-6.28 -14.019,-14.01 l 0,-54.41 c 0,-7.74 6.273,-14.01 14.019,-14.01 l 91.389,0 0,-426.35 c 0,-7.738 6.28,-14.02 14.02,-14.02 l 62.24,0 c 7.74,0 14.01,6.282 14.01,14.02 l 0,494.77 c 0,7.73 -6.27,14.01 -14.01,14.01" /><path
         id="path18"
         style="fill:#100f0d;fill-opacity:1;fill-rule:nonzero;stroke:none"
         d="m 804.125,908.809 c 0,-11.77 -9.418,-20.418 -21.195,-20.418 l -86.344,0 c -11.777,0 -21.195,8.648 -21.195,20.418 l 0,69.859 c 0,11.781 6.285,21.191 21.195,25.912 18.84,6.29 66.719,15.71 86.344,15.71 13.343,0 21.195,-8.65 21.195,-20.431 l 0,-91.05 z m 7.063,197.011 c -38.461,0 -93.411,-9.42 -135.797,-22.75 l 0,142.88 c 0,11.78 9.418,20.4 21.195,20.4 l 151.051,0 c 7.738,0 14.011,6.27 14.011,14.01 l 0,54.41 c 0,7.73 -6.273,14.01 -14.011,14.01 l -179.313,0 c -46.312,0 -83.203,-36.9 -83.203,-82.43 l 0,-357.959 c 0,-45.512 36.109,-82.411 81.637,-82.411 l 144.43,0 c 46.316,0 83.207,36.899 83.207,82.411 l 0,135.019 c 0,45.53 -29.825,82.41 -83.207,82.41" /><path
         id="path20"
         style="fill:#100f0d;fill-opacity:1;fill-rule:nonzero;stroke:none"
         d="m 1702.55,2029.64 -338.54,0 c -7.74,0 -14.02,-6.27 -14.02,-14.02 l 0,-22.99 c 0,-7.75 6.28,-14.02 14.02,-14.02 l 142.19,0 0,-457.75 c 0,-7.74 6.28,-14.02 14.02,-14.02 l 26.91,0 c 7.74,0 14.02,6.28 14.02,14.02 l 0,457.75 141.4,0 c 7.74,0 14.02,6.27 14.02,14.02 l 0,22.99 c 0,7.75 -6.28,14.02 -14.02,14.02" /><path
         id="path22"
         style="fill:#100f0d;fill-opacity:1;fill-rule:nonzero;stroke:none"
         d="m 1094.82,1692.08 87.91,269.26 87.13,-269.26 -175.04,0 z m 287.95,-166.72 0,0 -170.9,494.92 c -1.94,5.42 -7.14,9.36 -13.23,9.36 l -31.83,0 c -6.09,0 -11.28,-3.94 -13.22,-9.36 l -170.856,-494.83 0,0 c -0.511,-1.45 -0.855,-2.96 -0.855,-4.59 0,-7.74 6.273,-14.02 14.016,-14.02 l 26.045,0 c 6.02,0 11.12,3.84 13.11,9.16 l 0.05,-0.02 42.44,125.89 208.8,0 43.76,-125.45 0,0.03 c 1.87,-5.55 7.1,-9.61 13.28,-9.61 l 26.14,0 c 7.74,0 14.02,6.28 14.02,14.02 0,1.6 -0.28,3.07 -0.77,4.5" /><path
         id="path24"
         style="fill:#100f0d;fill-opacity:1;fill-rule:nonzero;stroke:none"
         d="m 1801.77,1692.08 87.91,269.26 87.13,-269.26 -175.04,0 z m 287.95,-166.72 0,0 -170.91,494.92 c -1.93,5.42 -7.13,9.36 -13.22,9.36 l -31.83,0 c -6.09,0 -11.28,-3.94 -13.22,-9.36 l -172.43,-493.97 1.57,-0.86 c -0.51,-1.45 -0.85,-2.96 -0.85,-4.59 0,-7.74 6.27,-14.02 14.02,-14.02 l 26.04,0 c 6.02,0 11.12,3.84 13.11,9.16 l 0.05,-0.02 42.44,125.89 208.8,0 43.76,-125.45 0,0.03 c 1.87,-5.55 7.1,-9.61 13.28,-9.61 l 26.13,0 c 7.75,0 14.02,6.28 14.02,14.02 0,1.6 -0.27,3.07 -0.76,4.5" /><path
         id="path26"
         style="fill:#45be7f;fill-opacity:1;fill-rule:nonzero;stroke:none"
         d="m 2664.37,1948.26 0,0.01 0.02,0 -50.15,28.96 c -3.2,1.88 -6.95,2.96 -10.93,2.96 -4.03,0 -7.82,-1.12 -11.05,-3.04 l -50.03,-28.88 0.04,0 -0.01,-0.01 0.01,0 c -6.04,-3.83 -10.3,-10.3 -10.3,-17.97 l 0,-1025.81 c 0,-7.671 4.25,-14.14 10.29,-17.96 l -0.03,0 50.15,-28.969 c 3.21,-1.879 6.95,-2.961 10.93,-2.961 4.03,0 7.82,1.109 11.06,3.031 l 50.02,28.899 -0.03,0 0.01,0 -0.01,0 c 6.03,3.82 10.29,10.289 10.29,17.96 0,115.58 0,1025.51 0,1025.81 0,7.67 -4.25,14.14 -10.28,17.97" /><path
         id="path28"
         style="fill:#45be7f;fill-opacity:1;fill-rule:nonzero;stroke:none"
         d="m 214.055,2301.13 -0.008,0.01 0.008,-0.01 -0.024,0.02 0,-57.91 c -0.027,-3.72 0.91,-7.5 2.903,-10.94 2.015,-3.49 4.875,-6.23 8.156,-8.06 l 50.027,-28.88 -0.019,0.03 0.007,0 -0.003,0 c 6.339,-3.31 14.062,-3.76 20.714,0.07 l 888.374,512.91 c 6.65,3.83 10.12,10.75 10.42,17.89 l 0,0 0,0.01 0.02,-0.03 0.01,57.92 c 0.02,3.71 -0.91,7.49 -2.91,10.94 -2.01,3.49 -4.87,6.22 -8.15,8.06 l -50.04,28.87 0.02,-0.03 0,0.01 0,-0.01 c -6.33,3.31 -14.06,3.77 -20.71,-0.07 -100.09,-57.78 -888.116,-512.75 -888.377,-512.9 -6.645,-3.84 -10.118,-10.76 -10.418,-17.9" /><path
         id="path30"
         style="fill:#45be7f;fill-opacity:1;fill-rule:nonzero;stroke:none"
         d="m 275.102,639.309 0.003,0.011 0,-0.011 0.012,0.031 -50.156,-28.961 c -3.231,-1.828 -6.035,-4.539 -8.027,-7.988 -2.016,-3.481 -2.95,-7.321 -2.903,-11.082 l 0,-57.77 0.024,0.031 0,0 c 0.3,-7.14 3.773,-14.07 10.418,-17.898 L 1112.85,2.76953 c 6.65,-3.83984 14.37,-3.390624 20.71,-0.07812 l -0.01,0 0.01,0 -0.02,-0.03125 50.17,28.94924 c 3.23,1.8398 6.03,4.539 8.02,7.9922 2.02,3.4882 2.95,7.3398 2.9,11.0898 l 0,57.7696 -0.02,-0.031 0,0 c -0.3,7.148 -3.77,14.058 -10.42,17.898 -100.09,57.781 -888.116,512.75 -888.374,512.902 -6.652,3.84 -14.375,3.391 -20.714,0.079" /><path
         id="path32"
         style="fill:#45be7f;fill-opacity:1;fill-rule:nonzero;stroke:none"
         d="m 1480.04,108.391 -0.01,0.007 0,-0.007 -0.01,0.031 -0.01,-57.922 c -0.02,-3.7109 0.92,-7.4883 2.91,-10.9414 2.01,-3.4883 4.87,-6.2188 8.15,-8.0469 l 50.03,-28.89061 -0.02,0.02735 0.01,0 0,0 c 6.33,-3.308596 14.06,-3.75782 20.71,0.08203 L 2450.18,515.629 c 6.65,3.832 10.11,10.75 10.42,17.902 l 0,-0.011 0,0.011 0.02,-0.031 0.01,57.922 c 0.01,3.707 -0.92,7.488 -2.92,10.937 -2.01,3.493 -4.87,6.223 -8.15,8.051 l -50.03,28.891 0.02,-0.031 -0.01,0 0,-0.008 c -6.33,3.316 -14.05,3.769 -20.7,-0.071 -100.09,-57.781 -888.12,-512.75 -888.38,-512.902 -6.65,-3.84 -10.12,-10.75 -10.42,-17.898" /><path
         id="path34"
         style="fill:#45be7f;fill-opacity:1;fill-rule:nonzero;stroke:none"
         d="m 132.395,1948.26 0.003,0 -0.003,0.01 0.027,0 -50.1525,28.96 c -3.207,1.88 -6.9453,2.96 -10.9257,2.96 -4.0352,0 -7.8282,-1.12 -11.0625,-3.04 l -50.0235,-28.88 0.0352,0 0,-0.01 C 4.25781,1944.43 0,1937.96 0,1930.29 L 0,904.48 c 0,-7.671 4.25391,-14.14 10.293,-17.96 l -0.0117,0 0.0117,0 -0.0352,0 50.1563,-28.969 c 3.2031,-1.879 6.9453,-2.961 10.9297,-2.961 4.0273,0 7.8203,1.109 11.0546,3.031 l 50.0236,28.899 -0.035,0 0.008,0 -0.008,0 c 6.043,3.82 10.293,10.289 10.293,17.96 0,115.58 0,1025.51 0,1025.81 0,7.67 -4.25,14.14 -10.285,17.97" /><path
         id="path36"
         style="fill:#45be7f;fill-opacity:1;fill-rule:nonzero;stroke:none"
         d="m 2664.36,1948.26 0.01,0 -0.01,0.01 0.03,0 -50.15,28.96 c -3.2,1.88 -6.95,2.96 -10.93,2.96 -4.03,0 -7.82,-1.12 -11.05,-3.03 l -50.03,-28.89 0.04,0 -0.01,-0.01 0.01,0 c -6.05,-3.83 -10.3,-10.3 -10.3,-17.97 l 0,-1025.81 c 0,-7.671 4.25,-14.14 10.29,-17.96 l -0.01,0 0.01,0 -0.03,0 50.15,-28.969 c 3.21,-1.879 6.95,-2.961 10.93,-2.961 4.03,0 7.82,1.109 11.06,3.031 l 50.02,28.899 -0.03,0 0,0 c 6.03,3.82 10.29,10.289 10.29,17.96 0,115.58 0,1025.51 0,1025.81 0,7.67 -4.25,14.14 -10.29,17.97" /><path
         id="path38"
         style="fill:#45be7f;fill-opacity:1;fill-rule:nonzero;stroke:none"
         d="m 132.395,1948.26 0.003,0 -0.003,0.01 0.027,0 -50.1525,28.96 c -3.207,1.88 -6.9453,2.96 -10.9257,2.96 -4.0352,0 -7.8282,-1.12 -11.0625,-3.03 l -50.0235,-28.89 0.0352,0 0,-0.01 C 4.25781,1944.43 0,1937.96 0,1930.29 L 0,904.48 c 0,-7.671 4.25391,-14.14 10.293,-17.96 l -0.0117,0 0.0117,0 -0.0352,0 50.1563,-28.969 c 3.2031,-1.879 6.9453,-2.961 10.9297,-2.961 4.0273,0 7.8203,1.109 11.0546,3.031 l 50.0236,28.899 -0.035,0 0.008,0 -0.008,0 c 6.043,3.82 10.293,10.289 10.293,17.96 0,115.58 0,1025.51 0,1025.81 0,7.67 -4.25,14.14 -10.285,17.97" /><path
         id="path40"
         style="fill:#100f0d;fill-opacity:1;fill-rule:nonzero;stroke:none"
         d="m 4302.03,1206.02 c -42.74,0 -72.34,-33.77 -72.34,-75.13 l 0,-0.71 c 0,-41.28 30.29,-75.79 73.05,-75.79 42.72,0 72.36,33.77 72.36,75.12 l 0,0.67 c 0,41.35 -30.33,75.84 -73.07,75.84" /><path
         id="path42"
         style="fill:#100f0d;fill-opacity:1;fill-rule:nonzero;stroke:none"
         d="m 4041.51,1202.89 -52.7,0 0,-69.27 53.73,0 c 25.87,0 40.6,13.78 40.6,34.13 l 0,0.68 c 0,22.75 -15.79,34.46 -41.63,34.46" /><path
         id="path44"
         style="fill:#100f0d;fill-opacity:1;fill-rule:nonzero;stroke:none"
         d="m 4302.03,1005.5 c -74.4,0 -127.81,55.41 -127.81,124.01 l 0,0.67 c 0,68.61 54.11,124.77 128.52,124.77 74.43,0 127.78,-55.5 127.78,-124.06 l 0,-0.71 c 0,-68.54 -54.08,-124.68 -128.49,-124.68 z m -150.72,560.28 0,219.67 c 0,21.35 17.34,38.67 38.67,38.67 21.36,0 38.63,-17.32 38.63,-38.67 l 0,-219.67 c 0,-21.3 -17.27,-38.64 -38.63,-38.64 -21.33,0 -38.67,17.34 -38.67,38.64 z m -69.15,-556.15 -51.69,77.11 -41.66,0 0,-77.11 -53.07,0 0,241.17 110.24,0 c 56.8,0 90.93,-29.99 90.93,-79.59 l 0,-0.71 c 0,-38.91 -20.96,-63.4 -51.66,-74.76 l 58.93,-86.11 -62.02,0 z m -189.9,519.06 0,331.03 c 0,21.33 17.3,38.67 38.7,38.67 21.32,0 38.64,-17.34 38.64,-38.67 l 0,-331.03 c 0,-21.32 -17.32,-38.66 -38.64,-38.66 -21.4,0 -38.7,17.34 -38.7,38.66 z m 168.2,-112.93 c 23.08,0 41.79,-18.69 41.79,-41.73 0,-23.07 -18.71,-41.73 -41.79,-41.73 -23.06,0 -41.76,18.66 -41.76,41.73 0,23.04 18.7,41.73 41.76,41.73 z m -38.67,555.31 c 0,21.38 17.33,38.68 38.67,38.68 21.38,0 38.64,-17.3 38.64,-38.68 l 0,-479.49 c 0,-21.33 -17.26,-38.69 -38.64,-38.69 -21.34,0 -38.67,17.36 -38.67,38.69 l 0,479.49 z m -153.93,-837.45 0,-123.99 -53.05,0 0,241.17 53.05,0 0,-117.18 z m -105.15,506.46 0,330.99 c 0,21.38 17.35,38.68 38.7,38.68 21.31,0 38.64,-17.3 38.64,-38.68 l 0,-330.99 c 0,-21.38 -17.33,-38.67 -38.64,-38.67 -21.35,0 -38.7,17.29 -38.7,38.67 z m -6.59,-559.15 c 0,-47.95 -36.5,-74.76 -88.53,-74.76 -36.52,0 -73.35,12.74 -102.3,38.59 l 31.31,37.57 c 21.7,-17.93 44.47,-29.32 72.08,-29.32 21.7,0 34.76,8.63 34.76,22.75 l 0,0.67 c 0,13.49 -8.29,20.36 -48.61,30.67 -48.49,12.42 -79.93,25.91 -79.93,73.75 l 0,0.69 c 0,43.73 35.15,72.7 84.41,72.7 35.15,0 65.19,-10.98 89.6,-30.68 l -27.57,-39.95 c -21.33,14.81 -42.35,23.79 -62.72,23.79 -20.31,0 -31,-9.3 -31,-21.03 l 0,-0.76 c 0,-15.8 10.33,-20.92 52.04,-31.58 48.92,-12.81 76.46,-30.37 76.46,-72.44 l 0,-0.66 z m -252.43,484.85 0,219.67 c 0,21.35 17.31,38.67 38.67,38.67 21.34,0 38.63,-17.32 38.63,-38.67 l 0,-219.67 c 0,-21.3 -17.29,-38.64 -38.63,-38.64 -21.36,0 -38.67,17.34 -38.67,38.64 z m -71.94,-560.28 c -70.94,0 -123.67,54.77 -123.67,124.01 l 0,0.67 c 0,68.61 51.65,124.77 125.74,124.77 45.54,0 72.69,-15.23 95.12,-37.24 l -33.77,-38.9 c -18.66,16.83 -37.56,27.21 -61.7,27.21 -40.63,0 -69.95,-33.77 -69.95,-75.13 l 0,-0.71 c 0,-41.28 28.63,-75.79 69.95,-75.79 27.62,0 44.46,11.03 63.41,28.28 l 33.77,-34.14 c -24.81,-26.51 -52.37,-43.03 -98.9,-43.03 z m 201.43,891.35 c 0,21.35 17.33,38.67 38.7,38.67 21.33,0 38.68,-17.32 38.68,-38.67 l 0,-293.9 c 0,-21.35 -17.35,-38.69 -38.68,-38.69 -21.37,0 -38.7,17.34 -38.7,38.69 l 0,293.9 z m 236.14,300.01 c -430.55,0 -779.55,-348.97 -779.55,-779.51 0,-430.561 349,-779.549 779.55,-779.549 430.53,0 779.54,348.988 779.54,779.549 0,430.54 -349.01,779.51 -779.54,779.51" /></g></g></svg>