<?xml version="1.0" encoding="UTF-8" standalone="no"?>
<!-- Created with Inkscape (http://www.inkscape.org/) -->

<svg
   xmlns:dc="http://purl.org/dc/elements/1.1/"
   xmlns:cc="http://creativecommons.org/ns#"
   xmlns:rdf="http://www.w3.org/1999/02/22-rdf-syntax-ns#"
   xmlns:svg="http://www.w3.org/2000/svg"
   xmlns="http://www.w3.org/2000/svg"
   xmlns:sodipodi="http://sodipodi.sourceforge.net/DTD/sodipodi-0.dtd"
   xmlns:inkscape="http://www.inkscape.org/namespaces/inkscape"
   id="svg2"
   version="1.1"
   inkscape:version="0.91 r13725"
   xml:space="preserve"
   width="832.39386"
   height="352.93884"
   viewBox="0 0 832.39386 352.93884"
   sodipodi:docname="nci_logo.svg"><metadata
     id="metadata8"><rdf:RDF><cc:Work
         rdf:about=""><dc:format>image/svg+xml</dc:format><dc:type
           rdf:resource="http://purl.org/dc/dcmitype/StillImage" /><dc:title></dc:title></cc:Work></rdf:RDF></metadata><defs
     id="defs6" /><sodipodi:namedview
     pagecolor="#ffffff"
     bordercolor="#666666"
     borderopacity="1"
     objecttolerance="10"
     gridtolerance="10"
     guidetolerance="10"
     inkscape:pageopacity="0"
     inkscape:pageshadow="2"
     inkscape:window-width="1871"
     inkscape:window-height="1062"
     id="namedview4"
     showgrid="false"
     fit-margin-top="0"
     fit-margin-left="0"
     fit-margin-right="0"
     fit-margin-bottom="0"
     inkscape:zoom="0.78031277"
     inkscape:cx="621.6611"
     inkscape:cy="365.21874"
     inkscape:window-x="49"
     inkscape:window-y="18"
     inkscape:window-maximized="1"
     inkscape:current-layer="g10" /><g
     id="g10"
     inkscape:groupmode="layer"
     inkscape:label="ink_ext_XXXXXX"
     transform="matrix(1.25,0,0,-1.25,1.1080307e-4,352.93884)"><g
       id="g12"
       transform="scale(0.1,0.1)"><path
         d="m 437.238,2189.64 c 0.262,-71.45 -57.457,-129.61 -128.906,-129.87 -71.394,-0.29 -129.547,57.47 -129.812,128.93 -0.239,71.44 57.46,129.57 128.847,129.93 71.453,0.23 129.629,-57.52 129.871,-128.99"
         style="fill:#f89b49;fill-opacity:1;fill-rule:nonzero;stroke:none"
         id="path138"
         inkscape:connector-curvature="0" /><path
         d="m 996.125,2647.01 c 0.262,-71.53 -57.437,-129.53 -128.883,-129.88 -71.461,-0.23 -129.547,57.41 -129.808,128.92 -0.282,71.4 57.394,129.62 128.847,129.86 71.453,0.25 129.574,-57.52 129.844,-128.9"
         style="fill:#f89b49;fill-opacity:1;fill-rule:nonzero;stroke:none"
         id="path140"
         inkscape:connector-curvature="0" /><path
         d="m 1730.76,2694.59 c 0.24,-71.51 -57.4,-129.51 -128.86,-129.74 -71.45,-0.36 -129.62,57.28 -129.86,128.79 -0.3,71.38 57.46,129.63 128.91,129.87 71.45,0.23 129.51,-57.52 129.81,-128.92"
         style="fill:#f89b49;fill-opacity:1;fill-rule:nonzero;stroke:none"
         id="path142"
         inkscape:connector-curvature="0" /><path
         d="m 2342.73,2303.55 c 0.24,-71.39 -57.34,-129.56 -128.79,-129.81 -71.45,-0.29 -129.69,57.46 -129.93,128.85 -0.29,71.4 57.52,129.64 128.97,129.87 71.46,0.37 129.46,-57.4 129.75,-128.91"
         style="fill:#f89b49;fill-opacity:1;fill-rule:nonzero;stroke:none"
         id="path144"
         inkscape:connector-curvature="0" /><path
         d="m 2603.97,1625.03 c 0.24,-71.45 -57.4,-129.69 -128.79,-129.92 -71.46,-0.3 -129.7,57.5 -129.94,128.96 -0.24,71.45 57.53,129.63 128.97,129.94 71.4,0.24 129.45,-57.54 129.76,-128.98"
         style="fill:#f89b49;fill-opacity:1;fill-rule:nonzero;stroke:none"
         id="path146"
         inkscape:connector-curvature="0" /><path
         d="m 2423.7,920.672 c 0.29,-71.453 -57.29,-129.633 -128.79,-129.922 -71.4,-0.238 -129.57,57.52 -129.82,128.98 -0.3,71.45 57.41,129.61 128.8,129.86 71.5,0.3 129.56,-57.481 129.81,-128.918"
         style="fill:#f89b49;fill-opacity:1;fill-rule:nonzero;stroke:none"
         id="path148"
         inkscape:connector-curvature="0" /><path
         d="m 1866.67,456.449 c 0.3,-71.469 -57.52,-129.707 -128.91,-129.937 -71.39,-0.301 -129.52,57.519 -129.82,128.98 -0.24,71.387 57.47,129.438 128.86,129.746 71.39,0.231 129.63,-57.398 129.87,-128.789"
         style="fill:#f89b49;fill-opacity:1;fill-rule:nonzero;stroke:none"
         id="path150"
         inkscape:connector-curvature="0" /><path
         d="m 1135.46,419.18 c 0.27,-71.442 -57.45,-129.68 -128.84,-129.918 -71.483,-0.293 -129.604,57.519 -129.878,128.968 -0.262,71.461 57.434,129.45 128.908,129.739 71.4,0.261 129.55,-57.34 129.81,-128.789"
         style="fill:#f89b49;fill-opacity:1;fill-rule:nonzero;stroke:none"
         id="path152"
         inkscape:connector-curvature="0" /><path
         d="m 526.898,803.359 c 0.266,-71.437 -57.433,-129.699 -128.886,-129.918 -71.418,-0.25 -129.539,57.5 -129.809,128.969 -0.269,71.32 57.438,129.43 128.852,129.742 71.457,0.239 129.582,-57.461 129.843,-128.793"
         style="fill:#f89b49;fill-opacity:1;fill-rule:nonzero;stroke:none"
         id="path154"
         inkscape:connector-curvature="0" /><path
         d="M 258.762,1488.7 C 259.023,1417.25 201.293,1359.07 129.809,1358.78 58.4219,1358.52 0.273438,1416.3 0,1487.74 c -0.261719,71.47 57.4648,129.51 128.859,129.77 71.485,0.27 129.633,-57.36 129.903,-128.81"
         style="fill:#f89b49;fill-opacity:1;fill-rule:nonzero;stroke:none"
         id="path156"
         inkscape:connector-curvature="0" /><path
         d="m 887.027,2294.82 c 0.239,-62.05 -49.781,-112.35 -111.73,-112.58 -61.902,-0.18 -112.25,49.74 -112.461,111.75 -0.238,61.93 49.75,112.17 111.66,112.41 61.949,0.23 112.324,-49.75 112.531,-111.58"
         style="fill:#f89b49;fill-opacity:1;fill-rule:nonzero;stroke:none"
         id="path158"
         inkscape:connector-curvature="0" /><path
         d="m 547.191,1841.53 c 0.215,-61.76 -49.796,-112.17 -111.722,-112.4 -61.938,-0.18 -112.281,49.8 -112.496,111.56 -0.239,62.01 49.746,112.42 111.699,112.6 61.914,0.23 112.289,-49.75 112.519,-111.76"
         style="fill:#f89b49;fill-opacity:1;fill-rule:nonzero;stroke:none"
         id="path160"
         inkscape:connector-curvature="0" /><path
         d="m 871.813,821.719 c 0.238,-61.887 -49.809,-112.18 -111.696,-112.418 -61.914,-0.18 -112.289,49.687 -112.527,111.578 -0.242,61.941 49.777,112.351 111.691,112.582 61.891,0.238 112.293,-49.801 112.532,-111.742"
         style="fill:#f89b49;fill-opacity:1;fill-rule:nonzero;stroke:none"
         id="path162"
         inkscape:connector-curvature="0" /><path
         d="m 1414.1,640.961 c 0.24,-61.891 -49.81,-112.34 -111.7,-112.582 -61.97,-0.25 -112.35,49.851 -112.58,111.742 -0.21,61.899 49.8,112.34 111.75,112.578 61.89,0.25 112.29,-49.859 112.53,-111.738"
         style="fill:#f89b49;fill-opacity:1;fill-rule:nonzero;stroke:none"
         id="path164"
         inkscape:connector-curvature="0" /><path
         d="m 1941.17,815.371 c 0.24,-61.949 -49.75,-112.34 -111.64,-112.512 -61.88,-0.257 -112.35,49.801 -112.59,111.731 -0.24,61.898 49.88,112.172 111.76,112.43 61.89,0.152 112.23,-49.77 112.47,-111.649"
         style="fill:#f89b49;fill-opacity:1;fill-rule:nonzero;stroke:none"
         id="path166"
         inkscape:connector-curvature="0" /><path
         d="m 2284.5,1275.48 c 0.24,-61.88 -49.87,-112.35 -111.75,-112.59 -61.89,-0.25 -112.29,49.87 -112.48,111.77 -0.23,61.87 49.81,112.17 111.7,112.4 61.88,0.23 112.35,-49.69 112.53,-111.58"
         style="fill:#f89b49;fill-opacity:1;fill-rule:nonzero;stroke:none"
         id="path168"
         inkscape:connector-curvature="0" /><path
         d="m 2285.87,1830.83 c 0.24,-62.01 -49.86,-112.27 -111.75,-112.52 -61.88,-0.25 -112.23,49.69 -112.47,111.68 -0.24,61.95 49.76,112.25 111.63,112.48 61.89,0.23 112.35,-49.69 112.59,-111.64"
         style="fill:#f89b49;fill-opacity:1;fill-rule:nonzero;stroke:none"
         id="path170"
         inkscape:connector-curvature="0" /><path
         d="m 1952.94,2288.36 c 0.25,-62 -49.68,-112.28 -111.57,-112.53 -61.94,-0.18 -112.35,49.75 -112.59,111.82 -0.23,61.82 49.81,112.17 111.76,112.3 61.88,0.23 112.17,-49.64 112.4,-111.59"
         style="fill:#f89b49;fill-opacity:1;fill-rule:nonzero;stroke:none"
         id="path172"
         inkscape:connector-curvature="0" /><path
         d="m 1417.68,2465.71 c 0.24,-61.95 -49.8,-112.17 -111.69,-112.42 -61.97,-0.23 -112.35,49.63 -112.59,111.59 -0.2,61.93 49.81,112.28 111.75,112.53 61.9,0.23 112.3,-49.76 112.53,-111.7"
         style="fill:#f89b49;fill-opacity:1;fill-rule:nonzero;stroke:none"
         id="path174"
         inkscape:connector-curvature="0" /><path
         d="m 538.918,1282.78 c 0.211,-61.95 -49.746,-112.23 -111.695,-112.48 -61.887,-0.24 -112.325,49.69 -112.532,111.64 -0.238,61.88 49.817,112.29 111.696,112.52 61.949,0.26 112.289,-49.8 112.531,-111.68"
         style="fill:#f89b49;fill-opacity:1;fill-rule:nonzero;stroke:none"
         id="path176"
         inkscape:connector-curvature="0" /><path
         d="m 858.746,2018.76 c 0.18,-47.64 -38.328,-86.47 -85.922,-86.64 -47.683,-0.18 -86.367,38.34 -86.554,85.97 -0.172,47.62 38.242,86.35 85.921,86.55 47.606,0.15 86.379,-38.28 86.555,-85.88"
         style="fill:#f89b49;fill-opacity:1;fill-rule:nonzero;stroke:none"
         id="path178"
         inkscape:connector-curvature="0" /><path
         d="m 684.238,1624.85 c 0.188,-47.65 -38.261,-86.4 -85.918,-86.58 -47.625,-0.18 -86.343,38.26 -86.519,85.92 -0.149,47.65 38.262,86.35 85.887,86.52 47.66,0.2 86.378,-38.2 86.55,-85.86"
         style="fill:#f89b49;fill-opacity:1;fill-rule:nonzero;stroke:none"
         id="path180"
         inkscape:connector-curvature="0" /><path
         d="m 792.734,1204.52 c 0.176,-47.8 -38.296,-86.53 -85.886,-86.72 -47.657,-0.18 -86.403,38.34 -86.551,86.11 -0.18,47.47 38.262,86.22 85.918,86.41 47.605,0.18 86.375,-38.34 86.519,-85.8"
         style="fill:#f89b49;fill-opacity:1;fill-rule:nonzero;stroke:none"
         id="path182"
         inkscape:connector-curvature="0" /><path
         d="m 1118.1,915.879 c 0.17,-47.649 -38.27,-86.457 -85.93,-86.637 -47.654,-0.172 -86.365,38.34 -86.545,85.996 -0.18,47.582 38.273,86.332 85.925,86.502 47.65,0.18 86.37,-38.26 86.55,-85.861"
         style="fill:#f89b49;fill-opacity:1;fill-rule:nonzero;stroke:none"
         id="path184"
         inkscape:connector-curvature="0" /><path
         d="m 1549.47,869.121 c 0.17,-47.652 -38.26,-86.34 -85.86,-86.5 -47.66,-0.191 -86.4,38.238 -86.58,85.899 -0.18,47.66 38.27,86.351 85.92,86.519 47.6,0.199 86.34,-38.258 86.52,-85.918"
         style="fill:#f89b49;fill-opacity:1;fill-rule:nonzero;stroke:none"
         id="path186"
         inkscape:connector-curvature="0" /><path
         d="m 1914.33,1091.25 c 0.17,-47.59 -38.33,-86.4 -85.94,-86.52 -47.64,-0.18 -86.33,38.26 -86.51,85.88 -0.18,47.64 38.26,86.44 85.93,86.62 47.59,0.12 86.33,-38.32 86.52,-85.98"
         style="fill:#f89b49;fill-opacity:1;fill-rule:nonzero;stroke:none"
         id="path188"
         inkscape:connector-curvature="0" /><path
         d="m 2092.27,1492 c 0.17,-47.67 -38.33,-86.35 -85.99,-86.52 -47.59,-0.2 -86.34,38.2 -86.52,85.86 -0.17,47.65 38.33,86.4 85.92,86.58 47.66,0.17 86.41,-38.26 86.59,-85.92"
         style="fill:#f89b49;fill-opacity:1;fill-rule:nonzero;stroke:none"
         id="path190"
         inkscape:connector-curvature="0" /><path
         d="m 1983.8,1912.45 c 0.18,-47.66 -38.33,-86.41 -86.05,-86.58 -47.58,-0.16 -86.33,38.34 -86.5,85.97 -0.19,47.6 38.32,86.35 85.92,86.55 47.71,0.15 86.46,-38.34 86.63,-85.94"
         style="fill:#f89b49;fill-opacity:1;fill-rule:nonzero;stroke:none"
         id="path192"
         inkscape:connector-curvature="0" /><path
         d="m 1668.75,2197.61 c 0.18,-47.6 -38.26,-86.41 -85.92,-86.59 -47.6,-0.17 -86.34,38.32 -86.52,85.92 -0.18,47.66 38.27,86.4 85.87,86.52 47.65,0.24 86.4,-38.2 86.57,-85.85"
         style="fill:#f89b49;fill-opacity:1;fill-rule:nonzero;stroke:none"
         id="path194"
         inkscape:connector-curvature="0" /><path
         d="m 1237.35,2240.88 c 0.17,-47.65 -38.26,-86.34 -85.92,-86.5 -47.63,-0.19 -86.37,38.19 -86.55,85.85 -0.18,47.65 38.29,86.4 85.92,86.52 47.66,0.25 86.37,-38.27 86.55,-85.87"
         style="fill:#f89b49;fill-opacity:1;fill-rule:nonzero;stroke:none"
         id="path196"
         inkscape:connector-curvature="0" /><path
         d="m 1151.94,2016.3 c 0.15,-39.92 -32.17,-72.52 -72.14,-72.7 -40,-0.11 -72.53,32.23 -72.68,72.17 -0.15,40 32.14,72.6 72.14,72.7 39.97,0.19 72.53,-32.15 72.68,-72.17"
         style="fill:#f89b49;fill-opacity:1;fill-rule:nonzero;stroke:none"
         id="path198"
         inkscape:connector-curvature="0" /><path
         d="m 1462.29,2062.29 c 0.12,-39.88 -32.23,-72.48 -72.23,-72.57 -39.93,-0.2 -72.53,32.14 -72.65,72.03 -0.17,40.08 32.18,72.65 72.12,72.77 40,0.18 72.58,-32.17 72.76,-72.23"
         style="fill:#f89b49;fill-opacity:1;fill-rule:nonzero;stroke:none"
         id="path200"
         inkscape:connector-curvature="0" /><path
         d="m 1745.77,1911.61 c 0.18,-40.06 -32.17,-72.52 -72.23,-72.71 -40.06,-0.12 -72.47,32.1 -72.65,72.18 -0.12,40 32.05,72.58 72.11,72.7 40.06,0.12 72.65,-32.15 72.77,-72.17"
         style="fill:#f89b49;fill-opacity:1;fill-rule:nonzero;stroke:none"
         id="path202"
         inkscape:connector-curvature="0" /><path
         d="m 1884.73,1618.93 c 0.17,-40.05 -32.12,-72.59 -72.06,-72.71 -40.12,-0.18 -72.58,32.11 -72.76,72.17 -0.12,39.96 32.11,72.48 72.22,72.65 39.95,0.12 72.47,-32.16 72.6,-72.11"
         style="fill:#f89b49;fill-opacity:1;fill-rule:nonzero;stroke:none"
         id="path204"
         inkscape:connector-curvature="0" /><path
         d="m 1820.33,1311.73 c 0.17,-40.08 -32.11,-72.54 -72.05,-72.66 -40.07,-0.17 -72.65,32.05 -72.83,72.11 -0.12,39.88 32.23,72.46 72.3,72.66 39.93,0.09 72.46,-32.25 72.58,-72.11"
         style="fill:#f89b49;fill-opacity:1;fill-rule:nonzero;stroke:none"
         id="path206"
         inkscape:connector-curvature="0" /><path
         d="m 1596.94,1090.06 c 0.12,-40 -32.16,-72.58 -72.16,-72.71 -40.01,-0.18 -72.53,32.17 -72.66,72.19 -0.18,39.92 32.11,72.51 72.12,72.69 40,0.14 72.52,-32.23 72.7,-72.17"
         style="fill:#f89b49;fill-opacity:1;fill-rule:nonzero;stroke:none"
         id="path208"
         inkscape:connector-curvature="0" /><path
         d="m 1272.81,1050.96 c 0.17,-40.06 -32.15,-72.538 -72.14,-72.64 -40.03,-0.191 -72.56,32.04 -72.71,72.09 -0.15,39.89 32.14,72.48 72.17,72.66 40,0.12 72.57,-32.23 72.68,-72.11"
         style="fill:#f89b49;fill-opacity:1;fill-rule:nonzero;stroke:none"
         id="path210"
         inkscape:connector-curvature="0" /><path
         d="m 999.738,1205.28 c 0.149,-40.18 -32.199,-72.64 -72.175,-72.76 -40,-0.19 -72.551,32.05 -72.715,72.23 -0.11,39.89 32.179,72.47 72.183,72.64 39.965,0.12 72.559,-32.23 72.707,-72.11"
         style="fill:#f89b49;fill-opacity:1;fill-rule:nonzero;stroke:none"
         id="path212"
         inkscape:connector-curvature="0" /><path
         d="m 860.695,1487.45 c 0.145,-39.94 -32.168,-72.48 -72.179,-72.64 -40,-0.13 -72.52,32.15 -72.676,72.09 -0.117,40.06 32.164,72.6 72.144,72.72 40.004,0.17 72.559,-32.11 72.711,-72.17"
         style="fill:#f89b49;fill-opacity:1;fill-rule:nonzero;stroke:none"
         id="path214"
         inkscape:connector-curvature="0" /><path
         d="m 921.703,1791.26 c 0.152,-39.94 -32.16,-72.52 -72.199,-72.66 -39.996,-0.11 -72.586,32.23 -72.727,72.19 -0.156,39.98 32.192,72.58 72.2,72.68 40.023,0.13 72.582,-32.21 72.726,-72.21"
         style="fill:#f89b49;fill-opacity:1;fill-rule:nonzero;stroke:none"
         id="path216"
         inkscape:connector-curvature="0" /><path
         d="m 1121.68,1809.25 c 0.09,-30.43 -24.48,-55.3 -54.98,-55.43 -30.49,-0.06 -55.27,24.59 -55.36,55.02 -0.12,30.37 24.49,55.35 54.95,55.43 30.52,0.11 55.27,-24.65 55.39,-55.02"
         style="fill:#f89b49;fill-opacity:1;fill-rule:nonzero;stroke:none"
         id="path218"
         inkscape:connector-curvature="0" /><path
         d="m 1012.02,1619.11 c 0.12,-30.49 -24.536,-55.31 -54.977,-55.41 -30.52,-0.14 -55.27,24.49 -55.398,55 -0.11,30.49 24.46,55.35 54.984,55.49 30.434,0.1 55.271,-24.57 55.391,-55.08"
         style="fill:#f89b49;fill-opacity:1;fill-rule:nonzero;stroke:none"
         id="path220"
         inkscape:connector-curvature="0" /><path
         d="m 1043.8,1405.42 c 0.09,-30.51 -24.48,-55.37 -54.941,-55.43 -30.496,-0.12 -55.285,24.51 -55.371,55.02 -0.117,30.37 24.485,55.15 54.981,55.29 30.461,0.06 55.211,-24.51 55.331,-54.88"
         style="fill:#f89b49;fill-opacity:1;fill-rule:nonzero;stroke:none"
         id="path222"
         inkscape:connector-curvature="0" /><path
         d="m 1192.71,1254.13 c 0.13,-30.49 -24.47,-55.3 -54.97,-55.42 -30.47,-0.13 -55.28,24.52 -55.4,55.01 -0.09,30.49 24.54,55.37 55.01,55.49 30.5,0.12 55.27,-24.57 55.36,-55.08"
         style="fill:#f89b49;fill-opacity:1;fill-rule:nonzero;stroke:none"
         id="path224"
         inkscape:connector-curvature="0" /><path
         d="m 1399.81,1213.54 c 0.12,-30.51 -24.46,-55.31 -54.89,-55.37 -30.5,-0.12 -55.32,24.45 -55.43,54.96 -0.11,30.49 24.52,55.36 55,55.47 30.45,0.06 55.2,-24.57 55.32,-55.06"
         style="fill:#f89b49;fill-opacity:1;fill-rule:nonzero;stroke:none"
         id="path226"
         inkscape:connector-curvature="0" /><path
         d="m 1596.17,1303.93 c 0.11,-30.48 -24.51,-55.17 -55.02,-55.29 -30.49,-0.12 -55.18,24.4 -55.3,54.88 -0.12,30.43 24.39,55.32 54.89,55.43 30.5,0.12 55.3,-24.59 55.43,-55.02"
         style="fill:#f89b49;fill-opacity:1;fill-rule:nonzero;stroke:none"
         id="path228"
         inkscape:connector-curvature="0" /><path
         d="m 1699.01,1490.56 c 0.12,-30.49 -24.51,-55.38 -55.01,-55.49 -30.49,-0.12 -55.31,24.57 -55.43,55.08 -0.12,30.48 24.52,55.29 55.01,55.43 30.5,0.11 55.31,-24.52 55.43,-55.02"
         style="fill:#f89b49;fill-opacity:1;fill-rule:nonzero;stroke:none"
         id="path230"
         inkscape:connector-curvature="0" /><path
         d="m 1670.61,1707.78 c 0.11,-30.51 -24.58,-55.31 -55.01,-55.43 -30.5,-0.06 -55.31,24.51 -55.42,55 -0.13,30.51 24.51,55.37 55,55.43 30.44,0.14 55.3,-24.51 55.43,-55"
         style="fill:#f89b49;fill-opacity:1;fill-rule:nonzero;stroke:none"
         id="path232"
         inkscape:connector-curvature="0" /><path
         d="m 1518.19,1858.99 c 0.13,-30.5 -24.44,-55.29 -54.94,-55.43 -30.5,-0.09 -55.32,24.59 -55.43,55.08 -0.12,30.49 24.51,55.31 55,55.43 30.51,0.12 55.26,-24.59 55.37,-55.08"
         style="fill:#f89b49;fill-opacity:1;fill-rule:nonzero;stroke:none"
         id="path234"
         inkscape:connector-curvature="0" /><path
         d="m 1314.6,1892.84 c 0.13,-30.51 -24.52,-55.37 -55.01,-55.49 -30.49,-0.06 -55.3,24.57 -55.42,55.08 -0.09,30.35 24.54,55.18 55,55.23 30.5,0.12 55.32,-24.45 55.43,-54.82"
         style="fill:#f89b49;fill-opacity:1;fill-rule:nonzero;stroke:none"
         id="path236"
         inkscape:connector-curvature="0" /><path
         d="m 4110.15,612.992 -747.3,1158.048 0,-1158.048 -368.35,0 0,1886.798 328.6,0 747.29,-1155.39 0,1155.39 368.35,0 0,-1886.798 -328.59,0"
         style="fill:#231f20;fill-opacity:1;fill-rule:nonzero;stroke:none"
         id="path238"
         inkscape:connector-curvature="0" /><path
         d="m 5350.34,597.09 c -206.7,0 -376.3,74.199 -508.8,206.699 -190.8,190.801 -185.5,426.651 -185.5,752.611 0,325.95 -5.3,561.79 185.5,752.59 132.5,132.5 302.1,206.7 508.8,206.7 352.44,0 628.05,-201.4 694.3,-596.25 l -373.65,0 c -37.09,151.06 -132.5,267.66 -318,267.66 -100.7,0 -182.84,-37.11 -235.85,-98.05 -71.54,-79.51 -92.76,-169.61 -92.76,-532.65 0,-363.06 21.22,-453.15 92.76,-532.67 53.01,-60.929 135.15,-98.039 235.85,-98.039 185.5,0 280.91,116.599 318,267.649 l 373.65,0 C 5978.39,798.5 5700.15,597.09 5350.34,597.09"
         style="fill:#231f20;fill-opacity:1;fill-rule:nonzero;stroke:none"
         id="path240"
         inkscape:connector-curvature="0" /><path
         d="m 6256.63,612.992 368.352,0 0,1886.8 -368.352,0 0,-1886.8 z"
         style="fill:#231f20;fill-opacity:1;fill-rule:nonzero;stroke:none"
         id="path242"
         inkscape:connector-curvature="0" /><path
         d="m 3231.13,161.992 -63.77,201.028 -64.32,-201.028 128.09,0 z m -88.38,225.309 50.35,0 126.42,-380.96897 -38.6,0 -40.28,125.04697 -147.68,0 -40.27,-125.04697 -36.36,0 126.42,380.96897"
         style="fill:#231f20;fill-opacity:1;fill-rule:nonzero;stroke:none"
         id="path244"
         inkscape:connector-curvature="0" /><path
         d="m 3630.38,30.6016 c 68.25,0 106.29,35.8867 106.29,100.2504 l 0,256.449 37.48,0 0,-256.449 C 3774.15,46.4297 3723.8,0 3630.38,0 3536.96,0 3486.06,46.4297 3486.06,130.852 l 0,256.449 37.48,0 0,-256.449 c 0,-64.3637 38.04,-100.2504 106.84,-100.2504"
         style="fill:#231f20;fill-opacity:1;fill-rule:nonzero;stroke:none"
         id="path246"
         inkscape:connector-curvature="0" /><path
         d="m 3996.73,110.281 c 21.81,-53.8201 54.81,-79.6794 104.6,-79.6794 51.46,0 85.03,30.0781 85.03,73.8784 0,36.93 -20.14,56.981 -67.13,74.918 -44.19,16.883 -78.31,24.282 -95.09,33.774 -36.92,20.047 -53.7,41.16 -53.7,78.617 0,63.32 43.63,101.84 115.79,101.84 64.33,0 105.17,-29.547 126.98,-90.758 l -31.88,-9.5 c -19.58,46.969 -50.35,69.649 -96.78,69.649 -45.87,0 -75.52,-27.969 -75.52,-65.961 0,-30.067 17.9,-49.598 55.38,-62.25 48.67,-16.36 86.15,-26.387 108.52,-40.637 35.8,-22.152 52.59,-47.492 52.59,-84.953 C 4225.52,43.2695 4178.53,0 4101.33,0 4033.09,0 3990.01,30.6016 3964.29,97.6094 l 32.44,12.6716"
         style="fill:#231f20;fill-opacity:1;fill-rule:nonzero;stroke:none"
         id="path248"
         inkscape:connector-curvature="0" /><path
         d="m 4492.29,356.691 -119.7,0 0,30.61 276.89,0 0,-30.61 -119.7,0 0,-350.35897 -37.49,0 0,350.35897"
         style="fill:#231f20;fill-opacity:1;fill-rule:nonzero;stroke:none"
         id="path250"
         inkscape:connector-curvature="0" /><path
         d="m 4867.6,356.691 0,-147.211 91.18,0 c 57.62,0 88.94,26.911 88.94,73.86 0,50.129 -33,73.351 -100.13,73.351 l -79.99,0 z m 219.28,-72.82 c 0,-51.711 -26.85,-84.949 -80.55,-99.191 l 97.33,-178.34797 -42.51,0 -93.98,173.06597 -99.57,0 0,-173.06597 -37.48,0 0,380.96897 112.44,0 c 95.65,0 144.32,-34.832 144.32,-103.43"
         style="fill:#231f20;fill-opacity:1;fill-rule:nonzero;stroke:none"
         id="path252"
         inkscape:connector-curvature="0" /><path
         d="m 5466.65,161.992 -63.77,201.028 -64.33,-201.028 128.1,0 z m -88.38,225.309 50.34,0 126.43,-380.96897 -38.6,0 -40.28,125.04697 -147.67,0 -40.29,-125.04697 -36.35,0 126.42,380.96897"
         style="fill:#231f20;fill-opacity:1;fill-rule:nonzero;stroke:none"
         id="path254"
         inkscape:connector-curvature="0" /><path
         d="m 5737.92,387.301 37.47,0 0,-350.3596 180.68,0 0,-30.60937 -218.15,0 0,380.96897"
         style="fill:#231f20;fill-opacity:1;fill-rule:nonzero;stroke:none"
         id="path256"
         inkscape:connector-curvature="0" /><path
         d="m 6135.03,6.33203 37.4805,0 0,380.969 -37.4805,0 0,-380.969 z"
         style="fill:#231f20;fill-opacity:1;fill-rule:nonzero;stroke:none"
         id="path258"
         inkscape:connector-curvature="0" /><path
         d="m 6570.76,161.992 -63.77,201.028 -64.32,-201.028 128.09,0 z m -88.38,225.309 50.34,0 126.43,-380.96897 -38.6,0 -40.28,125.04697 -147.67,0 -40.28,-125.04697 -36.36,0 126.42,380.96897"
         style="fill:#231f20;fill-opacity:1;fill-rule:nonzero;stroke:none"
         id="path260"
         inkscape:connector-curvature="0" /></g></g></svg>