<?xml version="1.0" encoding="UTF-8" standalone="no"?>
<!-- Generator: Adobe Illustrator 14.0.0, SVG Export Plug-In . SVG Version: 6.00 Build 43363)  -->

<svg
   xmlns:dc="http://purl.org/dc/elements/1.1/"
   xmlns:cc="http://creativecommons.org/ns#"
   xmlns:rdf="http://www.w3.org/1999/02/22-rdf-syntax-ns#"
   xmlns:svg="http://www.w3.org/2000/svg"
   xmlns="http://www.w3.org/2000/svg"
   xmlns:sodipodi="http://sodipodi.sourceforge.net/DTD/sodipodi-0.dtd"
   xmlns:inkscape="http://www.inkscape.org/namespaces/inkscape"
   version="1.1"
   id="Layer_1"
   x="0px"
   y="0px"
   width="397.66199"
   height="93.218002"
   viewBox="0 0 397.66199 93.218002"
   enable-background="new 0 0 432 144"
   xml:space="preserve"
   inkscape:version="0.91 r13725"
   sodipodi:docname="rapp_logo_no_padding.svg"><metadata
     id="metadata139"><rdf:RDF><cc:Work
         rdf:about=""><dc:format>image/svg+xml</dc:format><dc:type
           rdf:resource="http://purl.org/dc/dcmitype/StillImage" /><dc:title></dc:title></cc:Work></rdf:RDF></metadata><defs
     id="defs137" /><sodipodi:namedview
     pagecolor="#ffffff"
     bordercolor="#666666"
     borderopacity="1"
     objecttolerance="10"
     gridtolerance="10"
     guidetolerance="10"
     inkscape:pageopacity="0"
     inkscape:pageshadow="2"
     inkscape:window-width="1871"
     inkscape:window-height="1062"
     id="namedview135"
     showgrid="false"
     fit-margin-top="4"
     fit-margin-left="4"
     fit-margin-right="4"
     fit-margin-bottom="4"
     inkscape:zoom="1.3796296"
     inkscape:cx="309.25085"
     inkscape:cy="24.93191"
     inkscape:window-x="49"
     inkscape:window-y="18"
     inkscape:window-maximized="1"
     inkscape:current-layer="Layer_1" /><g
     id="g3"
     transform="translate(-16.72,-25.391)"><path
       d="m 131.028,78.158 c -2.214,0.844 -4.6,1.267 -7.159,1.267 -9.942,0 -14.913,-4.766 -14.913,-14.298 0,-9.021 4.798,-13.531 14.395,-13.531 2.75,0 5.31,0.384 7.677,1.151 l 0,3.071 c -2.367,-0.896 -4.798,-1.343 -7.293,-1.343 -7.485,0 -11.228,3.55 -11.228,10.652 0,7.613 3.685,11.419 11.055,11.419 1.177,0 2.482,-0.153 3.915,-0.46 l 0,-9.328 3.551,0 0,11.4 z"
       id="path5"
       inkscape:connector-curvature="0"
       style="fill:#835c33" /><path
       d="m 154.443,51.788 0,2.879 -14.395,0 0,9.212 13.723,0 0,2.879 -13.723,0 0,9.596 14.682,0 0,2.879 -18.233,0 0,-27.445 17.946,0 z"
       id="path7"
       inkscape:connector-curvature="0"
       style="fill:#835c33" /><path
       d="m 159.049,65.548 c 0,-9.302 4.593,-13.953 13.78,-13.953 9.046,0 13.569,4.651 13.569,13.953 0,9.251 -4.523,13.876 -13.569,13.876 -8.777,10e-4 -13.371,-4.625 -13.78,-13.876 z m 13.781,10.998 c 6.551,0 9.827,-3.704 9.827,-11.112 0,-7.306 -3.276,-10.959 -9.827,-10.959 -6.692,0 -10.038,3.653 -10.038,10.959 0,7.408 3.346,11.112 10.038,11.112 z"
       id="path9"
       inkscape:connector-curvature="0"
       style="fill:#835c33" /><path
       d="m 212.309,78.158 c -2.214,0.844 -4.6,1.267 -7.159,1.267 -9.942,0 -14.913,-4.766 -14.913,-14.298 0,-9.021 4.798,-13.531 14.395,-13.531 2.75,0 5.31,0.384 7.677,1.151 l 0,3.071 c -2.367,-0.896 -4.798,-1.343 -7.293,-1.343 -7.485,0 -11.228,3.55 -11.228,10.652 0,7.613 3.685,11.419 11.055,11.419 1.177,0 2.482,-0.153 3.915,-0.46 l 0,-9.328 3.551,0 0,11.4 z"
       id="path11"
       inkscape:connector-curvature="0"
       style="fill:#835c33" /><path
       d="m 221.33,51.788 0,24.566 14.356,0 0,2.879 -17.907,0 0,-27.445 3.551,0 z"
       id="path13"
       inkscape:connector-curvature="0"
       style="fill:#835c33" /><path
       d="m 238.084,79.233 11.65,-27.445 3.935,0 11.708,27.445 -3.743,0 -3.646,-8.637 -9.174,0 0.979,-2.879 6.852,0 -5.067,-12.245 -9.807,23.76 -3.687,0 z"
       id="path15"
       inkscape:connector-curvature="0"
       style="fill:#835c33" /><path
       d="m 268.735,79.233 0,-27.445 4.51,0 10.076,22.896 9.884,-22.896 4.318,0 0,27.445 -3.167,0 0,-22.129 -9.75,22.129 -2.802,0 -9.903,-22.129 0,22.129 -3.166,0 z"
       id="path17"
       inkscape:connector-curvature="0"
       style="fill:#835c33" /></g><g
     id="g19"
     transform="translate(-16.72,-25.391)"><path
       d="m 313.208,79.233 0,-27.445 11.708,0 c 5.22,0 7.831,2.194 7.831,6.583 0,3.57 -2.553,6.212 -7.658,7.926 l 9.423,12.936 -4.683,0 -8.732,-12.341 0,-2.322 c 5.246,-0.832 7.869,-2.847 7.869,-6.046 0,-2.533 -1.459,-3.8 -4.376,-3.8 l -7.831,0 0,24.509 -3.551,0 z"
       id="path21"
       inkscape:connector-curvature="0"
       style="fill:#82a847" /><path
       d="m 336.336,79.233 11.65,-27.445 3.935,0 11.708,27.445 -3.743,0 -3.646,-8.637 -9.174,0 0.979,-2.879 6.852,0 -5.067,-12.245 -9.807,23.76 -3.687,0 z"
       id="path23"
       inkscape:connector-curvature="0"
       style="fill:#82a847" /><path
       d="m 366.986,79.233 0,-27.445 11.708,0 c 5.22,0 7.831,2.194 7.831,6.583 0,4.952 -3.64,8.016 -10.92,9.193 l -0.729,-2.994 c 5.246,-0.832 7.869,-2.847 7.869,-6.046 0,-2.533 -1.459,-3.8 -4.376,-3.8 l -7.831,0 0,24.509 -3.552,0 z"
       id="path25"
       inkscape:connector-curvature="0"
       style="fill:#82a847" /><path
       d="m 390.843,79.233 0,-27.445 11.708,0 c 5.22,0 7.831,2.194 7.831,6.583 0,4.952 -3.64,8.016 -10.92,9.193 l -0.729,-2.994 c 5.246,-0.832 7.869,-2.847 7.869,-6.046 0,-2.533 -1.459,-3.8 -4.376,-3.8 l -7.831,0 0,24.509 -3.552,0 z"
       id="path27"
       inkscape:connector-curvature="0"
       style="fill:#82a847" /></g><g
     id="g29"
     transform="translate(-16.72,-25.391)"><path
       d="m 117.358,101.401 -2.066,-5.65 c -0.461,0 -1.093,-0.03 -1.896,-0.09 l -1.006,5.74 -1.886,0 2.317,-13.159 c 0.246,-0.006 0.729,-0.03 1.451,-0.072 0.722,-0.042 1.313,-0.063 1.774,-0.063 1.389,0 2.459,0.249 3.211,0.746 0.752,0.497 1.127,1.209 1.127,2.138 0,1.096 -0.325,2.055 -0.975,2.878 -0.65,0.824 -1.465,1.346 -2.448,1.567 l 2.452,5.964 -2.055,0 z m -2.938,-11.542 -0.754,4.275 c 0.443,0.06 0.859,0.09 1.249,0.09 1.066,0 1.924,-0.222 2.574,-0.665 0.649,-0.443 0.974,-1.051 0.974,-1.824 0,-0.712 -0.228,-1.218 -0.683,-1.518 -0.455,-0.3 -1.215,-0.449 -2.281,-0.449 -0.228,0.002 -0.587,0.031 -1.079,0.091 z"
       id="path31"
       inkscape:connector-curvature="0"
       style="fill:#82a847" /><path
       d="m 130.078,92.383 -1.177,5.596 c -0.048,0.228 -0.072,0.503 -0.072,0.827 0,0.934 0.146,1.799 0.44,2.596 l -1.742,0 c -0.096,-0.191 -0.198,-0.515 -0.306,-0.97 -0.281,0.341 -0.701,0.619 -1.257,0.831 -0.557,0.212 -1.147,0.319 -1.77,0.319 -0.946,0 -1.684,-0.28 -2.214,-0.84 -0.53,-0.56 -0.795,-1.364 -0.795,-2.412 0,-1.761 0.519,-3.322 1.558,-4.684 1.039,-1.362 2.376,-2.043 4.011,-2.043 1.545,-10e-4 2.653,0.259 3.324,0.78 z m -1.887,0.997 c -0.162,-0.257 -0.707,-0.386 -1.635,-0.386 -0.946,0 -1.778,0.503 -2.497,1.509 -0.719,1.006 -1.078,2.264 -1.078,3.772 0,1.276 0.569,1.914 1.707,1.914 0.593,0 1.149,-0.307 1.67,-0.921 0.521,-0.614 0.883,-1.399 1.087,-2.358 l 0.746,-3.53 z"
       id="path33"
       inkscape:connector-curvature="0"
       style="fill:#82a847" /><path
       d="m 136.888,101.401 1.006,-5.596 c 0.09,-0.497 0.135,-0.91 0.135,-1.24 0,-1.018 -0.53,-1.527 -1.59,-1.527 -0.407,0 -0.843,0.12 -1.307,0.359 -0.464,0.239 -0.834,0.524 -1.109,0.853 l -1.249,7.15 -1.725,0 1.293,-7.293 c 0.03,-0.167 0.045,-0.365 0.045,-0.593 0,-0.611 -0.063,-1.141 -0.189,-1.59 l 1.653,-0.323 c 0.162,0.874 0.24,1.35 0.234,1.428 0.73,-0.952 1.784,-1.428 3.162,-1.428 1.736,0 2.604,0.886 2.604,2.659 0,0.353 -0.039,0.749 -0.117,1.186 l -1.033,5.955 -1.813,0 z"
       id="path35"
       inkscape:connector-curvature="0"
       style="fill:#82a847" /><path
       d="m 140.338,104.096 0.808,-1.258 c 1.096,0.551 2.003,0.827 2.722,0.827 0.791,0 1.449,-0.147 1.976,-0.44 0.527,-0.293 0.791,-0.704 0.791,-1.23 0,-0.264 -0.088,-0.48 -0.265,-0.651 -0.176,-0.17 -0.478,-0.292 -0.902,-0.364 l -1.581,-0.269 c -0.641,-0.162 -0.961,-0.488 -0.961,-0.979 0,-0.395 0.512,-0.793 1.536,-1.194 l -0.305,0.009 c -0.701,0 -1.316,-0.262 -1.846,-0.786 -0.53,-0.524 -0.795,-1.154 -0.795,-1.891 0,-1.257 0.404,-2.283 1.212,-3.076 0.808,-0.793 1.841,-1.19 3.099,-1.19 0.904,0 1.617,0.215 2.138,0.646 l 0.808,-0.916 0.943,0.97 -0.889,0.925 c 0.173,0.246 0.26,0.632 0.26,1.159 0,1.03 -0.26,1.913 -0.781,2.65 -0.521,0.736 -1.202,1.253 -2.043,1.549 -0.841,0.296 -1.263,0.572 -1.263,0.83 0,0.209 0.114,0.314 0.341,0.314 0.084,0 0.208,-0.013 0.373,-0.04 0.165,-0.027 0.289,-0.041 0.373,-0.041 1.497,0 2.246,0.677 2.246,2.03 0,1.06 -0.472,1.907 -1.415,2.542 -0.943,0.635 -2.065,0.952 -3.364,0.952 -1.318,0 -2.39,-0.36 -3.216,-1.078 z m 5.362,-11.12 c -0.688,0 -1.268,0.268 -1.738,0.804 -0.47,0.536 -0.705,1.167 -0.705,1.891 0,1.305 0.494,1.958 1.482,1.958 0.67,0 1.263,-0.328 1.778,-0.983 0.515,-0.656 0.772,-1.352 0.772,-2.088 0,-0.485 -0.144,-0.87 -0.431,-1.154 -0.287,-0.284 -0.673,-0.428 -1.158,-0.428 z"
       id="path37"
       inkscape:connector-curvature="0"
       style="fill:#82a847" /><path
       d="m 152.537,96.856 c -0.054,0.288 -0.081,0.563 -0.081,0.826 0,0.791 0.222,1.398 0.665,1.824 0.443,0.425 1.063,0.638 1.859,0.638 0.706,0 1.419,-0.261 2.138,-0.782 l -0.18,1.743 c -0.958,0.317 -1.806,0.476 -2.542,0.476 -2.479,0 -3.719,-1.389 -3.719,-4.168 0,-1.635 0.521,-3.012 1.563,-4.131 1.042,-1.12 2.354,-1.68 3.934,-1.68 0.952,0 1.712,0.204 2.282,0.61 0.569,0.408 0.853,0.988 0.853,1.743 0,1.048 -0.443,1.875 -1.329,2.479 -0.886,0.605 -1.973,0.907 -3.261,0.907 -0.862,0 -1.589,-0.161 -2.182,-0.485 z m 0.296,-1.239 c 0.455,0.204 0.991,0.306 1.608,0.306 0.934,0 1.698,-0.151 2.291,-0.454 0.593,-0.303 0.889,-0.744 0.889,-1.325 0,-0.736 -0.509,-1.104 -1.527,-1.104 -1.551,-0.001 -2.638,0.858 -3.261,2.577 z"
       id="path39"
       inkscape:connector-curvature="0"
       style="fill:#82a847" /><path
       d="m 164.071,100.324 -0.197,1.257 c -1.922,0 -2.883,-0.712 -2.883,-2.138 0,-0.431 0.149,-1.393 0.449,-2.883 l 1.724,-8.722 1.779,0 -1.644,8.192 c -0.341,1.701 -0.512,2.766 -0.512,3.197 0,0.731 0.428,1.097 1.284,1.097 z"
       id="path41"
       inkscape:connector-curvature="0"
       style="fill:#82a847" /><path
       d="m 175.076,92.383 -1.177,5.596 c -0.048,0.228 -0.072,0.503 -0.072,0.827 0,0.934 0.146,1.799 0.44,2.596 l -1.742,0 c -0.096,-0.191 -0.198,-0.515 -0.306,-0.97 -0.281,0.341 -0.701,0.619 -1.257,0.831 -0.557,0.212 -1.147,0.319 -1.77,0.319 -0.946,0 -1.684,-0.28 -2.214,-0.84 -0.53,-0.56 -0.795,-1.364 -0.795,-2.412 0,-1.761 0.519,-3.322 1.558,-4.684 1.039,-1.362 2.376,-2.043 4.011,-2.043 1.545,-10e-4 2.653,0.259 3.324,0.78 z m -1.887,0.997 c -0.162,-0.257 -0.707,-0.386 -1.635,-0.386 -0.946,0 -1.778,0.503 -2.497,1.509 -0.719,1.006 -1.078,2.264 -1.078,3.772 0,1.276 0.569,1.914 1.707,1.914 0.593,0 1.149,-0.307 1.67,-0.921 0.521,-0.614 0.883,-1.399 1.087,-2.358 l 0.746,-3.53 z"
       id="path43"
       inkscape:connector-curvature="0"
       style="fill:#82a847" /><path
       d="m 181.886,101.401 1.006,-5.596 c 0.09,-0.497 0.135,-0.91 0.135,-1.24 0,-1.018 -0.53,-1.527 -1.59,-1.527 -0.407,0 -0.843,0.12 -1.307,0.359 -0.464,0.239 -0.834,0.524 -1.109,0.853 l -1.249,7.15 -1.725,0 1.293,-7.293 c 0.03,-0.167 0.045,-0.365 0.045,-0.593 0,-0.611 -0.063,-1.141 -0.189,-1.59 l 1.653,-0.323 c 0.162,0.874 0.24,1.35 0.234,1.428 0.73,-0.952 1.784,-1.428 3.162,-1.428 1.736,0 2.604,0.886 2.604,2.659 0,0.353 -0.039,0.749 -0.117,1.186 l -1.033,5.955 -1.813,0 z"
       id="path45"
       inkscape:connector-curvature="0"
       style="fill:#82a847" /><path
       d="m 192.153,101.401 0.207,-1.105 c -0.695,0.851 -1.644,1.276 -2.847,1.276 -1.042,0 -1.856,-0.319 -2.443,-0.957 -0.587,-0.638 -0.88,-1.504 -0.88,-2.6 0,-1.874 0.503,-3.409 1.509,-4.604 1.006,-1.194 2.293,-1.792 3.862,-1.792 0.91,0 1.608,0.377 2.093,1.132 l 0.907,-4.913 1.626,0 -2.345,13.563 -1.689,0 z m 1.186,-6.952 c 0.012,-0.054 -0.067,-0.22 -0.238,-0.499 -0.171,-0.278 -0.377,-0.497 -0.62,-0.656 -0.242,-0.159 -0.499,-0.238 -0.768,-0.238 -1.06,0 -1.939,0.43 -2.636,1.289 -0.698,0.859 -1.047,1.96 -1.047,3.301 0,1.694 0.698,2.542 2.093,2.542 0.628,0 1.215,-0.31 1.76,-0.93 0.545,-0.62 0.898,-1.421 1.06,-2.403 l 0.396,-2.406 z"
       id="path47"
       inkscape:connector-curvature="0"
       style="fill:#82a847" /><path
       d="m 210.803,92.383 -1.177,5.596 c -0.048,0.228 -0.072,0.503 -0.072,0.827 0,0.934 0.146,1.799 0.44,2.596 l -1.742,0 c -0.096,-0.191 -0.198,-0.515 -0.306,-0.97 -0.281,0.341 -0.701,0.619 -1.257,0.831 -0.557,0.212 -1.147,0.319 -1.77,0.319 -0.946,0 -1.684,-0.28 -2.214,-0.84 -0.53,-0.56 -0.795,-1.364 -0.795,-2.412 0,-1.761 0.519,-3.322 1.558,-4.684 1.039,-1.362 2.376,-2.043 4.011,-2.043 1.546,-10e-4 2.653,0.259 3.324,0.78 z m -1.886,0.997 c -0.162,-0.257 -0.707,-0.386 -1.635,-0.386 -0.946,0 -1.778,0.503 -2.497,1.509 -0.719,1.006 -1.078,2.264 -1.078,3.772 0,1.276 0.569,1.914 1.707,1.914 0.593,0 1.149,-0.307 1.67,-0.921 0.521,-0.614 0.883,-1.399 1.087,-2.358 l 0.746,-3.53 z"
       id="path49"
       inkscape:connector-curvature="0"
       style="fill:#82a847" /><path
       d="m 217.613,101.401 1.006,-5.596 c 0.09,-0.497 0.135,-0.91 0.135,-1.24 0,-1.018 -0.53,-1.527 -1.59,-1.527 -0.407,0 -0.843,0.12 -1.307,0.359 -0.464,0.239 -0.834,0.524 -1.109,0.853 l -1.249,7.15 -1.725,0 1.293,-7.293 c 0.03,-0.167 0.045,-0.365 0.045,-0.593 0,-0.611 -0.063,-1.141 -0.189,-1.59 l 1.653,-0.323 c 0.162,0.874 0.24,1.35 0.234,1.428 0.73,-0.952 1.784,-1.428 3.162,-1.428 1.736,0 2.604,0.886 2.604,2.659 0,0.353 -0.039,0.749 -0.117,1.186 l -1.033,5.955 -1.813,0 z"
       id="path51"
       inkscape:connector-curvature="0"
       style="fill:#82a847" /><path
       d="m 227.881,101.401 0.207,-1.105 c -0.695,0.851 -1.644,1.276 -2.847,1.276 -1.042,0 -1.856,-0.319 -2.443,-0.957 -0.587,-0.638 -0.88,-1.504 -0.88,-2.6 0,-1.874 0.503,-3.409 1.509,-4.604 1.006,-1.194 2.293,-1.792 3.862,-1.792 0.91,0 1.608,0.377 2.093,1.132 l 0.907,-4.913 1.626,0 -2.345,13.563 -1.689,0 z m 1.185,-6.952 c 0.012,-0.054 -0.067,-0.22 -0.238,-0.499 -0.171,-0.278 -0.377,-0.497 -0.62,-0.656 -0.242,-0.159 -0.499,-0.238 -0.768,-0.238 -1.06,0 -1.939,0.43 -2.636,1.289 -0.698,0.859 -1.047,1.96 -1.047,3.301 0,1.694 0.698,2.542 2.093,2.542 0.628,0 1.215,-0.31 1.76,-0.93 0.545,-0.62 0.898,-1.421 1.06,-2.403 l 0.396,-2.406 z"
       id="path53"
       inkscape:connector-curvature="0"
       style="fill:#82a847" /><path
       d="m 240.333,96.335 -0.898,5.066 -1.869,0 2.398,-13.159 c 1.114,-0.12 1.994,-0.18 2.641,-0.18 3.306,0 4.958,1.275 4.958,3.826 0,1.467 -0.509,2.611 -1.527,3.431 -1.018,0.821 -2.32,1.23 -3.907,1.23 -0.629,0.002 -1.228,-0.07 -1.796,-0.214 z m 1.14,-6.476 -0.853,4.859 c 0.329,0.162 0.814,0.242 1.455,0.242 1.066,0 1.928,-0.25 2.587,-0.75 0.659,-0.5 0.988,-1.214 0.988,-2.142 0,-1.611 -0.868,-2.416 -2.604,-2.416 -0.492,0.001 -1.016,0.07 -1.573,0.207 z"
       id="path55"
       inkscape:connector-curvature="0"
       style="fill:#82a847" /><path
       d="m 256.583,92.383 -1.177,5.596 c -0.048,0.228 -0.072,0.503 -0.072,0.827 0,0.934 0.146,1.799 0.44,2.596 l -1.742,0 c -0.096,-0.191 -0.198,-0.515 -0.306,-0.97 -0.281,0.341 -0.701,0.619 -1.257,0.831 -0.557,0.212 -1.147,0.319 -1.77,0.319 -0.946,0 -1.684,-0.28 -2.214,-0.84 -0.53,-0.56 -0.795,-1.364 -0.795,-2.412 0,-1.761 0.519,-3.322 1.558,-4.684 1.039,-1.362 2.376,-2.043 4.011,-2.043 1.545,-10e-4 2.653,0.259 3.324,0.78 z m -1.887,0.997 c -0.162,-0.257 -0.707,-0.386 -1.635,-0.386 -0.946,0 -1.778,0.503 -2.497,1.509 -0.719,1.006 -1.078,2.264 -1.078,3.772 0,1.276 0.569,1.914 1.707,1.914 0.593,0 1.149,-0.307 1.67,-0.921 0.521,-0.614 0.883,-1.399 1.087,-2.358 l 0.746,-3.53 z"
       id="path57"
       inkscape:connector-curvature="0"
       style="fill:#82a847" /><path
       d="m 256.935,100.827 0.889,-1.617 c 0.233,0.233 0.569,0.447 1.006,0.642 0.437,0.194 0.812,0.292 1.123,0.292 0.533,0 0.973,-0.144 1.321,-0.431 0.347,-0.288 0.521,-0.677 0.521,-1.168 0,-0.251 -0.091,-0.476 -0.274,-0.673 -0.183,-0.198 -0.499,-0.425 -0.947,-0.683 l -1.267,-0.701 c -0.389,-0.222 -0.681,-0.501 -0.876,-0.84 -0.194,-0.338 -0.292,-0.699 -0.292,-1.083 0,-0.892 0.347,-1.609 1.042,-2.151 0.695,-0.542 1.548,-0.813 2.56,-0.813 0.701,0 1.545,0.221 2.533,0.665 l -0.764,1.581 c -0.587,-0.539 -1.219,-0.808 -1.895,-0.808 -0.449,0 -0.837,0.115 -1.164,0.346 -0.326,0.23 -0.489,0.535 -0.489,0.912 0,0.275 0.093,0.512 0.278,0.709 0.186,0.198 0.506,0.419 0.961,0.665 l 1.258,0.683 c 0.389,0.209 0.679,0.479 0.871,0.808 0.191,0.33 0.288,0.689 0.288,1.078 0,1.03 -0.373,1.844 -1.118,2.443 -0.746,0.599 -1.693,0.898 -2.843,0.898 -1.013,0 -1.92,-0.251 -2.722,-0.754 z"
       id="path59"
       inkscape:connector-curvature="0"
       style="fill:#82a847" /><path
       d="m 267.238,93.129 -1.114,0 0.288,-1.348 1.114,0 0.395,-2.012 1.949,-0.737 -0.638,2.749 2.641,0 -0.288,1.348 -2.641,0 -1.006,4.778 c -0.078,0.372 -0.117,0.659 -0.117,0.862 0,0.916 0.455,1.375 1.365,1.375 0.443,0 0.919,-0.111 1.428,-0.333 l -0.063,1.5 c -0.491,0.18 -1.285,0.27 -2.38,0.27 -0.683,0 -1.214,-0.211 -1.594,-0.633 -0.38,-0.422 -0.57,-1.001 -0.57,-1.738 0,-0.168 0.027,-0.375 0.081,-0.62 l 1.15,-5.461 z"
       id="path61"
       inkscape:connector-curvature="0"
       style="fill:#82a847" /><path
       d="m 276.005,91.781 -1.123,6.135 c -0.048,0.263 -0.072,0.506 -0.072,0.728 0,1 0.521,1.5 1.563,1.5 0.641,0 1.256,-0.24 1.846,-0.719 0.59,-0.479 0.944,-1.051 1.064,-1.716 l 1.096,-5.928 1.796,0 -1.76,9.62 -1.796,0 0.251,-1.356 c -0.671,1.024 -1.833,1.536 -3.485,1.536 -0.749,0 -1.333,-0.222 -1.751,-0.665 -0.419,-0.443 -0.629,-1.072 -0.629,-1.886 0,-0.288 0.03,-0.599 0.09,-0.935 l 1.114,-6.314 1.796,0 z"
       id="path63"
       inkscape:connector-curvature="0"
       style="fill:#82a847" /><path
       d="m 289.929,93.47 c -0.359,-0.288 -0.778,-0.431 -1.257,-0.431 -0.605,0 -1.183,0.28 -1.733,0.84 -0.551,0.56 -0.896,1.229 -1.033,2.007 l -0.979,5.515 -1.707,0 1.698,-9.62 1.707,0 -0.27,1.536 c 0.826,-1.144 1.853,-1.715 3.081,-1.715 0.21,0 0.536,0.042 0.979,0.125 l -0.486,1.743 z"
       id="path65"
       inkscape:connector-curvature="0"
       style="fill:#82a847" /><path
       d="m 292.94,96.856 c -0.054,0.288 -0.081,0.563 -0.081,0.826 0,0.791 0.222,1.398 0.665,1.824 0.443,0.425 1.063,0.638 1.859,0.638 0.706,0 1.419,-0.261 2.138,-0.782 l -0.18,1.743 c -0.958,0.317 -1.806,0.476 -2.542,0.476 -2.479,0 -3.719,-1.389 -3.719,-4.168 0,-1.635 0.521,-3.012 1.563,-4.131 1.042,-1.12 2.354,-1.68 3.934,-1.68 0.952,0 1.712,0.204 2.282,0.61 0.569,0.408 0.853,0.988 0.853,1.743 0,1.048 -0.443,1.875 -1.329,2.479 -0.886,0.605 -1.973,0.907 -3.261,0.907 -0.862,0 -1.589,-0.161 -2.182,-0.485 z m 0.296,-1.239 c 0.455,0.204 0.991,0.306 1.608,0.306 0.934,0 1.698,-0.151 2.291,-0.454 0.593,-0.303 0.889,-0.744 0.889,-1.325 0,-0.736 -0.509,-1.104 -1.527,-1.104 -1.551,-0.001 -2.638,0.858 -3.261,2.577 z"
       id="path67"
       inkscape:connector-curvature="0"
       style="fill:#82a847" /><path
       d="m 308.931,96.335 -0.898,5.066 -1.869,0 2.398,-13.159 c 1.114,-0.12 1.994,-0.18 2.641,-0.18 3.306,0 4.958,1.275 4.958,3.826 0,1.467 -0.509,2.611 -1.527,3.431 -1.018,0.821 -2.32,1.23 -3.907,1.23 -0.628,0.002 -1.227,-0.07 -1.796,-0.214 z m 1.14,-6.476 -0.853,4.859 c 0.329,0.162 0.814,0.242 1.455,0.242 1.066,0 1.928,-0.25 2.587,-0.75 0.659,-0.5 0.988,-1.214 0.988,-2.142 0,-1.611 -0.868,-2.416 -2.604,-2.416 -0.492,0.001 -1.016,0.07 -1.573,0.207 z"
       id="path69"
       inkscape:connector-curvature="0"
       style="fill:#82a847" /><path
       d="m 323.231,93.47 c -0.359,-0.288 -0.778,-0.431 -1.257,-0.431 -0.605,0 -1.183,0.28 -1.733,0.84 -0.551,0.56 -0.896,1.229 -1.033,2.007 l -0.979,5.515 -1.707,0 1.698,-9.62 1.707,0 -0.27,1.536 c 0.826,-1.144 1.853,-1.715 3.081,-1.715 0.21,0 0.536,0.042 0.979,0.125 l -0.486,1.743 z"
       id="path71"
       inkscape:connector-curvature="0"
       style="fill:#82a847" /><path
       d="m 324.104,97.862 c 0,-1.718 0.503,-3.191 1.509,-4.419 1.006,-1.228 2.285,-1.841 3.835,-1.841 1.168,0 2.06,0.316 2.677,0.947 0.617,0.632 0.925,1.529 0.925,2.69 0,0.922 -0.184,1.88 -0.553,2.874 -0.368,0.994 -0.97,1.821 -1.805,2.479 -0.835,0.659 -1.837,0.988 -3.004,0.988 -1.156,0 -2.042,-0.325 -2.659,-0.975 -0.617,-0.648 -0.925,-1.563 -0.925,-2.743 z m 1.796,-0.108 c 0,1.623 0.68,2.435 2.039,2.435 1.012,0 1.815,-0.491 2.412,-1.473 0.596,-0.982 0.894,-2.117 0.894,-3.404 0,-1.545 -0.68,-2.317 -2.039,-2.317 -0.688,0 -1.295,0.246 -1.819,0.736 -0.524,0.491 -0.902,1.12 -1.136,1.886 -0.234,0.766 -0.351,1.479 -0.351,2.137 z"
       id="path73"
       inkscape:connector-curvature="0"
       style="fill:#82a847" /><path
       d="m 340.076,101.401 0.207,-1.105 c -0.695,0.851 -1.644,1.276 -2.847,1.276 -1.042,0 -1.856,-0.319 -2.443,-0.957 -0.587,-0.638 -0.88,-1.504 -0.88,-2.6 0,-1.874 0.503,-3.409 1.509,-4.604 1.006,-1.194 2.293,-1.792 3.862,-1.792 0.91,0 1.608,0.377 2.093,1.132 l 0.907,-4.913 1.626,0 -2.345,13.563 -1.689,0 z m 1.185,-6.952 c 0.012,-0.054 -0.067,-0.22 -0.238,-0.499 -0.171,-0.278 -0.377,-0.497 -0.62,-0.656 -0.242,-0.159 -0.499,-0.238 -0.768,-0.238 -1.06,0 -1.939,0.43 -2.636,1.289 -0.698,0.859 -1.047,1.96 -1.047,3.301 0,1.694 0.698,2.542 2.093,2.542 0.628,0 1.215,-0.31 1.76,-0.93 0.545,-0.62 0.898,-1.421 1.06,-2.403 l 0.396,-2.406 z"
       id="path75"
       inkscape:connector-curvature="0"
       style="fill:#82a847" /><path
       d="m 347.55,91.781 -1.123,6.135 c -0.048,0.263 -0.072,0.506 -0.072,0.728 0,1 0.521,1.5 1.563,1.5 0.641,0 1.256,-0.24 1.846,-0.719 0.59,-0.479 0.944,-1.051 1.064,-1.716 l 1.096,-5.928 1.796,0 -1.76,9.62 -1.796,0 0.251,-1.356 c -0.671,1.024 -1.833,1.536 -3.485,1.536 -0.749,0 -1.333,-0.222 -1.751,-0.665 -0.419,-0.443 -0.629,-1.072 -0.629,-1.886 0,-0.288 0.03,-0.599 0.09,-0.935 l 1.114,-6.314 1.796,0 z"
       id="path77"
       inkscape:connector-curvature="0"
       style="fill:#82a847" /><path
       d="m 362.309,92.087 -0.314,1.464 c -0.431,-0.341 -1.009,-0.512 -1.733,-0.512 -1.102,0 -1.993,0.436 -2.672,1.307 -0.68,0.872 -1.02,1.942 -1.02,3.211 0,0.778 0.22,1.4 0.66,1.864 0.44,0.464 0.942,0.696 1.505,0.696 0.868,0 1.7,-0.266 2.497,-0.799 l -0.189,1.743 c -0.785,0.347 -1.644,0.521 -2.578,0.521 -1.186,0 -2.096,-0.34 -2.73,-1.02 -0.635,-0.68 -0.952,-1.582 -0.952,-2.708 0,-1.833 0.503,-3.333 1.509,-4.5 1.006,-1.168 2.288,-1.751 3.844,-1.751 0.922,-10e-4 1.646,0.161 2.173,0.484 z"
       id="path79"
       inkscape:connector-curvature="0"
       style="fill:#82a847" /><path
       d="m 365.373,93.129 -1.114,0 0.288,-1.348 1.114,0 0.395,-2.012 1.949,-0.737 -0.638,2.749 2.641,0 -0.288,1.348 -2.641,0 -1.006,4.778 c -0.078,0.372 -0.117,0.659 -0.117,0.862 0,0.916 0.455,1.375 1.365,1.375 0.443,0 0.919,-0.111 1.428,-0.333 l -0.063,1.5 c -0.491,0.18 -1.285,0.27 -2.38,0.27 -0.683,0 -1.214,-0.211 -1.594,-0.633 -0.38,-0.422 -0.57,-1.001 -0.57,-1.738 0,-0.168 0.027,-0.375 0.081,-0.62 l 1.15,-5.461 z"
       id="path81"
       inkscape:connector-curvature="0"
       style="fill:#82a847" /><path
       d="m 371.509,101.401 1.455,-8.183 -1.276,0 0.314,-1.41 2.938,0 -1.698,9.593 -1.733,0 z m 2.758,-13.392 c 0.329,0 0.611,0.116 0.844,0.346 0.233,0.23 0.351,0.513 0.351,0.849 0,0.33 -0.117,0.609 -0.351,0.84 -0.234,0.231 -0.515,0.346 -0.844,0.346 -0.33,0 -0.611,-0.115 -0.844,-0.346 -0.233,-0.231 -0.351,-0.51 -0.351,-0.84 0,-0.335 0.117,-0.618 0.351,-0.849 0.234,-0.231 0.514,-0.346 0.844,-0.346 z"
       id="path83"
       inkscape:connector-curvature="0"
       style="fill:#82a847" /><path
       d="m 380.098,101.581 -0.449,0 -2.793,-9.827 1.778,0 1.725,6.62 3.656,-6.62 1.967,0 -5.884,9.827 z"
       id="path85"
       inkscape:connector-curvature="0"
       style="fill:#82a847" /><path
       d="m 386.27,101.401 1.455,-8.183 -1.276,0 0.314,-1.41 2.938,0 -1.698,9.593 -1.733,0 z m 2.757,-13.392 c 0.329,0 0.611,0.116 0.844,0.346 0.233,0.23 0.351,0.513 0.351,0.849 0,0.33 -0.117,0.609 -0.351,0.84 -0.234,0.231 -0.515,0.346 -0.844,0.346 -0.33,0 -0.611,-0.115 -0.844,-0.346 -0.233,-0.231 -0.351,-0.51 -0.351,-0.84 0,-0.335 0.117,-0.618 0.351,-0.849 0.234,-0.231 0.514,-0.346 0.844,-0.346 z"
       id="path87"
       inkscape:connector-curvature="0"
       style="fill:#82a847" /><path
       d="m 393.609,93.129 -1.114,0 0.288,-1.348 1.114,0 0.395,-2.012 1.949,-0.737 -0.638,2.749 2.641,0 -0.288,1.348 -2.641,0 -1.006,4.778 c -0.078,0.372 -0.117,0.659 -0.117,0.862 0,0.916 0.455,1.375 1.365,1.375 0.443,0 0.919,-0.111 1.428,-0.333 l -0.063,1.5 c -0.491,0.18 -1.285,0.27 -2.38,0.27 -0.683,0 -1.214,-0.211 -1.594,-0.633 -0.38,-0.422 -0.57,-1.001 -0.57,-1.738 0,-0.168 0.027,-0.375 0.081,-0.62 l 1.15,-5.461 z"
       id="path89"
       inkscape:connector-curvature="0"
       style="fill:#82a847" /><path
       d="m 398.784,105.174 0,-1.715 c 1.114,0 1.904,-0.168 2.372,-0.503 0.467,-0.335 0.802,-0.838 1.006,-1.509 -0.844,0 -1.404,-0.832 -1.68,-2.497 l -1.204,-7.168 1.859,0 1.06,6.979 c 0.102,0.688 0.347,1.033 0.736,1.033 l 3.467,-8.012 1.94,0 -4.823,10.77 c -0.407,0.91 -0.949,1.575 -1.626,1.994 -0.676,0.418 -1.711,0.628 -3.107,0.628 z"
       id="path91"
       inkscape:connector-curvature="0"
       style="fill:#82a847" /></g><g
     id="g93"
     transform="translate(-16.72,-25.391)"><path
       d="m 65.372,86.15 -0.944,0.157 -0.942,0 -0.787,0 -0.942,-0.157 -0.787,-0.157 -0.314,0 0,0.157 0,0.471 0,0.314 0,0.314 0,0.315 0,0.158 c 2.044,-0.473 4.088,-1.102 5.975,-1.887 l -0.472,0.158 -0.787,0.157 z"
       id="path95"
       inkscape:connector-curvature="0"
       style="fill:#ffcb05" /><path
       d="M 35.971,79.704 C 33.927,78.918 32.04,77.818 30.468,76.718 28.739,75.46 27.166,74.201 25.751,72.63 l -3.773,3.459 c 0,0.786 0.158,1.572 0.158,2.201 1.415,1.415 2.986,2.673 4.559,3.774 0.471,0.314 0.944,0.629 1.572,0.943 l 0.314,-0.158 0.473,-0.157 0,-0.157 0.314,-0.787 0.628,-0.629 0.944,-0.628 1.1,-0.314 1.258,0 1.1,0.314 0.787,0.628 0.471,0.629 0.157,0 0.787,0 0.786,0 1.101,0.158 0.943,0.471 0.944,0.786 0.471,0.944 0.157,0.786 0,0.158 0.472,0.157 0.786,0.473 0.786,0.628 0.629,1.102 0.158,1.1 c 0.786,0.157 1.572,0.157 2.515,0.314 l -0.158,-0.314 0,-0.158 0,-0.473 -0.157,-0.471 0.157,-0.473 0,-0.314 0.158,-0.157 -0.314,-0.471 -0.157,-1.258 1.101,-1.101 0.786,0 0.471,-1.258 c -3.459,-0.157 -6.76,-0.786 -9.748,-1.729 -0.945,-0.315 -1.73,-0.63 -2.516,-0.944 z"
       id="path97"
       inkscape:connector-curvature="0"
       style="fill:#ffcb05" /><path
       d="m 44.775,64.453 c 2.988,1.258 6.447,1.729 9.906,1.258 2.201,-0.315 4.245,-1.101 6.289,-2.202 0.787,-0.471 1.729,-1.1 2.358,-1.729 0.786,-0.628 1.573,-1.257 2.202,-2.044 3.145,-3.773 4.874,-8.804 4.559,-13.521 l -6.603,0.472 c 0.157,2.987 -0.944,6.446 -2.988,8.804 -0.471,0.471 -0.786,0.943 -1.258,1.258 -0.471,0.471 -0.942,0.786 -1.572,1.1 -0.943,0.471 -1.887,0.944 -2.987,1.101 -2.516,0.629 -5.188,0.472 -7.389,-0.471 -0.629,-0.315 -1.258,-0.629 -1.729,-0.944 -0.629,-0.314 -1.102,-0.786 -1.415,-1.258 l -0.158,0 -4.717,4.403 0,0.158 c 0.787,0.786 1.573,1.415 2.517,2.044 0.941,0.627 1.885,1.257 2.985,1.571 z"
       id="path99"
       inkscape:connector-curvature="0"
       style="fill:#ffcb05" /><path
       d="m 71.504,64.924 -1.101,-0.471 -1.101,-0.471 -0.786,-0.629 -0.629,-0.786 c -0.628,0.786 -1.257,1.415 -2.044,2.044 -0.943,0.786 -2.043,1.415 -3.145,2.201 -2.515,1.415 -5.188,2.358 -8.018,2.83 -4.874,0.786 -9.906,0.314 -14.307,-1.572 -0.629,-0.314 -1.258,-0.629 -1.887,-0.944 -0.629,-0.314 -1.258,-0.629 -1.886,-1.1 -1.102,-0.787 -2.202,-1.729 -3.146,-2.673 l -4.716,4.403 c 1.257,1.415 2.673,2.672 4.245,3.616 1.573,0.943 3.144,1.887 4.874,2.515 0.158,0.158 0.315,0.158 0.629,0.314 3.617,1.415 7.704,2.202 11.792,2.044 l 0.158,-0.314 0.315,-0.786 0.471,-0.629 0.629,-0.471 0.471,-0.471 0.629,-0.472 0.629,-0.315 0.786,-0.314 0.314,-0.157 0.314,-0.158 0.63,-0.158 0.629,0 0.628,-0.157 0.629,-0.158 0.629,-0.157 0.471,0 0.472,-0.158 0.471,0 0.315,0 0.471,0 0.472,0 0.629,0 0.471,0 0.629,0 0.629,0 0.629,0.158 0.628,0 0.474,0 0.629,0 0.471,0 0.471,0 0.314,0 0.315,0 0.158,0 0.157,0 c 0.943,-0.629 1.886,-1.258 2.673,-2.044 1.257,-1.101 2.516,-2.202 3.459,-3.459 l 0.314,-0.314 -1.258,-0.315 -1.099,-0.472 z"
       id="path101"
       inkscape:connector-curvature="0"
       style="fill:#ffcb05" /><path
       d="m 81.723,75.145 0.472,-0.471 c 0.786,-0.787 1.415,-1.729 2.044,-2.517 L 84.082,72 l -0.314,-0.629 -0.157,-0.315 -0.471,0 -0.944,-0.314 -0.472,0 L 81.252,70.585 80.466,70.271 79.68,69.8 78.893,69.327 78.579,69.013 c -0.471,0.473 -0.943,1.102 -1.257,1.573 -0.629,0.786 -1.258,1.415 -1.887,1.886 l 0.314,0.314 0.473,0.629 0.157,0.471 0.157,0.472 0,0.629 0,0.471 0,0.629 0,0.629 0,0.942 0,0.944 0,1.1 0,0.473 c 0.314,-0.158 0.629,-0.473 0.787,-0.629 1.728,-1.414 3.143,-2.829 4.4,-4.401 z"
       id="path103"
       inkscape:connector-curvature="0"
       style="fill:#ffcb05" /><polygon
       points="95.56,76.402 95.56,75.93 95.716,75.302 95.716,74.83 95.716,74.201 95.716,73.573 95.245,73.729 94.931,73.729 94.302,75.93 95.245,77.346 95.402,76.717 "
       id="polygon105"
       style="fill:#ffcb05" /><path
       d="m 87.384,43.07 -0.786,0.158 c 0.157,2.987 0,6.131 -0.629,9.275 l 0.471,-0.157 1.415,0 1.415,0 1.258,0.157 1.415,0.158 0.629,0 c 0.157,-1.258 0.471,-2.673 0.471,-3.93 C 91.314,46.687 89.428,44.8 87.384,43.07 Z"
       id="path107"
       inkscape:connector-curvature="0"
       style="fill:#ffcb05" /><path
       d="m 88.956,79.861 -0.628,-0.943 c -1.101,1.415 -2.202,2.673 -3.617,3.93 -0.943,0.787 -1.886,1.729 -2.987,2.516 -0.628,0.472 -1.257,0.943 -2.043,1.415 -0.158,0.157 -0.158,0.157 -0.315,0.314 0.786,0.315 1.572,0.629 2.358,0.944 1.101,0.313 2.202,0.786 3.302,1.257 l 5.817,-6.76 -1.101,-1.573 -0.786,-1.1 z"
       id="path109"
       inkscape:connector-curvature="0"
       style="fill:#ffcb05" /><path
       d="m 76.535,56.277 0.787,-0.157 0.786,0 0.629,0 0.629,0 0.157,-0.943 0.629,-0.944 c 1.1,-3.772 1.729,-7.86 1.415,-11.634 L 75.12,43.07 c 0.314,4.874 -1.101,10.063 -3.616,14.623 l 0.314,0 1.101,0 0.471,0 0.787,-0.787 0.786,-0.315 0.786,-0.314 0.786,0 z"
       id="path111"
       inkscape:connector-curvature="0"
       style="fill:#ffcb05" /></g><g
     id="g113"
     transform="translate(-16.72,-25.391)"><path
       d="m 46.662,105.332 c -5.346,-1.887 -10.376,-3.302 -14.937,-4.717 1.258,1.415 2.516,2.673 3.931,3.93 l 0.314,0.158 c 4.874,1.415 9.277,3.459 13.365,5.503 2.515,1.257 4.874,2.673 6.918,3.93 1.886,0.314 3.93,0.473 5.974,0.473 1.573,0 3.145,-0.158 4.717,-0.315 -3.932,-2.358 -9.591,-5.188 -17.609,-8.019 -0.943,-0.315 -1.729,-0.628 -2.673,-0.943 z"
       id="path115"
       inkscape:connector-curvature="0"
       style="fill:#a2c53f" /><path
       d="m 58.297,101.715 c -3.146,-1.1 -6.132,-2.044 -8.962,-2.83 -9.591,-2.988 -17.61,-4.874 -22.956,-6.132 0.629,1.101 1.101,2.044 1.729,2.988 4.245,0.944 10.691,2.673 19.497,5.345 0.628,0.158 1.1,0.314 1.729,0.472 9.275,3.145 17.294,7.862 22.797,11.792 2.359,-0.629 4.56,-1.415 6.76,-2.358 -4.243,-2.673 -10.846,-5.974 -20.594,-9.277 z"
       id="path117"
       inkscape:connector-curvature="0"
       style="fill:#a2c53f" /></g><path
     d="M 66.576,11.076 60.444,4 41.578,12.176 39.577,18.054 c -1.217,-1.45 -3.034,-2.419 -5.074,-2.419 -3.616,0 -6.447,2.988 -6.447,6.446 0,0.189 0.039,0.367 0.053,0.551 L 21.452,20.509 4,31.515 6.201,40.477 25.697,29.786 28.349,23.953 c 0.784,2.713 3.19,4.732 6.153,4.732 3.617,0 6.603,-2.988 6.603,-6.604 0,-0.774 -0.168,-1.516 -0.441,-2.214 l 5.944,1.114 19.968,-9.905 z"
     id="path119"
     inkscape:connector-curvature="0"
     style="clip-rule:evenodd;fill:#835c33;fill-rule:evenodd" /><g
     id="g121"
     transform="translate(-16.72,-25.391)"><path
       d="m 58.611,99.515 9.905,3.616 c 0,0 7.076,-2.358 14.623,-2.358 2.986,0 5.974,0.472 8.489,0.787 0.629,-0.629 1.258,-1.258 1.887,-2.044 -3.302,-0.943 -7.861,-1.729 -12.421,-1.729 -10.062,-0.002 -22.483,1.728 -22.483,1.728 z"
       id="path123"
       inkscape:connector-curvature="0"
       style="clip-rule:evenodd;fill:#82a847;fill-rule:evenodd" /><path
       d="m 73.705,105.174 c 2.83,0.629 6.447,2.83 8.333,4.088 2.202,-1.258 4.402,-2.83 6.29,-4.403 -1.101,-0.314 -2.516,-0.471 -4.402,-0.471 -6.448,-0.157 -10.221,0.786 -10.221,0.786 z"
       id="path125"
       inkscape:connector-curvature="0"
       style="clip-rule:evenodd;fill:#82a847;fill-rule:evenodd" /><path
       d="m 73.862,87.565 c 0,-1.886 0,-2.044 0.157,-2.516 0.158,-0.314 -0.629,-1.573 -0.629,-2.358 0.158,-0.629 0.787,-5.66 0.944,-5.974 0,-0.315 -0.315,4.401 0,5.817 0.471,1.572 0.629,1.729 0.629,1.729 0,0 -0.158,-4.246 -0.158,-6.604 0,-2.515 0.158,-3.145 -0.313,-3.616 -0.473,-0.629 -1.73,-1.258 -2.359,-1.258 -0.629,0.158 -4.402,0.315 -4.874,0.315 -0.629,0 -6.132,-0.157 -7.705,-0.157 -1.571,0 -6.603,1.1 -7.547,3.615 l -2.83,8.176 c 0,0 -0.472,0.471 -1.258,0.471 -0.786,0 0.158,0.629 0.158,1.258 0,0.471 -0.471,0.786 -0.158,1.415 0.158,0.786 0.158,2.201 0,2.83 -0.157,0.473 -0.313,0.158 -0.313,0.629 0,0.027 0.02,0.049 0.024,0.075 -1.06,0.134 -2.081,0.268 -3.012,0.396 l 0,0.158 0.314,0.944 0,0.786 0.157,0.629 -0.157,0.472 0,0.314 6.918,1.729 c 0,0 8.647,-2.359 23.427,-2.673 9.119,-0.157 16.351,1.258 20.439,2.202 0.315,-0.315 0.629,-0.787 0.786,-1.102 -4.989,-1.792 -13.429,-4.28 -22.58,-5.072 -0.016,-0.687 -0.06,-1.599 -0.06,-2.63 z m -2.358,-2.201 c 0,-0.629 1.415,1.886 1.257,3.459 0,0.511 -0.025,0.914 -0.059,1.268 -1.205,-0.083 -2.417,-0.121 -3.636,-0.134 0.283,-0.428 0.55,-0.848 0.55,-1.134 0.158,-0.314 1.888,-2.987 1.888,-3.459 z m -12.579,1.572 c 0,-0.786 0.158,-3.145 0.158,-3.145 0,0 2.359,0.944 4.403,0.786 2.044,0 4.559,-0.786 4.559,-0.786 0,0 1.257,0.944 1.257,1.415 0,0.629 -0.943,3.932 -0.943,3.932 l -0.58,0.79 c -0.068,0.001 -0.137,-0.005 -0.207,-0.004 -3.122,0.053 -6.121,0.204 -8.959,0.404 0.121,-0.208 0.244,-0.428 0.312,-0.561 0.158,-0.314 0,-2.044 0,-2.831 z m -1.571,-2.044 c 0.314,-0.314 0.786,3.146 0.629,3.931 0,0.579 -0.345,1.188 -0.62,1.595 -0.732,0.057 -1.453,0.116 -2.16,0.179 0.209,-0.928 0.415,-2.668 0.892,-3.504 0.473,-0.943 0.944,-1.886 1.259,-2.201 z m -7.497,6.253 c 0.023,-0.116 0.054,-0.225 0.106,-0.277 0.158,-0.314 1.729,-2.044 2.044,-2.987 0.158,-0.944 0.629,-2.044 1.101,-2.673 0.472,-0.629 0.943,-0.629 1.416,-0.314 0.471,0.314 -0.158,1.887 -0.158,3.302 0,0.985 -0.364,1.877 -0.678,2.546 -1.334,0.127 -2.617,0.262 -3.831,0.403 z"
       id="path127"
       inkscape:connector-curvature="0"
       style="clip-rule:evenodd;fill:#82a847;fill-rule:evenodd" /><path
       d="m 41.474,90.867 c -2.516,-1.1 0.629,0.315 0.786,-2.044 0,-2.516 -2.988,-2.673 -2.988,-2.673 0,0 0.944,-2.044 -1.257,-2.673 -2.202,-0.629 -3.459,0.158 -3.459,0.158 0,0 0,-2.202 -2.202,-1.887 -2.358,0.473 -1.886,2.202 -1.886,2.202 0,0 -2.515,0.314 -2.673,1.729 0,1.571 0.629,1.571 0.629,1.571 0,0 -1.415,0.787 -1.415,2.044 0,1.258 0.786,2.044 0.786,2.044 l 15.565,3.459 c 0,0.001 0.629,-2.829 -1.886,-3.93 z"
       id="path129"
       inkscape:connector-curvature="0"
       style="clip-rule:evenodd;fill:#82a847;fill-rule:evenodd" /><path
       d="m 95.402,54.547 c -2.515,-0.471 -16.666,-2.044 -14.307,2.673 0.943,1.573 -6.761,-1.101 -6.761,2.358 0,0 -2.516,-1.415 -5.032,1.101 -2.357,2.673 11.792,5.032 11.792,5.032 0,0 -3.459,0.629 -1.101,2.515 0.902,0.773 2.833,1.226 4.797,1.496 1.026,2.268 2.301,4.497 3.693,6.522 2.673,4.088 4.245,6.447 4.245,6.447 l -6.446,7.547 9.905,2.044 c 1.927,-3.854 5.249,-12.88 4.7,-21.147 0.584,-0.138 0.961,-0.236 0.961,-0.236 0.63,0 -0.785,-15.093 -6.446,-16.352 z m -8.417,15.411 c 1.964,0.156 3.543,0.156 3.543,0.156 0,0 0.015,1.199 1.513,1.757 l -1.356,2.802 c 0,0 -2.68,-2.692 -3.7,-4.715 z m 9.99,7.23 c -0.629,2.358 -1.573,3.145 -1.573,3.145 l -2.83,-4.088 1.204,-4.092 c 0.021,0 0.034,0.004 0.054,0.004 1.127,0 2.413,-0.15 3.625,-0.343 -0.019,1.674 -0.119,3.93 -0.48,5.374 z"
       id="path131"
       inkscape:connector-curvature="0"
       style="clip-rule:evenodd;fill:#82a847;fill-rule:evenodd" /></g><rect
     width="432"
     height="144"
     id="rect133"
     x="-16.719999"
     y="-25.391001"
     style="clip-rule:evenodd;fill:none;fill-rule:evenodd" /></svg>