<?xml version="1.0" encoding="utf-8"?>
<!-- Generator: Adobe Illustrator 14.0.0, SVG Export Plug-In . SVG Version: 6.00 Build 43363)  -->
<!DOCTYPE svg PUBLIC "-//W3C//DTD SVG 1.1//EN" "http://www.w3.org/Graphics/SVG/1.1/DTD/svg11.dtd">
<svg version="1.1" id="Layer_1" xmlns="http://www.w3.org/2000/svg" xmlns:xlink="http://www.w3.org/1999/xlink" x="0px" y="0px"
	 width="432px" height="144px" viewBox="0 0 432 144" enable-background="new 0 0 432 144" xml:space="preserve">
<g>
	<path fill="#835C33" d="M131.028,78.158c-2.214,0.844-4.6,1.267-7.159,1.267c-9.942,0-14.913-4.766-14.913-14.298
		c0-9.021,4.798-13.531,14.395-13.531c2.75,0,5.31,0.384,7.677,1.151v3.071c-2.367-0.896-4.798-1.343-7.293-1.343
		c-7.485,0-11.228,3.55-11.228,10.652c0,7.613,3.685,11.419,11.055,11.419c1.177,0,2.482-0.153,3.915-0.46v-9.328h3.551V78.158z"/>
	<path fill="#835C33" d="M154.443,51.788v2.879h-14.395v9.212h13.723v2.879h-13.723v9.596h14.682v2.879h-18.233V51.788H154.443z"/>
	<path fill="#835C33" d="M159.049,65.548c0-9.302,4.593-13.953,13.78-13.953c9.046,0,13.569,4.651,13.569,13.953
		c0,9.251-4.523,13.876-13.569,13.876C164.052,79.425,159.458,74.799,159.049,65.548z M172.83,76.546
		c6.551,0,9.827-3.704,9.827-11.112c0-7.306-3.276-10.959-9.827-10.959c-6.692,0-10.038,3.653-10.038,10.959
		C162.792,72.842,166.138,76.546,172.83,76.546z"/>
	<path fill="#835C33" d="M212.309,78.158c-2.214,0.844-4.6,1.267-7.159,1.267c-9.942,0-14.913-4.766-14.913-14.298
		c0-9.021,4.798-13.531,14.395-13.531c2.75,0,5.31,0.384,7.677,1.151v3.071c-2.367-0.896-4.798-1.343-7.293-1.343
		c-7.485,0-11.228,3.55-11.228,10.652c0,7.613,3.685,11.419,11.055,11.419c1.177,0,2.482-0.153,3.915-0.46v-9.328h3.551V78.158z"/>
	<path fill="#835C33" d="M221.33,51.788v24.566h14.356v2.879h-17.907V51.788H221.33z"/>
	<path fill="#835C33" d="M238.084,79.233l11.65-27.445h3.935l11.708,27.445h-3.743l-3.646-8.637h-9.174l0.979-2.879h6.852
		l-5.067-12.245l-9.807,23.76H238.084z"/>
	<path fill="#835C33" d="M268.735,79.233V51.788h4.51l10.076,22.896l9.884-22.896h4.318v27.445h-3.167V57.104l-9.75,22.129h-2.802
		l-9.903-22.129v22.129H268.735z"/>
</g>
<g>
	<path fill="#82A847" d="M313.208,79.233V51.788h11.708c5.22,0,7.831,2.194,7.831,6.583c0,3.57-2.553,6.212-7.658,7.926
		l9.423,12.936h-4.683l-8.732-12.341V64.57c5.246-0.832,7.869-2.847,7.869-6.046c0-2.533-1.459-3.8-4.376-3.8h-7.831v24.509H313.208
		z"/>
	<path fill="#82A847" d="M336.336,79.233l11.65-27.445h3.935l11.708,27.445h-3.743l-3.646-8.637h-9.174l0.979-2.879h6.852
		l-5.067-12.245l-9.807,23.76H336.336z"/>
	<path fill="#82A847" d="M366.986,79.233V51.788h11.708c5.22,0,7.831,2.194,7.831,6.583c0,4.952-3.64,8.016-10.92,9.193
		l-0.729-2.994c5.246-0.832,7.869-2.847,7.869-6.046c0-2.533-1.459-3.8-4.376-3.8h-7.831v24.509H366.986z"/>
	<path fill="#82A847" d="M390.843,79.233V51.788h11.708c5.22,0,7.831,2.194,7.831,6.583c0,4.952-3.64,8.016-10.92,9.193
		l-0.729-2.994c5.246-0.832,7.869-2.847,7.869-6.046c0-2.533-1.459-3.8-4.376-3.8h-7.831v24.509H390.843z"/>
</g>
<g>
	<path fill="#82A847" d="M117.358,101.401l-2.066-5.65c-0.461,0-1.093-0.03-1.896-0.09l-1.006,5.74h-1.886l2.317-13.159
		c0.246-0.006,0.729-0.03,1.451-0.072c0.722-0.042,1.313-0.063,1.774-0.063c1.389,0,2.459,0.249,3.211,0.746
		s1.127,1.209,1.127,2.138c0,1.096-0.325,2.055-0.975,2.878c-0.65,0.824-1.465,1.346-2.448,1.567l2.452,5.964H117.358z
		 M114.42,89.859l-0.754,4.275c0.443,0.06,0.859,0.09,1.249,0.09c1.066,0,1.924-0.222,2.574-0.665
		c0.649-0.443,0.974-1.051,0.974-1.824c0-0.712-0.228-1.218-0.683-1.518s-1.215-0.449-2.281-0.449
		C115.271,89.77,114.912,89.799,114.42,89.859z"/>
	<path fill="#82A847" d="M130.078,92.383l-1.177,5.596c-0.048,0.228-0.072,0.503-0.072,0.827c0,0.934,0.146,1.799,0.44,2.596h-1.742
		c-0.096-0.191-0.198-0.515-0.306-0.97c-0.281,0.341-0.701,0.619-1.257,0.831c-0.557,0.212-1.147,0.319-1.77,0.319
		c-0.946,0-1.684-0.28-2.214-0.84c-0.53-0.56-0.795-1.364-0.795-2.412c0-1.761,0.519-3.322,1.558-4.684s2.376-2.043,4.011-2.043
		C128.299,91.602,129.407,91.862,130.078,92.383z M128.191,93.38c-0.162-0.257-0.707-0.386-1.635-0.386
		c-0.946,0-1.778,0.503-2.497,1.509c-0.719,1.006-1.078,2.264-1.078,3.772c0,1.276,0.569,1.914,1.707,1.914
		c0.593,0,1.149-0.307,1.67-0.921s0.883-1.399,1.087-2.358L128.191,93.38z"/>
	<path fill="#82A847" d="M136.888,101.401l1.006-5.596c0.09-0.497,0.135-0.91,0.135-1.24c0-1.018-0.53-1.527-1.59-1.527
		c-0.407,0-0.843,0.12-1.307,0.359c-0.464,0.239-0.834,0.524-1.109,0.853l-1.249,7.15h-1.725l1.293-7.293
		c0.03-0.167,0.045-0.365,0.045-0.593c0-0.611-0.063-1.141-0.189-1.59l1.653-0.323c0.162,0.874,0.24,1.35,0.234,1.428
		c0.73-0.952,1.784-1.428,3.162-1.428c1.736,0,2.604,0.886,2.604,2.659c0,0.353-0.039,0.749-0.117,1.186l-1.033,5.955H136.888z"/>
	<path fill="#82A847" d="M140.338,104.096l0.808-1.258c1.096,0.551,2.003,0.827,2.722,0.827c0.791,0,1.449-0.147,1.976-0.44
		s0.791-0.704,0.791-1.23c0-0.264-0.088-0.48-0.265-0.651c-0.176-0.17-0.478-0.292-0.902-0.364l-1.581-0.269
		c-0.641-0.162-0.961-0.488-0.961-0.979c0-0.395,0.512-0.793,1.536-1.194l-0.305,0.009c-0.701,0-1.316-0.262-1.846-0.786
		c-0.53-0.524-0.795-1.154-0.795-1.891c0-1.257,0.404-2.283,1.212-3.076s1.841-1.19,3.099-1.19c0.904,0,1.617,0.215,2.138,0.646
		l0.808-0.916l0.943,0.97l-0.889,0.925c0.173,0.246,0.26,0.632,0.26,1.159c0,1.03-0.26,1.913-0.781,2.65
		c-0.521,0.736-1.202,1.253-2.043,1.549S145,99.159,145,99.417c0,0.209,0.114,0.314,0.341,0.314c0.084,0,0.208-0.013,0.373-0.04
		c0.165-0.027,0.289-0.041,0.373-0.041c1.497,0,2.246,0.677,2.246,2.03c0,1.06-0.472,1.907-1.415,2.542
		c-0.943,0.635-2.065,0.952-3.364,0.952C142.236,105.174,141.164,104.814,140.338,104.096z M145.7,92.976
		c-0.688,0-1.268,0.268-1.738,0.804c-0.47,0.536-0.705,1.167-0.705,1.891c0,1.305,0.494,1.958,1.482,1.958
		c0.67,0,1.263-0.328,1.778-0.983c0.515-0.656,0.772-1.352,0.772-2.088c0-0.485-0.144-0.87-0.431-1.154S146.185,92.976,145.7,92.976
		z"/>
	<path fill="#82A847" d="M152.537,96.856c-0.054,0.288-0.081,0.563-0.081,0.826c0,0.791,0.222,1.398,0.665,1.824
		c0.443,0.425,1.063,0.638,1.859,0.638c0.706,0,1.419-0.261,2.138-0.782l-0.18,1.743c-0.958,0.317-1.806,0.476-2.542,0.476
		c-2.479,0-3.719-1.389-3.719-4.168c0-1.635,0.521-3.012,1.563-4.131c1.042-1.12,2.354-1.68,3.934-1.68
		c0.952,0,1.712,0.204,2.282,0.61c0.569,0.408,0.853,0.988,0.853,1.743c0,1.048-0.443,1.875-1.329,2.479
		c-0.886,0.605-1.973,0.907-3.261,0.907C153.857,97.341,153.13,97.18,152.537,96.856z M152.833,95.617
		c0.455,0.204,0.991,0.306,1.608,0.306c0.934,0,1.698-0.151,2.291-0.454s0.889-0.744,0.889-1.325c0-0.736-0.509-1.104-1.527-1.104
		C154.543,93.039,153.456,93.898,152.833,95.617z"/>
	<path fill="#82A847" d="M164.071,100.324l-0.197,1.257c-1.922,0-2.883-0.712-2.883-2.138c0-0.431,0.149-1.393,0.449-2.883
		l1.724-8.722h1.779l-1.644,8.192c-0.341,1.701-0.512,2.766-0.512,3.197C162.787,99.958,163.215,100.324,164.071,100.324z"/>
	<path fill="#82A847" d="M175.076,92.383l-1.177,5.596c-0.048,0.228-0.072,0.503-0.072,0.827c0,0.934,0.146,1.799,0.44,2.596h-1.742
		c-0.096-0.191-0.198-0.515-0.306-0.97c-0.281,0.341-0.701,0.619-1.257,0.831c-0.557,0.212-1.147,0.319-1.77,0.319
		c-0.946,0-1.684-0.28-2.214-0.84c-0.53-0.56-0.795-1.364-0.795-2.412c0-1.761,0.519-3.322,1.558-4.684s2.376-2.043,4.011-2.043
		C173.297,91.602,174.405,91.862,175.076,92.383z M173.189,93.38c-0.162-0.257-0.707-0.386-1.635-0.386
		c-0.946,0-1.778,0.503-2.497,1.509c-0.719,1.006-1.078,2.264-1.078,3.772c0,1.276,0.569,1.914,1.707,1.914
		c0.593,0,1.149-0.307,1.67-0.921s0.883-1.399,1.087-2.358L173.189,93.38z"/>
	<path fill="#82A847" d="M181.886,101.401l1.006-5.596c0.09-0.497,0.135-0.91,0.135-1.24c0-1.018-0.53-1.527-1.59-1.527
		c-0.407,0-0.843,0.12-1.307,0.359c-0.464,0.239-0.834,0.524-1.109,0.853l-1.249,7.15h-1.725l1.293-7.293
		c0.03-0.167,0.045-0.365,0.045-0.593c0-0.611-0.063-1.141-0.189-1.59l1.653-0.323c0.162,0.874,0.24,1.35,0.234,1.428
		c0.73-0.952,1.784-1.428,3.162-1.428c1.736,0,2.604,0.886,2.604,2.659c0,0.353-0.039,0.749-0.117,1.186l-1.033,5.955H181.886z"/>
	<path fill="#82A847" d="M192.153,101.401l0.207-1.105c-0.695,0.851-1.644,1.276-2.847,1.276c-1.042,0-1.856-0.319-2.443-0.957
		s-0.88-1.504-0.88-2.6c0-1.874,0.503-3.409,1.509-4.604c1.006-1.194,2.293-1.792,3.862-1.792c0.91,0,1.608,0.377,2.093,1.132
		l0.907-4.913h1.626l-2.345,13.563H192.153z M193.339,94.449c0.012-0.054-0.067-0.22-0.238-0.499
		c-0.171-0.278-0.377-0.497-0.62-0.656c-0.242-0.159-0.499-0.238-0.768-0.238c-1.06,0-1.939,0.43-2.636,1.289
		c-0.698,0.859-1.047,1.96-1.047,3.301c0,1.694,0.698,2.542,2.093,2.542c0.628,0,1.215-0.31,1.76-0.93
		c0.545-0.62,0.898-1.421,1.06-2.403L193.339,94.449z"/>
	<path fill="#82A847" d="M210.803,92.383l-1.177,5.596c-0.048,0.228-0.072,0.503-0.072,0.827c0,0.934,0.146,1.799,0.44,2.596h-1.742
		c-0.096-0.191-0.198-0.515-0.306-0.97c-0.281,0.341-0.701,0.619-1.257,0.831c-0.557,0.212-1.147,0.319-1.77,0.319
		c-0.946,0-1.684-0.28-2.214-0.84c-0.53-0.56-0.795-1.364-0.795-2.412c0-1.761,0.519-3.322,1.558-4.684s2.376-2.043,4.011-2.043
		C209.025,91.602,210.132,91.862,210.803,92.383z M208.917,93.38c-0.162-0.257-0.707-0.386-1.635-0.386
		c-0.946,0-1.778,0.503-2.497,1.509c-0.719,1.006-1.078,2.264-1.078,3.772c0,1.276,0.569,1.914,1.707,1.914
		c0.593,0,1.149-0.307,1.67-0.921s0.883-1.399,1.087-2.358L208.917,93.38z"/>
	<path fill="#82A847" d="M217.613,101.401l1.006-5.596c0.09-0.497,0.135-0.91,0.135-1.24c0-1.018-0.53-1.527-1.59-1.527
		c-0.407,0-0.843,0.12-1.307,0.359c-0.464,0.239-0.834,0.524-1.109,0.853l-1.249,7.15h-1.725l1.293-7.293
		c0.03-0.167,0.045-0.365,0.045-0.593c0-0.611-0.063-1.141-0.189-1.59l1.653-0.323c0.162,0.874,0.24,1.35,0.234,1.428
		c0.73-0.952,1.784-1.428,3.162-1.428c1.736,0,2.604,0.886,2.604,2.659c0,0.353-0.039,0.749-0.117,1.186l-1.033,5.955H217.613z"/>
	<path fill="#82A847" d="M227.881,101.401l0.207-1.105c-0.695,0.851-1.644,1.276-2.847,1.276c-1.042,0-1.856-0.319-2.443-0.957
		s-0.88-1.504-0.88-2.6c0-1.874,0.503-3.409,1.509-4.604c1.006-1.194,2.293-1.792,3.862-1.792c0.91,0,1.608,0.377,2.093,1.132
		l0.907-4.913h1.626l-2.345,13.563H227.881z M229.066,94.449c0.012-0.054-0.067-0.22-0.238-0.499
		c-0.171-0.278-0.377-0.497-0.62-0.656c-0.242-0.159-0.499-0.238-0.768-0.238c-1.06,0-1.939,0.43-2.636,1.289
		c-0.698,0.859-1.047,1.96-1.047,3.301c0,1.694,0.698,2.542,2.093,2.542c0.628,0,1.215-0.31,1.76-0.93
		c0.545-0.62,0.898-1.421,1.06-2.403L229.066,94.449z"/>
	<path fill="#82A847" d="M240.333,96.335l-0.898,5.066h-1.869l2.398-13.159c1.114-0.12,1.994-0.18,2.641-0.18
		c3.306,0,4.958,1.275,4.958,3.826c0,1.467-0.509,2.611-1.527,3.431c-1.018,0.821-2.32,1.23-3.907,1.23
		C241.5,96.551,240.901,96.479,240.333,96.335z M241.473,89.859l-0.853,4.859c0.329,0.162,0.814,0.242,1.455,0.242
		c1.066,0,1.928-0.25,2.587-0.75c0.659-0.5,0.988-1.214,0.988-2.142c0-1.611-0.868-2.416-2.604-2.416
		C242.554,89.653,242.03,89.722,241.473,89.859z"/>
	<path fill="#82A847" d="M256.583,92.383l-1.177,5.596c-0.048,0.228-0.072,0.503-0.072,0.827c0,0.934,0.146,1.799,0.44,2.596h-1.742
		c-0.096-0.191-0.198-0.515-0.306-0.97c-0.281,0.341-0.701,0.619-1.257,0.831c-0.557,0.212-1.147,0.319-1.77,0.319
		c-0.946,0-1.684-0.28-2.214-0.84c-0.53-0.56-0.795-1.364-0.795-2.412c0-1.761,0.519-3.322,1.558-4.684s2.376-2.043,4.011-2.043
		C254.804,91.602,255.912,91.862,256.583,92.383z M254.696,93.38c-0.162-0.257-0.707-0.386-1.635-0.386
		c-0.946,0-1.778,0.503-2.497,1.509c-0.719,1.006-1.078,2.264-1.078,3.772c0,1.276,0.569,1.914,1.707,1.914
		c0.593,0,1.149-0.307,1.67-0.921s0.883-1.399,1.087-2.358L254.696,93.38z"/>
	<path fill="#82A847" d="M256.935,100.827l0.889-1.617c0.233,0.233,0.569,0.447,1.006,0.642c0.437,0.194,0.812,0.292,1.123,0.292
		c0.533,0,0.973-0.144,1.321-0.431c0.347-0.288,0.521-0.677,0.521-1.168c0-0.251-0.091-0.476-0.274-0.673
		c-0.183-0.198-0.499-0.425-0.947-0.683l-1.267-0.701c-0.389-0.222-0.681-0.501-0.876-0.84c-0.194-0.338-0.292-0.699-0.292-1.083
		c0-0.892,0.347-1.609,1.042-2.151c0.695-0.542,1.548-0.813,2.56-0.813c0.701,0,1.545,0.221,2.533,0.665l-0.764,1.581
		c-0.587-0.539-1.219-0.808-1.895-0.808c-0.449,0-0.837,0.115-1.164,0.346c-0.326,0.23-0.489,0.535-0.489,0.912
		c0,0.275,0.093,0.512,0.278,0.709c0.186,0.198,0.506,0.419,0.961,0.665l1.258,0.683c0.389,0.209,0.679,0.479,0.871,0.808
		c0.191,0.33,0.288,0.689,0.288,1.078c0,1.03-0.373,1.844-1.118,2.443c-0.746,0.599-1.693,0.898-2.843,0.898
		C258.644,101.581,257.737,101.33,256.935,100.827z"/>
	<path fill="#82A847" d="M267.238,93.129h-1.114l0.288-1.348h1.114l0.395-2.012l1.949-0.737l-0.638,2.749h2.641l-0.288,1.348h-2.641
		l-1.006,4.778c-0.078,0.372-0.117,0.659-0.117,0.862c0,0.916,0.455,1.375,1.365,1.375c0.443,0,0.919-0.111,1.428-0.333l-0.063,1.5
		c-0.491,0.18-1.285,0.27-2.38,0.27c-0.683,0-1.214-0.211-1.594-0.633s-0.57-1.001-0.57-1.738c0-0.168,0.027-0.375,0.081-0.62
		L267.238,93.129z"/>
	<path fill="#82A847" d="M276.005,91.781l-1.123,6.135c-0.048,0.263-0.072,0.506-0.072,0.728c0,1,0.521,1.5,1.563,1.5
		c0.641,0,1.256-0.24,1.846-0.719s0.944-1.051,1.064-1.716l1.096-5.928h1.796l-1.76,9.62h-1.796l0.251-1.356
		c-0.671,1.024-1.833,1.536-3.485,1.536c-0.749,0-1.333-0.222-1.751-0.665c-0.419-0.443-0.629-1.072-0.629-1.886
		c0-0.288,0.03-0.599,0.09-0.935l1.114-6.314H276.005z"/>
	<path fill="#82A847" d="M289.929,93.47c-0.359-0.288-0.778-0.431-1.257-0.431c-0.605,0-1.183,0.28-1.733,0.84
		c-0.551,0.56-0.896,1.229-1.033,2.007l-0.979,5.515h-1.707l1.698-9.62h1.707l-0.27,1.536c0.826-1.144,1.853-1.715,3.081-1.715
		c0.21,0,0.536,0.042,0.979,0.125L289.929,93.47z"/>
	<path fill="#82A847" d="M292.94,96.856c-0.054,0.288-0.081,0.563-0.081,0.826c0,0.791,0.222,1.398,0.665,1.824
		c0.443,0.425,1.063,0.638,1.859,0.638c0.706,0,1.419-0.261,2.138-0.782l-0.18,1.743c-0.958,0.317-1.806,0.476-2.542,0.476
		c-2.479,0-3.719-1.389-3.719-4.168c0-1.635,0.521-3.012,1.563-4.131c1.042-1.12,2.354-1.68,3.934-1.68
		c0.952,0,1.712,0.204,2.282,0.61c0.569,0.408,0.853,0.988,0.853,1.743c0,1.048-0.443,1.875-1.329,2.479
		c-0.886,0.605-1.973,0.907-3.261,0.907C294.26,97.341,293.533,97.18,292.94,96.856z M293.236,95.617
		c0.455,0.204,0.991,0.306,1.608,0.306c0.934,0,1.698-0.151,2.291-0.454s0.889-0.744,0.889-1.325c0-0.736-0.509-1.104-1.527-1.104
		C294.946,93.039,293.859,93.898,293.236,95.617z"/>
	<path fill="#82A847" d="M308.931,96.335l-0.898,5.066h-1.869l2.398-13.159c1.114-0.12,1.994-0.18,2.641-0.18
		c3.306,0,4.958,1.275,4.958,3.826c0,1.467-0.509,2.611-1.527,3.431c-1.018,0.821-2.32,1.23-3.907,1.23
		C310.099,96.551,309.5,96.479,308.931,96.335z M310.071,89.859l-0.853,4.859c0.329,0.162,0.814,0.242,1.455,0.242
		c1.066,0,1.928-0.25,2.587-0.75c0.659-0.5,0.988-1.214,0.988-2.142c0-1.611-0.868-2.416-2.604-2.416
		C311.152,89.653,310.628,89.722,310.071,89.859z"/>
	<path fill="#82A847" d="M323.231,93.47c-0.359-0.288-0.778-0.431-1.257-0.431c-0.605,0-1.183,0.28-1.733,0.84
		c-0.551,0.56-0.896,1.229-1.033,2.007l-0.979,5.515h-1.707l1.698-9.62h1.707l-0.27,1.536c0.826-1.144,1.853-1.715,3.081-1.715
		c0.21,0,0.536,0.042,0.979,0.125L323.231,93.47z"/>
	<path fill="#82A847" d="M324.104,97.862c0-1.718,0.503-3.191,1.509-4.419c1.006-1.228,2.285-1.841,3.835-1.841
		c1.168,0,2.06,0.316,2.677,0.947c0.617,0.632,0.925,1.529,0.925,2.69c0,0.922-0.184,1.88-0.553,2.874
		c-0.368,0.994-0.97,1.821-1.805,2.479c-0.835,0.659-1.837,0.988-3.004,0.988c-1.156,0-2.042-0.325-2.659-0.975
		C324.412,99.957,324.104,99.042,324.104,97.862z M325.9,97.754c0,1.623,0.68,2.435,2.039,2.435c1.012,0,1.815-0.491,2.412-1.473
		c0.596-0.982,0.894-2.117,0.894-3.404c0-1.545-0.68-2.317-2.039-2.317c-0.688,0-1.295,0.246-1.819,0.736
		c-0.524,0.491-0.902,1.12-1.136,1.886C326.017,96.383,325.9,97.096,325.9,97.754z"/>
	<path fill="#82A847" d="M340.076,101.401l0.207-1.105c-0.695,0.851-1.644,1.276-2.847,1.276c-1.042,0-1.856-0.319-2.443-0.957
		s-0.88-1.504-0.88-2.6c0-1.874,0.503-3.409,1.509-4.604c1.006-1.194,2.293-1.792,3.862-1.792c0.91,0,1.608,0.377,2.093,1.132
		l0.907-4.913h1.626l-2.345,13.563H340.076z M341.261,94.449c0.012-0.054-0.067-0.22-0.238-0.499
		c-0.171-0.278-0.377-0.497-0.62-0.656c-0.242-0.159-0.499-0.238-0.768-0.238c-1.06,0-1.939,0.43-2.636,1.289
		c-0.698,0.859-1.047,1.96-1.047,3.301c0,1.694,0.698,2.542,2.093,2.542c0.628,0,1.215-0.31,1.76-0.93
		c0.545-0.62,0.898-1.421,1.06-2.403L341.261,94.449z"/>
	<path fill="#82A847" d="M347.55,91.781l-1.123,6.135c-0.048,0.263-0.072,0.506-0.072,0.728c0,1,0.521,1.5,1.563,1.5
		c0.641,0,1.256-0.24,1.846-0.719s0.944-1.051,1.064-1.716l1.096-5.928h1.796l-1.76,9.62h-1.796l0.251-1.356
		c-0.671,1.024-1.833,1.536-3.485,1.536c-0.749,0-1.333-0.222-1.751-0.665c-0.419-0.443-0.629-1.072-0.629-1.886
		c0-0.288,0.03-0.599,0.09-0.935l1.114-6.314H347.55z"/>
	<path fill="#82A847" d="M362.309,92.087l-0.314,1.464c-0.431-0.341-1.009-0.512-1.733-0.512c-1.102,0-1.993,0.436-2.672,1.307
		c-0.68,0.872-1.02,1.942-1.02,3.211c0,0.778,0.22,1.4,0.66,1.864c0.44,0.464,0.942,0.696,1.505,0.696
		c0.868,0,1.7-0.266,2.497-0.799l-0.189,1.743c-0.785,0.347-1.644,0.521-2.578,0.521c-1.186,0-2.096-0.34-2.73-1.02
		c-0.635-0.68-0.952-1.582-0.952-2.708c0-1.833,0.503-3.333,1.509-4.5c1.006-1.168,2.288-1.751,3.844-1.751
		C361.058,91.602,361.782,91.764,362.309,92.087z"/>
	<path fill="#82A847" d="M365.373,93.129h-1.114l0.288-1.348h1.114l0.395-2.012l1.949-0.737l-0.638,2.749h2.641l-0.288,1.348h-2.641
		l-1.006,4.778c-0.078,0.372-0.117,0.659-0.117,0.862c0,0.916,0.455,1.375,1.365,1.375c0.443,0,0.919-0.111,1.428-0.333l-0.063,1.5
		c-0.491,0.18-1.285,0.27-2.38,0.27c-0.683,0-1.214-0.211-1.594-0.633s-0.57-1.001-0.57-1.738c0-0.168,0.027-0.375,0.081-0.62
		L365.373,93.129z"/>
	<path fill="#82A847" d="M371.509,101.401l1.455-8.183h-1.276l0.314-1.41h2.938l-1.698,9.593H371.509z M374.267,88.009
		c0.329,0,0.611,0.116,0.844,0.346s0.351,0.513,0.351,0.849c0,0.33-0.117,0.609-0.351,0.84s-0.515,0.346-0.844,0.346
		c-0.33,0-0.611-0.115-0.844-0.346s-0.351-0.51-0.351-0.84c0-0.335,0.117-0.618,0.351-0.849S373.937,88.009,374.267,88.009z"/>
	<path fill="#82A847" d="M380.098,101.581h-0.449l-2.793-9.827h1.778l1.725,6.62l3.656-6.62h1.967L380.098,101.581z"/>
	<path fill="#82A847" d="M386.27,101.401l1.455-8.183h-1.276l0.314-1.41h2.938l-1.698,9.593H386.27z M389.027,88.009
		c0.329,0,0.611,0.116,0.844,0.346s0.351,0.513,0.351,0.849c0,0.33-0.117,0.609-0.351,0.84s-0.515,0.346-0.844,0.346
		c-0.33,0-0.611-0.115-0.844-0.346s-0.351-0.51-0.351-0.84c0-0.335,0.117-0.618,0.351-0.849S388.697,88.009,389.027,88.009z"/>
	<path fill="#82A847" d="M393.609,93.129h-1.114l0.288-1.348h1.114l0.395-2.012l1.949-0.737l-0.638,2.749h2.641l-0.288,1.348h-2.641
		l-1.006,4.778c-0.078,0.372-0.117,0.659-0.117,0.862c0,0.916,0.455,1.375,1.365,1.375c0.443,0,0.919-0.111,1.428-0.333l-0.063,1.5
		c-0.491,0.18-1.285,0.27-2.38,0.27c-0.683,0-1.214-0.211-1.594-0.633s-0.57-1.001-0.57-1.738c0-0.168,0.027-0.375,0.081-0.62
		L393.609,93.129z"/>
	<path fill="#82A847" d="M398.784,105.174v-1.715c1.114,0,1.904-0.168,2.372-0.503c0.467-0.335,0.802-0.838,1.006-1.509
		c-0.844,0-1.404-0.832-1.68-2.497l-1.204-7.168h1.859l1.06,6.979c0.102,0.688,0.347,1.033,0.736,1.033l3.467-8.012h1.94
		l-4.823,10.77c-0.407,0.91-0.949,1.575-1.626,1.994C401.215,104.964,400.18,105.174,398.784,105.174z"/>
</g>
<g>
	<path fill="#FFCB05" d="M65.372,86.15l-0.944,0.157h-0.942h-0.787l-0.942-0.157l-0.787-0.157h-0.314v0.157v0.471v0.314v0.314v0.315
		v0.158c2.044-0.473,4.088-1.102,5.975-1.887l-0.472,0.158L65.372,86.15z"/>
	<path fill="#FFCB05" d="M35.971,79.704c-2.044-0.786-3.931-1.886-5.503-2.986c-1.729-1.258-3.302-2.517-4.717-4.088l-3.773,3.459
		c0,0.786,0.158,1.572,0.158,2.201c1.415,1.415,2.986,2.673,4.559,3.774c0.471,0.314,0.944,0.629,1.572,0.943l0.314-0.158
		l0.473-0.157v-0.157l0.314-0.787l0.628-0.629l0.944-0.628l1.1-0.314h1.258l1.1,0.314l0.787,0.628l0.471,0.629h0.157H36.6h0.786
		l1.101,0.158l0.943,0.471l0.944,0.786l0.471,0.944l0.157,0.786v0.158l0.472,0.157l0.786,0.473l0.786,0.628l0.629,1.102l0.158,1.1
		c0.786,0.157,1.572,0.157,2.515,0.314l-0.158-0.314v-0.158V87.88l-0.157-0.471l0.157-0.473v-0.314l0.158-0.157l-0.314-0.471
		l-0.157-1.258l1.101-1.101h0.786l0.471-1.258c-3.459-0.157-6.76-0.786-9.748-1.729C37.542,80.333,36.757,80.018,35.971,79.704z"/>
	<path fill="#FFCB05" d="M44.775,64.453c2.988,1.258,6.447,1.729,9.906,1.258c2.201-0.315,4.245-1.101,6.289-2.202
		c0.787-0.471,1.729-1.1,2.358-1.729c0.786-0.628,1.573-1.257,2.202-2.044c3.145-3.773,4.874-8.804,4.559-13.521l-6.603,0.472
		c0.157,2.987-0.944,6.446-2.988,8.804c-0.471,0.471-0.786,0.943-1.258,1.258c-0.471,0.471-0.942,0.786-1.572,1.1
		c-0.943,0.471-1.887,0.944-2.987,1.101c-2.516,0.629-5.188,0.472-7.389-0.471c-0.629-0.315-1.258-0.629-1.729-0.944
		c-0.629-0.314-1.102-0.786-1.415-1.258h-0.158l-4.717,4.403v0.158c0.787,0.786,1.573,1.415,2.517,2.044
		C42.731,63.509,43.675,64.139,44.775,64.453z"/>
	<path fill="#FFCB05" d="M71.504,64.924l-1.101-0.471l-1.101-0.471l-0.786-0.629l-0.629-0.786c-0.628,0.786-1.257,1.415-2.044,2.044
		c-0.943,0.786-2.043,1.415-3.145,2.201c-2.515,1.415-5.188,2.358-8.018,2.83c-4.874,0.786-9.906,0.314-14.307-1.572
		c-0.629-0.314-1.258-0.629-1.887-0.944c-0.629-0.314-1.258-0.629-1.886-1.1c-1.102-0.787-2.202-1.729-3.146-2.673l-4.716,4.403
		c1.257,1.415,2.673,2.672,4.245,3.616c1.573,0.943,3.144,1.887,4.874,2.515c0.158,0.158,0.315,0.158,0.629,0.314
		c3.617,1.415,7.704,2.202,11.792,2.044l0.158-0.314l0.315-0.786l0.471-0.629l0.629-0.471l0.471-0.471l0.629-0.472l0.629-0.315
		l0.786-0.314l0.314-0.157l0.314-0.158L55.624,72h0.629l0.628-0.157l0.629-0.158l0.629-0.157h0.471l0.472-0.158h0.471h0.315h0.471
		h0.472h0.629h0.471h0.629h0.629l0.629,0.158h0.628H64.9h0.629h0.471h0.471h0.314h0.315h0.158h0.157
		c0.943-0.629,1.886-1.258,2.673-2.044c1.257-1.101,2.516-2.202,3.459-3.459l0.314-0.314l-1.258-0.315L71.504,64.924z"/>
	<path fill="#FFCB05" d="M81.723,75.145l0.472-0.471c0.786-0.787,1.415-1.729,2.044-2.517L84.082,72l-0.314-0.629l-0.157-0.315
		h-0.471l-0.944-0.314h-0.472l-0.472-0.157l-0.786-0.314l-0.786-0.471l-0.787-0.473l-0.314-0.314
		c-0.471,0.473-0.943,1.102-1.257,1.573c-0.629,0.786-1.258,1.415-1.887,1.886l0.314,0.314l0.473,0.629l0.157,0.471l0.157,0.472
		v0.629v0.471v0.629v0.629v0.942v0.944v1.1v0.473c0.314-0.158,0.629-0.473,0.787-0.629C79.051,78.132,80.466,76.717,81.723,75.145z"
		/>
	<polygon fill="#FFCB05" points="95.245,73.729 94.931,73.729 94.302,75.93 95.245,77.346 95.402,76.717 95.56,76.402 95.56,75.93 
		95.716,75.302 95.716,74.83 95.716,74.201 95.716,73.573 	"/>
	<path fill="#FFCB05" d="M87.384,43.07l-0.786,0.158c0.157,2.987,0,6.131-0.629,9.275l0.471-0.157h1.415h1.415l1.258,0.157
		l1.415,0.158h0.629c0.157-1.258,0.471-2.673,0.471-3.93C91.314,46.687,89.428,44.8,87.384,43.07z"/>
	<path fill="#FFCB05" d="M88.956,79.861l-0.628-0.943c-1.101,1.415-2.202,2.673-3.617,3.93c-0.943,0.787-1.886,1.729-2.987,2.516
		c-0.628,0.472-1.257,0.943-2.043,1.415c-0.158,0.157-0.158,0.157-0.315,0.314c0.786,0.315,1.572,0.629,2.358,0.944
		c1.101,0.313,2.202,0.786,3.302,1.257l5.817-6.76l-1.101-1.573L88.956,79.861z"/>
	<path fill="#FFCB05" d="M76.535,56.277l0.787-0.157h0.786h0.629h0.629l0.157-0.943l0.629-0.944c1.1-3.772,1.729-7.86,1.415-11.634
		L75.12,43.07c0.314,4.874-1.101,10.063-3.616,14.623h0.314h1.101h0.471l0.787-0.787l0.786-0.315l0.786-0.314H76.535z"/>
</g>
<g>
	<path fill="#A2C53F" d="M46.662,105.332c-5.346-1.887-10.376-3.302-14.937-4.717c1.258,1.415,2.516,2.673,3.931,3.93l0.314,0.158
		c4.874,1.415,9.277,3.459,13.365,5.503c2.515,1.257,4.874,2.673,6.918,3.93c1.886,0.314,3.93,0.473,5.974,0.473
		c1.573,0,3.145-0.158,4.717-0.315c-3.932-2.358-9.591-5.188-17.609-8.019C48.392,105.96,47.606,105.647,46.662,105.332z"/>
	<path fill="#A2C53F" d="M58.297,101.715c-3.146-1.1-6.132-2.044-8.962-2.83c-9.591-2.988-17.61-4.874-22.956-6.132
		c0.629,1.101,1.101,2.044,1.729,2.988c4.245,0.944,10.691,2.673,19.497,5.345c0.628,0.158,1.1,0.314,1.729,0.472
		c9.275,3.145,17.294,7.862,22.797,11.792c2.359-0.629,4.56-1.415,6.76-2.358C74.648,108.319,68.045,105.018,58.297,101.715z"/>
</g>
<path fill-rule="evenodd" clip-rule="evenodd" fill="#835C33" d="M83.296,36.467l-6.132-7.076l-18.866,8.176l-2.001,5.878
	c-1.217-1.45-3.034-2.419-5.074-2.419c-3.616,0-6.447,2.988-6.447,6.446c0,0.189,0.039,0.367,0.053,0.551L38.172,45.9L20.72,56.906
	l2.201,8.962l19.496-10.691l2.652-5.833c0.784,2.713,3.19,4.732,6.153,4.732c3.617,0,6.603-2.988,6.603-6.604
	c0-0.774-0.168-1.516-0.441-2.214l5.944,1.114L83.296,36.467z"/>
<g>
	<path fill-rule="evenodd" clip-rule="evenodd" fill="#82A847" d="M58.611,99.515l9.905,3.616c0,0,7.076-2.358,14.623-2.358
		c2.986,0,5.974,0.472,8.489,0.787c0.629-0.629,1.258-1.258,1.887-2.044c-3.302-0.943-7.861-1.729-12.421-1.729
		C71.032,97.785,58.611,99.515,58.611,99.515z"/>
	<path fill-rule="evenodd" clip-rule="evenodd" fill="#82A847" d="M73.705,105.174c2.83,0.629,6.447,2.83,8.333,4.088
		c2.202-1.258,4.402-2.83,6.29-4.403c-1.101-0.314-2.516-0.471-4.402-0.471C77.478,104.231,73.705,105.174,73.705,105.174z"/>
	<path fill-rule="evenodd" clip-rule="evenodd" fill="#82A847" d="M73.862,87.565c0-1.886,0-2.044,0.157-2.516
		c0.158-0.314-0.629-1.573-0.629-2.358c0.158-0.629,0.787-5.66,0.944-5.974c0-0.315-0.315,4.401,0,5.817
		c0.471,1.572,0.629,1.729,0.629,1.729s-0.158-4.246-0.158-6.604c0-2.515,0.158-3.145-0.313-3.616
		c-0.473-0.629-1.73-1.258-2.359-1.258c-0.629,0.158-4.402,0.315-4.874,0.315c-0.629,0-6.132-0.157-7.705-0.157
		c-1.571,0-6.603,1.1-7.547,3.615l-2.83,8.176c0,0-0.472,0.471-1.258,0.471c-0.786,0,0.158,0.629,0.158,1.258
		c0,0.471-0.471,0.786-0.158,1.415c0.158,0.786,0.158,2.201,0,2.83c-0.157,0.473-0.313,0.158-0.313,0.629
		c0,0.027,0.02,0.049,0.024,0.075c-1.06,0.134-2.081,0.268-3.012,0.396v0.158l0.314,0.944v0.786l0.157,0.629l-0.157,0.472v0.314
		l6.918,1.729c0,0,8.647-2.359,23.427-2.673c9.119-0.157,16.351,1.258,20.439,2.202c0.315-0.315,0.629-0.787,0.786-1.102
		c-4.989-1.792-13.429-4.28-22.58-5.072C73.906,89.508,73.862,88.596,73.862,87.565z M71.504,85.364
		c0-0.629,1.415,1.886,1.257,3.459c0,0.511-0.025,0.914-0.059,1.268c-1.205-0.083-2.417-0.121-3.636-0.134
		c0.283-0.428,0.55-0.848,0.55-1.134C69.774,88.509,71.504,85.836,71.504,85.364z M58.925,86.936c0-0.786,0.158-3.145,0.158-3.145
		s2.359,0.944,4.403,0.786c2.044,0,4.559-0.786,4.559-0.786s1.257,0.944,1.257,1.415c0,0.629-0.943,3.932-0.943,3.932l-0.58,0.79
		c-0.068,0.001-0.137-0.005-0.207-0.004c-3.122,0.053-6.121,0.204-8.959,0.404c0.121-0.208,0.244-0.428,0.312-0.561
		C59.083,89.453,58.925,87.723,58.925,86.936z M57.354,84.892c0.314-0.314,0.786,3.146,0.629,3.931c0,0.579-0.345,1.188-0.62,1.595
		c-0.732,0.057-1.453,0.116-2.16,0.179c0.209-0.928,0.415-2.668,0.892-3.504C56.568,86.15,57.039,85.207,57.354,84.892z
		 M49.857,91.145c0.023-0.116,0.054-0.225,0.106-0.277c0.158-0.314,1.729-2.044,2.044-2.987c0.158-0.944,0.629-2.044,1.101-2.673
		c0.472-0.629,0.943-0.629,1.416-0.314c0.471,0.314-0.158,1.887-0.158,3.302c0,0.985-0.364,1.877-0.678,2.546
		C52.354,90.869,51.071,91.004,49.857,91.145z"/>
	<path fill-rule="evenodd" clip-rule="evenodd" fill="#82A847" d="M41.474,90.867c-2.516-1.1,0.629,0.315,0.786-2.044
		c0-2.516-2.988-2.673-2.988-2.673s0.944-2.044-1.257-2.673c-2.202-0.629-3.459,0.158-3.459,0.158s0-2.202-2.202-1.887
		c-2.358,0.473-1.886,2.202-1.886,2.202s-2.515,0.314-2.673,1.729c0,1.571,0.629,1.571,0.629,1.571s-1.415,0.787-1.415,2.044
		c0,1.258,0.786,2.044,0.786,2.044l15.565,3.459C43.36,94.798,43.989,91.968,41.474,90.867z"/>
	<path fill-rule="evenodd" clip-rule="evenodd" fill="#82A847" d="M95.402,54.547c-2.515-0.471-16.666-2.044-14.307,2.673
		c0.943,1.573-6.761-1.101-6.761,2.358c0,0-2.516-1.415-5.032,1.101c-2.357,2.673,11.792,5.032,11.792,5.032
		s-3.459,0.629-1.101,2.515c0.902,0.773,2.833,1.226,4.797,1.496c1.026,2.268,2.301,4.497,3.693,6.522
		c2.673,4.088,4.245,6.447,4.245,6.447l-6.446,7.547l9.905,2.044c1.927-3.854,5.249-12.88,4.7-21.147
		c0.584-0.138,0.961-0.236,0.961-0.236C102.478,70.899,101.063,55.806,95.402,54.547z M86.985,69.958
		c1.964,0.156,3.543,0.156,3.543,0.156s0.015,1.199,1.513,1.757l-1.356,2.802C90.685,74.673,88.005,71.981,86.985,69.958z
		 M96.975,77.188c-0.629,2.358-1.573,3.145-1.573,3.145l-2.83-4.088l1.204-4.092c0.021,0,0.034,0.004,0.054,0.004
		c1.127,0,2.413-0.15,3.625-0.343C97.436,73.488,97.336,75.744,96.975,77.188z"/>
</g>
<rect fill-rule="evenodd" clip-rule="evenodd" fill="none" width="432" height="144"/>
</svg>
