<?xml version="1.0" encoding="UTF-8" standalone="no"?>
<!-- Created with Inkscape (http://www.inkscape.org/) -->

<svg
   xmlns:dc="http://purl.org/dc/elements/1.1/"
   xmlns:cc="http://creativecommons.org/ns#"
   xmlns:rdf="http://www.w3.org/1999/02/22-rdf-syntax-ns#"
   xmlns:svg="http://www.w3.org/2000/svg"
   xmlns="http://www.w3.org/2000/svg"
   xmlns:sodipodi="http://sodipodi.sourceforge.net/DTD/sodipodi-0.dtd"
   xmlns:inkscape="http://www.inkscape.org/namespaces/inkscape"
   id="svg2"
   version="1.1"
   inkscape:version="0.91 r13725"
   xml:space="preserve"
   width="189.77979"
   height="63.040501"
   viewBox="0 0 189.77979 63.040501"
   sodipodi:docname="tern_auscover.svg"><metadata
     id="metadata8"><rdf:RDF><cc:Work
         rdf:about=""><dc:format>image/svg+xml</dc:format><dc:type
           rdf:resource="http://purl.org/dc/dcmitype/StillImage" /><dc:title></dc:title></cc:Work></rdf:RDF></metadata><defs
     id="defs6" /><sodipodi:namedview
     pagecolor="#ffffff"
     bordercolor="#666666"
     borderopacity="1"
     objecttolerance="10"
     gridtolerance="10"
     guidetolerance="10"
     inkscape:pageopacity="0"
     inkscape:pageshadow="2"
     inkscape:window-width="1871"
     inkscape:window-height="1062"
     id="namedview4"
     showgrid="false"
     inkscape:zoom="3.7659171"
     inkscape:cx="102.24969"
     inkscape:cy="92.425627"
     inkscape:window-x="49"
     inkscape:window-y="18"
     inkscape:window-maximized="1"
     inkscape:current-layer="g10"
     fit-margin-top="0"
     fit-margin-left="0"
     fit-margin-right="0"
     fit-margin-bottom="0" /><g
     id="g10"
     inkscape:groupmode="layer"
     inkscape:label="ink_ext_XXXXXX"
     transform="matrix(1.25,0,0,-1.25,-0.126465,63.0405)"><g
       id="g12"
       transform="scale(0.1,0.1)"><path
         d="m 454.832,374.371 -8.668,60.633 -7.695,9.246 -164.781,-266.039 c 5.789,-10.832 15.867,-12.602 20.125,-33.539 l 8.656,-2.152 10.844,9.73 1.082,-14.07 11.914,8.55 c 27.492,44.391 95.976,154.942 137.539,222.051 -3.043,2.278 -6.082,4.207 -9.016,5.59 z m 41.488,-55.34 c -0.297,3.02 -1.093,6.199 -2.203,9.438 C 466.82,248.441 378.262,178.238 328.484,143.879 l 1.063,-12.199 10.5,-2.071 c 2.16,-11.757 6.508,-24.5 12.992,-34.6402 l 9.047,-2.8594 c 29.234,20.4106 57.859,44.2426 58.363,44.6716 50.785,42.668 88.313,85.719 112.168,128.52 -7.508,11.371 -25.859,51.14 -36.297,53.73"
         style="fill:#9bb383;fill-opacity:1;fill-rule:nonzero;stroke:none"
         id="path104"
         inkscape:connector-curvature="0" /><path
         d="m 347.637,413.578 -2.36,1.524 -5.882,4.043 -37.25,25.613 23.804,33.566 -10.82,8.676 -14.816,-4.441 -22.426,7.906 -63.188,-48.039 -0.293,-0.914 -1.707,-0.606 -211.68728,-160.918 0.05859,-2 6.49219,-20.59 C 5.57422,249.301 13.0586,235.691 21.9336,218.879 54.9727,244 191.605,347.859 281.863,416.48 236.563,314.09 176.742,178.898 176.742,178.898 l 5.918,-2.617 c 16.453,8.5 32.211,15.379 35.176,14.129 l 5.867,0.27 c 5.848,1.629 15.266,0.449 24.555,-1.692 l 99.379,224.59"
         style="fill:#9bb383;fill-opacity:1;fill-rule:nonzero;stroke:none"
         id="path106"
         inkscape:connector-curvature="0" /><path
         d="m 416.359,487.516 -4.851,16.808 -3.5,0 c -2.899,-2.168 -5.672,-4.332 -8.317,-6.48 L 388,461.379 c 7.164,8.047 16.426,16.937 28.359,26.137 z m 7.657,-26.504 -5.481,18.957 c -10.094,-7.813 -21.605,-17.922 -34.109,-29.735 l -11.949,-37.273 c 19.285,19.551 36.875,36.137 51.539,48.051 z M 321.383,431.527 C 258.262,372.16 140.828,261.738 69.9375,195.07 L 192.34,439.887 180.004,456.344 40.5547,177.441 c 3.1719,-9.761 5.2812,-19.859 5.5117,-30.113 l 0.0508,0.102 C 113.355,210.648 299.418,385.629 336.898,420.859 l -15.515,10.668 z M 435.434,43.9297 407.422,9.75 411.418,3.28125 418.57,0 l 10.957,9.33984 0.793,-0.64843 4.332,5.27739 1.02,6.3515 3.535,2.8985 c 2.172,6.0117 4.121,15.0312 1.617,21.2812 l -5.39,-0.5703 z M 526.406,276 C 489.742,230.98 424.02,150.301 373.633,88.4297 c 3.972,-1.8789 11.777,-8.1406 14.055,-9.7188 l 3.296,1.8907 140.996,173.1094 0.833,11.277 c -1.649,2.453 -3.864,6.391 -6.407,11.012 z m -71.574,98.371 -2.848,19.899 c -31.07,-28.29 -69.828,-64.641 -108.929,-104 4.601,38.601 8.957,75.179 12.55,105.312 2.563,2.688 5.098,5.316 7.622,7.93 l -17.95,11.59 -5.422,3.722 c -0.472,-3.933 -1.074,-8.945 -1.804,-15.105 -78.367,-82.418 -173.379,-197.61 -219.883,-254.938 8.598,2.231 16.949,3.239 24.035,2.399 1.031,1.191 2.914,2.75 5.41,4.55 45.93,56.149 120.91,146.11 186.782,217.27 -3.336,-27.961 -7.684,-64.41 -12.426,-104.238 -25.406,-26.242 -50.356,-53.364 -72.867,-79.981 7.207,-1.703 14.175,-3.91 19.336,-5.84 15.714,18.27 32.55,36.797 49.863,55.11 -3.567,-29.942 -7.262,-60.949 -10.844,-91.063 l 5.856,5.262 1.082,-14.07 11.511,8.261 c 4.282,35.879 8.961,75.161 13.551,113.641 41.102,42.199 83.121,82.039 117.184,113.328 -0.606,0.32 -1.211,0.68 -1.809,0.961"
         style="fill:#526728;fill-opacity:1;fill-rule:nonzero;stroke:none"
         id="path108"
         inkscape:connector-curvature="0" /><path
         d="m 467.824,87.3789 2.946,15.7111 2.5,5.871 c 2.492,6.609 5.367,12.598 8.476,18.16 -12.312,-13.301 -25.516,-27.5507 -39.023,-42.1405 8.832,2.5195 18.047,3.6484 25.101,2.3984 z m -58.64,-38.6172 c -2.946,-3.1797 -5.871,-6.3398 -8.786,-9.4804 2.153,-6.2813 5,-16.0196 4.778,-21.9219 7.625,8.2304 15.66,16.9101 23.976,25.9023 l -8.191,-0.8828 -11.777,6.3828 z m -60.18,53.4763 c 1.246,-2.5075 2.562,-4.9763 4.035,-7.2692 l 12.984,-4.0977 0.227,-0.0703 c 41.16,22.9802 102.996,57.4882 147.223,82.1792 5.672,8.629 10.554,17.86 13.8,28.758 l -178.269,-99.5 z M 483.25,348.672 287.434,161.078 c 2.562,-3.879 4.851,-8.887 6.379,-16.406 l 2.445,-0.613 196.433,188.16 c -2.328,5.531 -5.597,11.133 -9.441,16.453 z M 300.313,482.559 286.035,487.59 C 262.043,412.281 199.34,258.43 59.957,128.73 l 10.4258,-4.531 c 7.1875,6.66 18.2695,13.41 30.2732,18.551 123.571,126.91 180.727,269.281 203.403,340.938 l -3.746,-1.129"
         style="fill:#405d8d;fill-opacity:1;fill-rule:nonzero;stroke:none"
         id="path110"
         inkscape:connector-curvature="0" /><path
         d="M 506.645,309.352 313.816,145.73 l 0.579,-7.55 13.734,9.851 1.152,-13.293 187.309,158.934 c -3.293,5.719 -6.692,11.226 -9.945,15.68 z M 261.316,484.73 248.461,484.152 c -10.832,-10.797 -21.543,-23.093 -32.074,-36.476 l -1.981,-6.164 -3.84,-1.356 C 138.793,345.59 76.543,202.391 48.7656,133.602 l 16.9805,-7.383 C 100.605,212.039 191.102,418.453 281.324,489.25 l -18.168,6.406 -1.84,-10.926"
         style="fill:#bd3d15;fill-opacity:1;fill-rule:nonzero;stroke:none"
         id="path112"
         inkscape:connector-curvature="0" /><path
         d="M 447.352,426.695 C 337.699,349.57 275.941,244.012 249.203,188.762 c 6.621,-1.571 13.094,-3.582 18.098,-5.391 26.219,52.891 84.23,150.559 182.976,222.867 l -2.925,20.457 z M 532.594,262.012 C 488.012,179.051 443.898,117.531 412.484,78.25 l 7.692,-3.8711 c 5.09,3.9492 12.64,7.4922 20.648,9.9805 25.656,33.5706 57.192,79.1096 90.106,136.6916 0.597,6.461 0.738,13.41 0.187,21.14 l 0.442,5.891 1.035,13.93 z M 398.828,43.6211 c 0.633,-1.6094 1.598,-4.3203 2.586,-7.4414 3.02,3.4219 6.332,7.2422 9.883,11.4414 l -5.695,3.0781 -6.774,-7.0781 z M 339.395,419.145 323.484,430.086 45.7461,217.109 150.148,436.504 C 139.68,425.523 131.168,412.16 129.203,401.328 l -11.172,9.863 c -0.203,-0.14 -0.363,-0.39 -0.558,-0.55 l -8.02,-16.852 c -1.465,-6.609 -2.047,-13.379 -1.91,-17.367 -1.465,-1.672 -5.074,-4.434 -10.1016,-7.871 L 24.1797,214.59 c 4.4375,-8.469 8.9883,-17.68 12.8398,-27.352 l 302.4065,231.887 -0.031,0.02"
         style="fill:#c0680e;fill-opacity:1;fill-rule:nonzero;stroke:none"
         id="path114"
         inkscape:connector-curvature="0" /><path
         d="m 438.773,443.887 -3.425,4.121 -6.387,0 C 346.484,383.59 249.84,250.711 206.023,187.281 c 5.954,2.41 10.391,3.719 11.813,3.129 l 1.758,0.078 c 46.898,66.961 141.246,194.274 219.179,253.399 z m -238.652,-7.426 c -4.172,-64.973 -12.367,-192.5 -16.691,-259.781 3.242,1.66 6.449,3.269 9.523,4.75 3.027,47.121 11.559,179.902 16.598,258.367 l -9.43,-3.336 z m -34.863,13.066 -27.766,-29.082 c -4.187,-6.593 -7.219,-13.226 -8.289,-19.117 l -5.406,4.774 -15.035,-15.762 c -0.949,-5.43 -1.328,-10.621 -1.219,-13.918 -3.289,-3.75 -17.2852,-12.942 -34.1446,-23.121 l -72.22262,-75.66 3.16406,-10 C 52.2891,317.871 141.086,410.891 181.973,453.727 l -2.215,2.953 c -4.57,-1.196 -9.531,-3.746 -14.5,-7.153 z m 308.539,-89.586 c -3.082,3.18 -6.293,6.059 -9.508,8.52 3.34,-62.051 -7.254,-166.871 -87.996,-281.5508 2.402,-1.5196 5.195,-3.5704 7.512,-5.3204 78.383,111.3512 91.894,213.8402 89.992,278.3512"
         style="fill:#bd3d15;fill-opacity:1;fill-rule:nonzero;stroke:none"
         id="path116"
         inkscape:connector-curvature="0" /><path
         d="m 846.395,472.004 0,-18.086 -77.637,0 0,-204.547 -21.203,0 0,204.547 -77.332,0 0,18.086 176.172,0"
         style="fill:#526728;fill-opacity:1;fill-rule:nonzero;stroke:none"
         id="path118"
         inkscape:connector-curvature="0" /><path
         d="m 1036.6,472.004 0,-18.086 -132.522,0 0,-80.449 124.102,0 0,-18.09 -124.102,0 0,-87.93 134.082,0 0,-18.078 -155.281,0 0,222.633 153.721,0"
         style="fill:#526728;fill-opacity:1;fill-rule:nonzero;stroke:none"
         id="path120"
         inkscape:connector-curvature="0" /><path
         d="m 1183.78,366.301 c 6.44,0 12.57,0.988 18.39,2.961 5.82,1.968 10.92,4.828 15.29,8.57 4.36,3.738 7.84,8.27 10.44,13.566 2.59,5.301 3.89,11.391 3.89,18.243 0,13.722 -3.94,24.519 -11.84,32.429 -7.9,7.895 -19.95,11.848 -36.17,11.848 l -79.2,0 0,-87.617 79.2,0 z m 1.56,105.703 c 9.14,0 17.82,-1.141 26.03,-3.43 8.22,-2.293 15.38,-5.769 21.52,-10.445 6.13,-4.68 11.01,-10.715 14.66,-18.086 3.63,-7.387 5.45,-16.055 5.45,-26.031 0,-14.141 -3.64,-26.41 -10.91,-36.801 -7.28,-10.391 -18.09,-17.039 -32.44,-19.949 l 0,-0.633 c 7.28,-1.039 13.31,-2.957 18.09,-5.77 4.79,-2.8 8.68,-6.39 11.7,-10.75 3.01,-4.371 5.19,-9.41 6.54,-15.129 1.35,-5.718 2.24,-11.898 2.66,-18.55 0.19,-3.739 0.41,-8.309 0.61,-13.719 0.21,-5.402 0.63,-10.859 1.25,-16.371 0.63,-5.512 1.62,-10.699 2.96,-15.59 1.36,-4.891 3.18,-8.68 5.46,-11.379 l -23.39,0 c -1.24,2.078 -2.23,4.629 -2.96,7.641 -0.73,3.008 -1.25,6.129 -1.55,9.347 -0.31,3.219 -0.57,6.403 -0.78,9.512 -0.21,3.129 -0.42,5.82 -0.62,8.109 -0.42,7.899 -1.1,15.75 -2.04,23.54 -0.92,7.789 -2.91,14.761 -5.91,20.89 -3.02,6.129 -7.39,11.07 -13.1,14.809 -5.72,3.75 -13.56,5.41 -23.54,5 l -80.45,0 0,-98.848 -21.2,0 0,222.633 101.96,0"
         style="fill:#526728;fill-opacity:1;fill-rule:nonzero;stroke:none"
         id="path122"
         inkscape:connector-curvature="0" /><path
         d="m 1330.33,472.004 129.71,-188.344 0.62,0 0,188.344 21.2,0 0,-222.633 -23.69,0 -129.72,188.336 -0.62,0 0,-188.336 -21.2,0 0,222.633 23.7,0"
         style="fill:#526728;fill-opacity:1;fill-rule:nonzero;stroke:none"
         id="path124"
         inkscape:connector-curvature="0" /><path
         d="m 1519.25,184.059 -816.336,0"
         style="fill:none;stroke:#c0680e;stroke-width:7.08660984;stroke-linecap:butt;stroke-linejoin:miter;stroke-miterlimit:4;stroke-dasharray:none;stroke-opacity:1"
         id="path126"
         inkscape:connector-curvature="0" /><path
         d="m 727.215,72.3906 -11.902,33.3084 -0.2,0 -12.105,-33.3084 24.207,0 z m -6.602,41.8984 27.899,-71.3984 -10.504,0 -7.797,21.5078 -30.199,0 -8,-21.5078 -9.699,0 27.8,71.3984 10.5,0"
         style="fill:#526728;fill-opacity:1;fill-rule:nonzero;stroke:none"
         id="path128"
         inkscape:connector-curvature="0" /><path
         d="m 788.91,42.8906 0,8.211 -0.199,0 c -1.801,-3.211 -4.102,-5.5625 -6.898,-7.0508 -2.801,-1.5117 -6.102,-2.2617 -9.903,-2.2617 -3.398,0 -6.234,0.4492 -8.5,1.3593 -2.265,0.9024 -4.097,2.1719 -5.5,3.8399 -1.398,1.6601 -2.383,3.6601 -2.949,5.9531 -0.566,2.3086 -0.848,4.8594 -0.848,7.6484 l 0,34 8.5,0 0,-35 c 0,-3.1992 0.934,-5.7304 2.797,-7.6015 1.867,-1.8594 4.434,-2.7969 7.703,-2.7969 2.598,0 4.848,0.3984 6.746,1.1992 1.899,0.8008 3.489,1.9414 4.75,3.3985 1.266,1.4726 2.219,3.1797 2.852,5.1601 0.633,1.961 0.949,4.1094 0.949,6.4414 l 0,29.1992 8.5,0 0,-51.6992 -8,0"
         style="fill:#526728;fill-opacity:1;fill-rule:nonzero;stroke:none"
         id="path130"
         inkscape:connector-curvature="0" /><path
         d="m 816.211,54.4492 c 0.801,-1.3008 1.852,-2.3398 3.152,-3.1094 1.297,-0.7578 2.762,-1.3203 4.399,-1.6484 1.636,-0.332 3.312,-0.5 5.047,-0.5 1.336,0 2.734,0.0977 4.207,0.2969 1.464,0.2031 2.808,0.5703 4.047,1.1015 1.23,0.5391 2.25,1.3204 3.05,2.3516 0.797,1.0391 1.196,2.3594 1.196,3.957 0,2.1914 -0.829,3.8516 -2.5,5 -1.664,1.1329 -3.75,2.0508 -6.25,2.7422 -2.5,0.6992 -5.215,1.3399 -8.149,1.9102 -2.933,0.5586 -5.648,1.3594 -8.148,2.3984 -2.5,1.0196 -4.586,2.4805 -6.25,4.3399 -1.664,1.8711 -2.5,4.4726 -2.5,7.8125 0,2.5898 0.586,4.8281 1.754,6.6992 1.16,1.8594 2.66,3.3711 4.496,4.5508 1.836,1.1601 3.898,2.0273 6.199,2.5898 2.301,0.5703 4.582,0.8477 6.852,0.8477 2.929,0 5.628,-0.25 8.101,-0.75 2.465,-0.5 4.649,-1.3672 6.547,-2.5977 1.898,-1.2305 3.418,-2.9023 4.551,-5 1.133,-2.1016 1.801,-4.7109 2.004,-7.8516 l -8.504,0 c -0.137,1.6719 -0.567,3.0508 -1.297,4.1485 -0.738,1.1133 -1.672,1.9805 -2.805,2.6523 -1.133,0.668 -2.383,1.1485 -3.75,1.4492 -1.367,0.3086 -2.75,0.4493 -4.148,0.4493 -1.266,0 -2.551,-0.0899 -3.848,-0.3008 -1.305,-0.1875 -2.484,-0.5469 -3.551,-1.0391 -1.07,-0.5 -1.937,-1.1797 -2.601,-2.0078 -0.664,-0.8398 -1,-1.9101 -1,-3.25 0,-1.4609 0.515,-2.6797 1.551,-3.6523 1.031,-0.9688 2.347,-1.7696 3.949,-2.3907 1.597,-0.6367 3.398,-1.1796 5.402,-1.5976 1.996,-0.4414 3.996,-0.8906 5.996,-1.3516 2.133,-0.4687 4.219,-1.039 6.25,-1.7109 2.035,-0.668 3.832,-1.5391 5.399,-2.6485 1.57,-1.1015 2.839,-2.4804 3.804,-4.1484 0.961,-1.6719 1.45,-3.7305 1.45,-6.2031 0,-3.1289 -0.653,-5.7266 -1.954,-7.7891 -1.296,-2.0703 -2.996,-3.7383 -5.097,-5 -2.098,-1.2695 -4.465,-2.1601 -7.098,-2.6601 -2.637,-0.5 -5.254,-0.75 -7.851,-0.75 -2.868,0 -5.602,0.3007 -8.2,0.9101 -2.601,0.5899 -4.902,1.5821 -6.898,2.9492 -2.004,1.3516 -3.606,3.1602 -4.805,5.4024 -1.195,2.2187 -1.867,4.9375 -2,8.1406 l 8.504,0 c 0.063,-1.8594 0.496,-3.4531 1.297,-4.7422"
         style="fill:#526728;fill-opacity:1;fill-rule:nonzero;stroke:none"
         id="path132"
         inkscape:connector-curvature="0" /><path
         d="m 904.266,104.191 c -3.641,2.528 -7.957,3.797 -12.957,3.797 -4.266,0 -7.914,-0.797 -10.946,-2.398 -3.039,-1.59 -5.539,-3.75 -7.5,-6.4494 -1.968,-2.6914 -3.418,-5.7812 -4.351,-9.25 -0.934,-3.4609 -1.403,-7.0703 -1.403,-10.8008 0,-4.0703 0.469,-7.9179 1.403,-11.5507 0.933,-3.6289 2.383,-6.8008 4.351,-9.5 1.961,-2.6993 4.481,-4.8399 7.547,-6.4493 3.067,-1.6015 6.735,-2.3984 11,-2.3984 3.133,0 5.914,0.5195 8.352,1.5469 2.433,1.043 4.531,2.4726 6.301,4.3008 1.765,1.8398 3.148,4.0117 4.148,6.5507 1,2.5313 1.602,5.2696 1.801,8.211 l 9.5,0 c -0.934,-9.0117 -4.035,-16.0117 -9.297,-21.0117 -5.27,-5 -12.473,-7.5 -21.602,-7.5 -5.535,0 -10.367,0.9492 -14.504,2.8515 -4.129,1.9102 -7.562,4.5078 -10.296,7.8477 -2.735,3.332 -4.786,7.2734 -6.153,11.8008 -1.367,4.5312 -2.047,9.4101 -2.047,14.6015 0,5.211 0.735,10.0899 2.2,14.6485 1.464,4.5703 3.617,8.5509 6.449,11.9489 2.832,3.403 6.367,6.094 10.601,8.051 4.231,1.973 9.082,2.949 14.547,2.949 3.735,0 7.27,-0.5 10.602,-1.5 3.332,-1 6.301,-2.468 8.898,-4.398 2.602,-1.93 4.766,-4.352 6.504,-7.25 1.734,-2.8986 2.867,-6.2502 3.399,-10.0392 l -9.504,0 c -1.063,5.0508 -3.411,8.8592 -7.043,11.3902"
         style="fill:#526728;fill-opacity:1;fill-rule:nonzero;stroke:none"
         id="path134"
         inkscape:connector-curvature="0" /><path
         d="m 939.355,60.3398 c 0.836,-2.4296 1.989,-4.4687 3.454,-6.1015 1.464,-1.6289 3.183,-2.8789 5.152,-3.75 1.961,-0.8672 4.047,-1.2969 6.25,-1.2969 2.195,0 4.281,0.4297 6.25,1.2969 1.961,0.8711 3.68,2.1211 5.144,3.75 1.469,1.6328 2.618,3.6719 3.454,6.1015 0.836,2.4415 1.25,5.2188 1.25,8.3516 0,3.1406 -0.414,5.918 -1.25,8.3477 -0.836,2.4297 -1.985,4.4922 -3.454,6.1601 -1.464,1.6602 -3.183,2.9297 -5.144,3.7891 -1.969,0.8633 -4.055,1.3008 -6.25,1.3008 -2.203,0 -4.289,-0.4375 -6.25,-1.3008 -1.969,-0.8594 -3.688,-2.1289 -5.152,-3.7891 -1.465,-1.6679 -2.618,-3.7304 -3.454,-6.1601 -0.828,-2.4297 -1.25,-5.2071 -1.25,-8.3477 0,-3.1328 0.422,-5.9101 1.25,-8.3516 z m -8.644,19 c 1.062,3.3008 2.664,6.1719 4.797,8.6016 2.137,2.4297 4.765,4.3594 7.902,5.75 3.133,1.3984 6.735,2.0977 10.801,2.0977 4.129,0 7.75,-0.6993 10.848,-2.0977 3.101,-1.3906 5.714,-3.3203 7.851,-5.75 2.129,-2.4297 3.731,-5.3008 4.801,-8.6016 1.066,-3.289 1.598,-6.8515 1.598,-10.6484 0,-3.8008 -0.532,-7.332 -1.598,-10.6016 -1.07,-3.2578 -2.672,-6.121 -4.801,-8.5507 -2.137,-2.4297 -4.75,-4.3282 -7.851,-5.6993 -3.098,-1.371 -6.719,-2.0507 -10.848,-2.0507 -4.066,0 -7.668,0.6797 -10.801,2.0507 -3.137,1.3711 -5.765,3.2696 -7.902,5.6993 -2.133,2.4297 -3.735,5.2929 -4.797,8.5507 -1.07,3.2696 -1.602,6.8008 -1.602,10.6016 0,3.7969 0.532,7.3594 1.602,10.6484"
         style="fill:#526728;fill-opacity:1;fill-rule:nonzero;stroke:none"
         id="path136"
         inkscape:connector-curvature="0" /><path
         d="m 1003.51,42.8906 -19.201,51.6992 9.496,0 14.505,-43.0898 0.2,0 14.1,43.0898 8.9,0 -18.9,-51.6992 -9.1,0"
         style="fill:#526728;fill-opacity:1;fill-rule:nonzero;stroke:none"
         id="path138"
         inkscape:connector-curvature="0" /><path
         d="m 1073.86,79.3984 c -0.77,1.793 -1.8,3.3516 -3.1,4.6524 -1.31,1.289 -2.84,2.3281 -4.6,3.0898 -1.77,0.7696 -3.72,1.1485 -5.85,1.1485 -2.2,0 -4.19,-0.3789 -5.95,-1.1485 -1.77,-0.7617 -3.29,-1.8203 -4.55,-3.1406 -1.27,-1.3398 -2.27,-2.8906 -3,-4.6602 -0.74,-1.7578 -1.17,-3.6406 -1.31,-5.6484 l 29.71,0 c -0.14,2.0078 -0.59,3.8984 -1.35,5.707 z m 2.04,-33.207 c -3.86,-2.9414 -8.73,-4.4023 -14.6,-4.4023 -4.13,0 -7.71,0.6718 -10.74,2 -3.04,1.3398 -5.59,3.1992 -7.65,5.6093 -2.07,2.3907 -3.62,5.2618 -4.65,8.5899 -1.04,3.3437 -1.62,6.9726 -1.75,10.9023 0,3.9297 0.6,7.5391 1.8,10.8008 1.2,3.2695 2.88,6.0977 5.05,8.5078 2.16,2.3906 4.73,4.2617 7.7,5.5899 2.96,1.3398 6.21,2 9.75,2 4.6,0 8.41,-0.9375 11.45,-2.8477 3.03,-1.8906 5.46,-4.3125 7.3,-7.2422 1.83,-2.9375 3.1,-6.1406 3.8,-9.5976 0.7,-3.4727 0.98,-6.7696 0.85,-9.9102 l -38.71,0 c -0.06,-2.2617 0.2,-4.4101 0.8,-6.4531 0.61,-2.0274 1.57,-3.8281 2.91,-5.3985 1.33,-1.5585 3.03,-2.8085 5.1,-3.75 2.06,-0.9296 4.49,-1.3984 7.3,-1.3984 3.6,0 6.55,0.8281 8.85,2.5 2.3,1.668 3.81,4.1992 4.55,7.5977 l 8.39,0 c -1.13,-5.8008 -3.63,-10.168 -7.5,-13.0977"
         style="fill:#526728;fill-opacity:1;fill-rule:nonzero;stroke:none"
         id="path140"
         inkscape:connector-curvature="0" /><path
         d="m 1100.7,94.5898 0,-10.8984 0.2,0 c 2.07,4.1992 4.6,7.2969 7.6,9.2969 3.01,2 6.8,2.9414 11.4,2.8008 l 0,-9 c -3.39,0 -6.3,-0.4571 -8.7,-1.3985 -2.4,-0.9297 -4.33,-2.3008 -5.8,-4.1015 -1.46,-1.8008 -2.53,-3.9805 -3.2,-6.5508 -0.67,-2.5586 -1,-5.5195 -1,-8.8477 l 0,-23 -8.5,0 0,51.6992 8,0"
         style="fill:#526728;fill-opacity:1;fill-rule:nonzero;stroke:none"
         id="path142"
         inkscape:connector-curvature="0" /></g></g></svg>